<svg id="OBJECTS" xmlns="http://www.w3.org/2000/svg" xmlns:xlink="http://www.w3.org/1999/xlink" viewBox="0 0 105.58 82.6"><defs><style>.cls-1{fill:url(#linear-gradient);}.cls-2{fill:url(#linear-gradient-2);}.cls-3{fill:url(#linear-gradient-3);}.cls-4{fill:url(#linear-gradient-4);}.cls-5{fill:url(#linear-gradient-5);}.cls-6{fill:url(#linear-gradient-6);}.cls-7{fill:url(#linear-gradient-7);}.cls-8{fill:url(#linear-gradient-8);}.cls-9{fill:url(#linear-gradient-9);}.cls-10{fill:url(#linear-gradient-10);}.cls-11{fill:url(#linear-gradient-11);}.cls-12{fill:url(#linear-gradient-12);}.cls-13{fill:url(#linear-gradient-13);}.cls-14{fill:url(#linear-gradient-14);}</style><linearGradient id="linear-gradient" x1="61.47" y1="321.48" x2="152.99" y2="321.48" gradientUnits="userSpaceOnUse"><stop offset="0" stop-color="#5bc96a"/><stop offset="1" stop-color="#24b242"/></linearGradient><linearGradient id="linear-gradient-2" x1="-276.13" y1="-100.15" x2="-243.08" y2="-40.68" gradientTransform="matrix(-0.8, 0.6, -0.6, -0.8, -172.45, 457.75)" xlink:href="#linear-gradient"/><linearGradient id="linear-gradient-3" x1="-281.19" y1="-97.34" x2="-248.14" y2="-37.87" gradientTransform="matrix(-0.8, 0.6, -0.6, -0.8, -172.45, 457.75)" xlink:href="#linear-gradient"/><linearGradient id="linear-gradient-4" x1="194.36" y1="254.43" x2="227.41" y2="313.9" gradientTransform="matrix(0.8, 0.6, 0.6, -0.8, -203.13, 457.75)" xlink:href="#linear-gradient"/><linearGradient id="linear-gradient-5" x1="61.47" y1="359.19" x2="152.99" y2="359.19" xlink:href="#linear-gradient"/><linearGradient id="linear-gradient-6" x1="198.6" y1="252.08" x2="231.65" y2="311.54" gradientTransform="matrix(0.8, 0.6, 0.6, -0.8, -203.13, 457.75)" xlink:href="#linear-gradient"/><linearGradient id="linear-gradient-7" x1="186.9" y1="258.58" x2="219.95" y2="318.04" gradientTransform="matrix(0.8, 0.6, 0.6, -0.8, -203.13, 457.75)" xlink:href="#linear-gradient"/><linearGradient id="linear-gradient-8" x1="61.47" y1="339.16" x2="152.99" y2="339.16" xlink:href="#linear-gradient"/><linearGradient id="linear-gradient-9" x1="-908.22" y1="-11.39" x2="-875.17" y2="48.08" gradientTransform="matrix(-1, -0.06, 0.06, -1, -769.34, 300.1)" xlink:href="#linear-gradient"/><linearGradient id="linear-gradient-10" x1="-278.3" y1="-98.95" x2="-245.25" y2="-39.48" gradientTransform="matrix(-0.8, 0.6, -0.6, -0.8, -172.45, 457.75)" xlink:href="#linear-gradient"/><linearGradient id="linear-gradient-11" x1="-876.06" y1="-29.27" x2="-843.01" y2="30.2" gradientTransform="matrix(-1, -0.06, 0.06, -1, -769.34, 300.1)" xlink:href="#linear-gradient"/><linearGradient id="linear-gradient-12" x1="-894.36" y1="-19.1" x2="-861.31" y2="40.37" gradientTransform="matrix(-1, -0.06, 0.06, -1, -769.34, 300.1)" xlink:href="#linear-gradient"/><linearGradient id="linear-gradient-13" x1="185.17" y1="259.54" x2="218.23" y2="319" gradientTransform="matrix(0.8, 0.6, 0.6, -0.8, -203.13, 457.75)" xlink:href="#linear-gradient"/><linearGradient id="linear-gradient-14" x1="-900.33" y1="-15.78" x2="-867.27" y2="43.69" gradientTransform="matrix(-1, -0.06, 0.06, -1, -769.34, 300.1)" xlink:href="#linear-gradient"/></defs><path class="cls-1" d="M90.7,347.52a100.1,100.1,0,0,1,5.69-32.88l26.31,9.27c-.26.73-.5,1.48-.73,2.22l3.49,1.58a72.64,72.64,0,0,0-6.18,23.67,72.53,72.53,0,0,0,11-26.23l22.09,4.44a45.76,45.76,0,0,0-90.15-.25L85,326.66A72.06,72.06,0,0,0,90.7,347.52Z" transform="translate(-53.71 -291.58)"/><path class="cls-2" d="M56.68,338.58a99.67,99.67,0,0,0,5.63,15.83,99.22,99.22,0,0,1-7.22-17.26l3.13-1c-.08-.47-.17-.95-.25-1.43L53.71,336a100.28,100.28,0,0,0,16.15,32.05A100.21,100.21,0,0,1,58.5,337.64Z" transform="translate(-53.71 -291.58)"/><path class="cls-3" d="M81.68,369.11a10.93,10.93,0,0,1-7.16-4.4c-3.69-4.88-2.94-11,1-13.23s9.13-.57,12.09,3.32A10.23,10.23,0,0,1,89,365.27c.77-.33,1.55-.64,2.34-.94-.16-2.39-.24-4.78-.22-7.18-.25-2.62-.38-5.25-.41-7.87a72.33,72.33,0,0,1-10.24-21.17L58,334.74c.08.48.17,1,.25,1.43l8.35-2.59q-4.06,1.95-8.07,4.06a100.21,100.21,0,0,0,11.36,30.41c1.59,2.11,3.27,4.15,5,6.13A54.34,54.34,0,0,1,81.68,369.11Zm-1.83-39.67a73.42,73.42,0,0,0,5.33,12.76,72.78,72.78,0,0,1-5.93-11.11q-5.41,1.07-10.88,1.92Z" transform="translate(-53.71 -291.58)"/><path class="cls-4" d="M157.92,337.15a100,100,0,0,1-7.22,17.26,99.67,99.67,0,0,0,5.63-15.83l-.59-.3a100.42,100.42,0,0,1-5.7,15.25,45.92,45.92,0,0,1-6.24,11.33c-1.21,1.89-2.48,3.75-3.82,5.56l.84.59a100.1,100.1,0,0,0,18.47-35l-2.72-.8c-.12.47-.25.94-.37,1.41Z" transform="translate(-53.71 -291.58)"/><path class="cls-5" d="M143.8,364.86A45.92,45.92,0,0,0,150,353.53,101.37,101.37,0,0,1,143.8,364.86Z" transform="translate(-53.71 -291.58)"/><path class="cls-6" d="M143.8,364.86A45.92,45.92,0,0,0,150,353.53,101.37,101.37,0,0,1,143.8,364.86Z" transform="translate(-53.71 -291.58)"/><path class="cls-7" d="M132.53,328.11a72.39,72.39,0,0,1-13.4,25.35c0,.81-.08,1.63-.1,2.45q.34,3,.94,6.08c1.1.21,2.19.45,3.26.73a10.84,10.84,0,0,1,2.16-7.92c3-3.89,8.13-5.54,12.09-3.32s4.7,8.35,1,13.23a12,12,0,0,1-3.07,2.87,52.07,52.07,0,0,1,4.57,2.84c1.34-1.81,2.61-3.67,3.82-5.56A101.37,101.37,0,0,0,150,353.53a100.42,100.42,0,0,0,5.7-15.25q-4.62-2.44-9.3-4.7l9.76,3c.12-.47.25-.94.37-1.41Zm1.23,3a72.83,72.83,0,0,1-5.94,11.11,72.7,72.7,0,0,0,5.34-12.76L144.63,333Q139.17,332.16,133.76,331.09Z" transform="translate(-53.71 -291.58)"/><path class="cls-8" d="M124.12,328.31a73,73,0,0,0-4.3,13.15,73.07,73.07,0,0,1,2.77-12.29l-1.31-.76a72.32,72.32,0,0,0-2.56,23.79l.56-.82a72.64,72.64,0,0,1,6.18-23.67L122,326.13c-.12.36-.24.73-.35,1.1Z" transform="translate(-53.71 -291.58)"/><path class="cls-9" d="M124.12,328.31a73,73,0,0,0-4.3,13.15,73.07,73.07,0,0,1,2.77-12.29l-1.31-.76a72.32,72.32,0,0,0-2.56,23.79l.56-.82a72.64,72.64,0,0,1,6.18-23.67L122,326.13c-.12.36-.24.73-.35,1.1Z" transform="translate(-53.71 -291.58)"/><path class="cls-10" d="M91.34,364.33l.66-.24c-.37-2.3-.67-4.62-.88-6.94C91.1,359.55,91.18,361.94,91.34,364.33Z" transform="translate(-53.71 -291.58)"/><path class="cls-11" d="M91.34,364.33l.66-.24c-.37-2.3-.67-4.62-.88-6.94C91.1,359.55,91.18,361.94,91.34,364.33Z" transform="translate(-53.71 -291.58)"/><path class="cls-12" d="M119.13,353.46c0-.7.09-1.39.15-2.08l-.56.82a72.32,72.32,0,0,1,2.56-23.79c-2.75-1.59-5.48-3.21-8.18-4.89l8.52,3.71c.11-.37.23-.74.35-1.1l-21.92-9.93a100.18,100.18,0,0,0-8.93,40.95c.21,2.32.51,4.64.88,6.94a53.37,53.37,0,0,1,10.36-2.55c-3.22-1.31-5.63-5.22-5.32-10,.39-6.11,5-10.27,9.41-9.36s7.28,5.54,7,10.41a10.46,10.46,0,0,1-5,8.47c.48,0,1,0,1.45,0a52.74,52.74,0,0,1,9.3.83q-.18-3-.11-5.93c-.08-.69-.14-1.38-.2-2.08C118.94,353.71,119,353.58,119.13,353.46Zm-18.52-33.37a98.91,98.91,0,0,0-6.08,15.66A98.57,98.57,0,0,1,100.35,318l11,4.79C107.8,321.81,104.22,320.91,100.61,320.09Z" transform="translate(-53.71 -291.58)"/><path class="cls-13" d="M118.83,353.83c.06.7.12,1.39.2,2.08,0-.82,0-1.64.1-2.45C119,353.58,118.94,353.71,118.83,353.83Z" transform="translate(-53.71 -291.58)"/><path class="cls-14" d="M118.83,353.83c.06.7.12,1.39.2,2.08,0-.82,0-1.64.1-2.45C119,353.58,118.94,353.71,118.83,353.83Z" transform="translate(-53.71 -291.58)"/></svg>