<svg id="Layer_1" data-name="Layer 1" xmlns="http://www.w3.org/2000/svg" viewBox="0 0 53.37 53.37"><defs><style>.cls-1{fill:#282828;}.cls-2{fill:#009444;}</style></defs><path class="cls-1" d="M79.17,97.5a22.55,22.55,0,0,1-1.94-9.19,22.75,22.75,0,0,1,39.24-15.7,6.36,6.36,0,0,1,.75-.34,5.51,5.51,0,0,1,1.84-.31,5.39,5.39,0,0,1,2.45.58A26.67,26.67,0,0,0,77,101.88,5.53,5.53,0,0,1,79.17,97.5Z" transform="translate(-73.31 -61.63)"/><path class="cls-1" d="M124.52,77.79a5.2,5.2,0,0,1-.52,2,5.43,5.43,0,0,1-2.09,2.33,22.75,22.75,0,0,1-36,24,5.9,5.9,0,0,1-1.54.85,5.45,5.45,0,0,1-1.83.31,5.56,5.56,0,0,1-1.41-.18,26.68,26.68,0,0,0,43.42-29.35Z" transform="translate(-73.31 -61.63)"/><path class="cls-2" d="M123.11,76a4.31,4.31,0,0,0-4-2.86,4.16,4.16,0,0,0-1.44.25,4.29,4.29,0,0,0-1.54,7.16l-5.19,7.09a4.29,4.29,0,0,0-1.71-.36,4.45,4.45,0,0,0-1.44.25,4.33,4.33,0,0,0-2.45,2.21l-.12.31-5.92-1.93A4.39,4.39,0,0,0,99,87,4.32,4.32,0,0,0,95,84.14a4.45,4.45,0,0,0-1.44.25,4.31,4.31,0,0,0-2.61,5.5,4,4,0,0,0,.37.78l-7,7.25a4.37,4.37,0,0,0-1.75-.38,4.46,4.46,0,0,0-1.45.25,4.3,4.3,0,0,0,1.45,8.36A4.2,4.2,0,0,0,84,105.9a4.31,4.31,0,0,0,2.61-5.5,4.15,4.15,0,0,0-.55-1l6.92-7.13a4.28,4.28,0,0,0,2,.52,4.16,4.16,0,0,0,1.44-.25,4.29,4.29,0,0,0,2.42-2.15l6.13,2a4.16,4.16,0,0,0,.18.67,4.31,4.31,0,0,0,4.05,2.86,4.16,4.16,0,0,0,1.44-.25,4.31,4.31,0,0,0,2.62-5.49,4.22,4.22,0,0,0-.58-1.09l5.43-7.42a4.3,4.3,0,0,0,2.41-.14,4.28,4.28,0,0,0,2.44-2.21A4.23,4.23,0,0,0,123.11,76Zm-39.95,27.7a2.06,2.06,0,0,1-.65.11,2,2,0,0,1-.66-3.8,2.08,2.08,0,0,1,.66-.11,2,2,0,0,1,.65,3.8Zm12.46-13.4a1.87,1.87,0,0,1-.66.11,2,2,0,0,1-.65-3.8,2.06,2.06,0,0,1,.65-.11,2,2,0,0,1,.66,3.8Zm14.22,3.13a1.91,1.91,0,0,1-.66.11,2,2,0,0,1-1.84-1.3,1.93,1.93,0,0,1,.07-1.49,2,2,0,0,1,1.12-1,2.06,2.06,0,0,1,.65-.11,2,2,0,0,1,.66,3.8Zm11-15.15a1.94,1.94,0,0,1-1.11,1,2.06,2.06,0,0,1-.65.11,2,2,0,0,1-.66-3.8,1.83,1.83,0,0,1,.66-.11,2,2,0,0,1,1.84,1.3A1.93,1.93,0,0,1,120.82,78.27Z" transform="translate(-73.31 -61.63)"/></svg>