<svg id="Layer_20" data-name="Layer 20" xmlns="http://www.w3.org/2000/svg" viewBox="0 0 411.75 411.75"><defs><style>.cls-1{fill:#ae87be;}.cls-2{fill:#fff;}.cls-3{fill:#c92d2d;}.cls-4{fill:#19334b;}.cls-5{fill:#fdfefe;}</style></defs><circle class="cls-1" cx="2739.46" cy="811.27" r="205.87" transform="translate(-2304.87 1569.31) rotate(-45)"/><path class="cls-2" d="M2865.5,803.56a125.75,125.75,0,1,1-125.75-125.75A125.75,125.75,0,0,1,2865.5,803.56Z" transform="translate(-2533.59 -605.4)"/><path class="cls-3" d="M2739.75,677.81A125.75,125.75,0,1,1,2614,803.56a125.75,125.75,0,0,1,125.75-125.75m0-11a137.28,137.28,0,0,0-27.56,2.78,135.85,135.85,0,0,0-48.93,20.59,137,137,0,0,0-49.55,60.17,135.89,135.89,0,0,0-8,25.7,138,138,0,0,0,0,55.11,136.27,136.27,0,0,0,20.59,48.94,137.11,137.11,0,0,0,60.18,49.55,135.8,135.8,0,0,0,25.69,8,138,138,0,0,0,55.12,0,135.8,135.8,0,0,0,25.69-8,136.79,136.79,0,0,0,43.49-29.31,138.94,138.94,0,0,0,16.7-20.24,136.67,136.67,0,0,0,0-153,137.31,137.31,0,0,0-36.94-36.93,136.35,136.35,0,0,0-76.5-23.37Z" transform="translate(-2533.59 -605.4)"/><rect class="cls-4" x="2754.62" y="802" width="5.63" height="71.52" transform="translate(-2583.04 885.55) rotate(-30)"/><path class="cls-4" d="M2739.92,796.45h0l0,0-41.78-43.26a6.35,6.35,0,1,0-9.23,8.68l41.94,43.42a1.35,1.35,0,0,0,.33.26,6.31,6.31,0,0,0,8.78-9Z" transform="translate(-2533.59 -605.4)"/><path class="cls-4" d="M2802.42,790.67h-.06l-54.3,6.78a5.69,5.69,0,0,0-4.38,2.3,5.77,5.77,0,0,0,1.18,8.08,5.84,5.84,0,0,0,4.53,1.07l54.5-6.8a1.58,1.58,0,0,0,.37-.11,5.67,5.67,0,0,0,3.55-2.19,5.74,5.74,0,0,0-1.18-8A5.8,5.8,0,0,0,2802.42,790.67Z" transform="translate(-2533.59 -605.4)"/><circle class="cls-5" cx="208.14" cy="199.87" r="7.28"/><path class="cls-4" d="M2741.83,714.4h0a3.23,3.23,0,0,1-3.22-3.21v-19a3.23,3.23,0,0,1,3.22-3.22h0a3.22,3.22,0,0,1,3.21,3.22v19A3.22,3.22,0,0,1,2741.83,714.4Z" transform="translate(-2533.59 -605.4)"/><path class="cls-4" d="M2804.76,742.07h0a3.23,3.23,0,0,1,0-4.55l13.46-13.47a3.22,3.22,0,0,1,4.54,0h0a3.22,3.22,0,0,1,0,4.55l-13.46,13.47A3.23,3.23,0,0,1,2804.76,742.07Z" transform="translate(-2533.59 -605.4)"/><path class="cls-4" d="M2829.43,805.28h0a3.23,3.23,0,0,1,3.22-3.22l19,0a3.23,3.23,0,0,1,3.22,3.22h0a3.22,3.22,0,0,1-3.21,3.22l-19,0A3.23,3.23,0,0,1,2829.43,805.28Z" transform="translate(-2533.59 -605.4)"/><path class="cls-4" d="M2803.26,866.24h0a3.22,3.22,0,0,1,4.55,0l13.48,13.44a3.23,3.23,0,0,1,0,4.55h0a3.23,3.23,0,0,1-4.55,0l-13.48-13.43A3.22,3.22,0,0,1,2803.26,866.24Z" transform="translate(-2533.59 -605.4)"/><path class="cls-4" d="M2742,893h0a3.22,3.22,0,0,1,3.22,3.21l0,19a3.22,3.22,0,0,1-3.21,3.22h0a3.22,3.22,0,0,1-3.22-3.21l0-19A3.23,3.23,0,0,1,2742,893Z" transform="translate(-2533.59 -605.4)"/><path class="cls-4" d="M2678.79,868.75h0a3.23,3.23,0,0,1,0,4.55l-13.42,13.5a3.23,3.23,0,0,1-4.55,0h0a3.23,3.23,0,0,1,0-4.55l13.43-13.5A3.23,3.23,0,0,1,2678.79,868.75Z" transform="translate(-2533.59 -605.4)"/><path class="cls-4" d="M2651.23,805.66h0a3.24,3.24,0,0,1-3.21,3.23l-19,.06a3.23,3.23,0,0,1-3.22-3.21h0a3.23,3.23,0,0,1,3.2-3.23l19,0A3.22,3.22,0,0,1,2651.23,805.66Z" transform="translate(-2533.59 -605.4)"/><path class="cls-4" d="M2677.26,741.28h0a3.22,3.22,0,0,1-4.55,0l-13.5-13.41a3.22,3.22,0,0,1,0-4.55h0a3.23,3.23,0,0,1,4.55,0l13.51,13.41A3.23,3.23,0,0,1,2677.26,741.28Z" transform="translate(-2533.59 -605.4)"/></svg>