<svg id="Layer_55" data-name="Layer 55" xmlns="http://www.w3.org/2000/svg" viewBox="0 0 411.75 411.75"><defs><style>.cls-1{fill:#ae87be;}.cls-2{fill:#343d50;}.cls-3{fill:#f3715b;}.cls-4{fill:#cecbc9;}.cls-5{fill:#fffbfa;}.cls-6{fill:#34495e;}.cls-7{fill:#f6ba2e;}</style></defs><circle class="cls-1" cx="329.46" cy="2737.17" r="205.87" transform="translate(-1962.56 -1496.64) rotate(-45)"/><rect class="cls-2" x="78.3" y="130.24" width="245.73" height="175.27" rx="20.65"/><path class="cls-3" d="M452.29,2749.26,324.41,2756l-127.89-6.73v-71.85a20.84,20.84,0,0,1,21-20.65H431.28a20.84,20.84,0,0,1,21,20.65Z" transform="translate(-123.59 -2531.3)"/><polygon class="cls-4" points="73.41 204.44 73.41 211.04 200.91 217.77 328.41 211.04 328.41 204.44 200.91 211.17 73.41 204.44"/><rect class="cls-5" x="191.63" y="193.58" width="19.07" height="43.38" rx="4.16"/><path class="cls-6" d="M375.29,2646.91v23H367.1l.09-16.89c0-4.11-2.91-7.45-6.51-7.45H289c-3.6,0-6.52,3.34-6.52,7.45l-.09,16.89H273.5v-23c0-6.58,4.67-11.91,10.43-11.91h80.94C370.62,2635,375.29,2640.33,375.29,2646.91Z" transform="translate(-123.59 -2531.3)"/><path class="cls-7" d="M355.86,2641.34c0,5.11-3.25,9.25-7.26,9.25H300.51c-4,0-7.25-4.14-7.25-9.25v-3.09c0-5.11,3.24-9.25,7.25-9.25H348.6c4,0,7.26,4.14,7.26,9.25Z" transform="translate(-123.59 -2531.3)"/></svg>