<svg width="52" height="80" viewBox="0 0 52 80" fill="none" xmlns="http://www.w3.org/2000/svg">
<g clip-path="url(#clip0_1_20)">
<path d="M18.9025 33.7255L26.0168 12.3922H26.2765L32.9754 33.7255H18.9025ZM35.4161 8.47059C33.9102 4.13072 32.0926 0.679732 26.5361 0.679732C21.0835 0.679732 19.0582 4.07843 17.5523 8.47059C1.60982 54.1699 1.86947 53.4902 1.86947 53.4902H12.3074L15.9425 42.7712H35.9874L39.3628 53.4902H50.3719L35.4161 8.47059ZM55.4091 53.6994H64.8603V0H55.4091V53.6994ZM87.6056 13.3856C87.6056 9.77778 89.1116 8.10458 92.5909 8.10458H103.236V0H89.8905C82.2569 0 78.2063 4.02614 78.2063 11.6078V18.7712H69.6898V27.3464H78.1544V53.6471H87.6056V27.3464H96.8491V18.7712H87.6056V13.3856ZM183.987 26.4052C187.519 24.7843 190.686 21.1242 190.686 15.8954C190.686 7.11111 184.974 1.83007 175.419 1.83007H150.96V53.6471H174.588C185.597 53.6471 191.829 48.1569 191.829 38.5882C191.829 31.7909 187.934 27.9216 183.987 26.4052ZM160.723 31.4248H173.498C178.95 31.4248 181.702 33.6209 181.702 38.0131C181.702 42.3529 178.898 44.6536 173.498 44.6536H160.723V31.4248ZM174.38 22.4837H160.723V10.8758H174.328C178.379 10.8758 180.56 12.8105 180.56 16.6797C180.56 20.4444 178.379 22.4837 174.38 22.4837ZM257.312 14.902C251.86 14.902 248.38 17.7778 246.667 20.6013V16.5229H237.215V53.6994H246.667V30.9542C246.667 25.7778 249.107 23.4248 253.469 23.4248C257.676 23.4248 260.117 25.7778 260.117 30.9542V53.6994H269.516V30.4837C269.568 20.3399 265.258 14.902 257.312 14.902ZM295.585 33.8824L311.475 16.5229H299.479L286.601 30.8497V0H277.149V53.6994H286.601V37.7516L300.414 53.6994H312.669L295.585 33.8824ZM51.5144 80.1046H1.0386V69.5425H51.5144V80.1046ZM131.175 42.2484V29.7516C131.175 20.6536 125.411 14.8497 115.7 14.8497C105.677 14.8497 100.328 20.9673 99.913 27.2418H109.416C109.728 25.8301 111.182 23.4771 115.648 23.4771C119.283 23.4771 121.672 25.2026 121.672 29.6993H112.324C103.964 29.6993 98.9782 34.1438 98.9782 41.5163C98.9782 49.2549 104.431 54.536 112.272 54.536C118.036 54.536 121.204 51.817 122.658 49.7255C123.905 52.2353 126.657 53.5948 130.24 53.5948H133.512V45.0719C131.798 45.0719 131.175 44.2876 131.175 42.2484ZM121.724 37.3333V39.7386C121.724 44.0262 118.712 46.4837 114.817 46.4837C111.441 46.4837 108.689 45.2288 108.689 41.5163C108.689 37.9085 111.597 37.2811 114.194 37.2811L121.724 37.3333ZM229.062 42.2484V29.7516C229.062 20.6536 223.298 14.8497 213.639 14.8497C203.617 14.8497 198.268 20.9673 197.853 27.2418H207.408C207.719 25.8301 209.173 23.4771 213.639 23.4771C217.274 23.4771 219.663 25.2026 219.663 29.6993H210.316C201.955 29.6993 196.97 34.1438 196.97 41.5163C196.97 49.2549 202.422 54.536 210.264 54.536C216.028 54.536 219.196 51.817 220.65 49.7255C221.896 52.2353 224.648 53.5948 228.232 53.5948H231.503V45.0719C229.634 45.0719 229.062 44.2876 229.062 42.2484ZM219.611 37.3333V39.7386C219.611 44.0262 216.599 46.4837 212.705 46.4837C209.329 46.4837 206.577 45.2288 206.577 41.5163C206.577 37.9085 209.485 37.2811 212.081 37.2811L219.611 37.3333Z" fill="#F01E24"/>
</g>
<defs>
<clipPath id="clip0_1_20">
<rect width="51.9298" height="80" fill="white"/>
</clipPath>
</defs>
</svg>
