<svg width="1093" height="155" viewBox="0 0 1093 155" fill="none" xmlns="http://www.w3.org/2000/svg">
<g clip-path="url(#clip0_249_704)">
<path d="M34.4 66.5L48.1 25.7H48.6L61.5 66.5H34.4ZM66.2 18.2C63.3 9.9 59.8 3.29999 49.1 3.29999C38.6 3.29999 34.7 9.8 31.8 18.2C1.09999 105.6 1.59999 104.3 1.59999 104.3H21.7L28.7 83.8H67.3L73.8 104.3H95L66.2 18.2ZM97.2 155.2H0V135H97.2V155.2Z" fill="#F01E24"/>
<path d="M106.068 105L105.991 92.0369H107.947C109.328 92.0369 110.517 91.7045 111.514 91.0398C112.537 90.3494 113.381 89.2372 114.045 87.7031C114.71 86.169 115.234 84.1364 115.618 81.6051C116.001 79.0483 116.257 75.9034 116.385 72.1705L117.344 46.0909H162.139V105H146.568V58.9389H132.033L131.112 76.9261C130.882 81.8608 130.281 86.1051 129.31 89.6591C128.364 93.2131 127.047 96.1278 125.359 98.4034C123.672 100.653 121.639 102.315 119.261 103.389C116.884 104.463 114.122 105 110.977 105H106.068Z" fill="#F01E24"/>
<path d="M185.045 64.1932H202.649C210.447 64.1932 216.532 66.0597 220.904 69.7926C225.277 73.5 227.463 78.4602 227.463 84.6733C227.463 88.7131 226.478 92.267 224.51 95.3352C222.541 98.3778 219.703 100.756 215.995 102.469C212.288 104.156 207.839 105 202.649 105H174.805V46.0909H190.414V92.152H202.649C205.385 92.152 207.635 91.4616 209.399 90.081C211.163 88.7003 212.058 86.9361 212.083 84.7884C212.058 82.5128 211.163 80.6591 209.399 79.2273C207.635 77.7699 205.385 77.0412 202.649 77.0412H185.045V64.1932Z" fill="#F01E24"/>
<path d="M266.486 125.02V26.4545H282.786V125.02H266.486ZM266.486 106.151C261.961 106.151 257.831 105.422 254.098 103.964C250.365 102.482 247.144 100.398 244.434 97.7131C241.723 95.0028 239.627 91.794 238.144 88.0866C236.661 84.3537 235.919 80.25 235.919 75.7756C235.919 71.25 236.661 67.1335 238.144 63.4261C239.627 59.6932 241.723 56.4844 244.434 53.7997C247.144 51.0895 250.365 49.0057 254.098 47.5483C257.831 46.0653 261.961 45.3239 266.486 45.3239H269.516V106.151H266.486ZM266.486 93.4176H268.289V58.0568H266.486C264.287 58.0568 262.331 58.517 260.618 59.4375C258.905 60.358 257.461 61.6236 256.284 63.2344C255.108 64.8196 254.213 66.6861 253.6 68.8338C253.012 70.9815 252.718 73.2955 252.718 75.7756C252.718 79.0483 253.255 82.027 254.328 84.7116C255.402 87.3707 256.975 89.4929 259.046 91.0781C261.117 92.6378 263.597 93.4176 266.486 93.4176ZM282.786 106.151H279.756V45.3239H282.786C287.311 45.3239 291.441 46.0653 295.174 47.5483C298.907 49.0057 302.128 51.0895 304.838 53.7997C307.549 56.4844 309.645 59.6932 311.128 63.4261C312.611 67.1335 313.353 71.25 313.353 75.7756C313.353 80.25 312.611 84.3537 311.128 88.0866C309.645 91.794 307.549 95.0028 304.838 97.7131C302.128 100.398 298.907 102.482 295.174 103.964C291.441 105.422 287.311 106.151 282.786 106.151ZM282.786 93.4176C284.985 93.4176 286.941 92.9702 288.654 92.0753C290.367 91.1548 291.811 89.8892 292.988 88.2784C294.164 86.6676 295.059 84.8011 295.672 82.679C296.286 80.5313 296.593 78.2301 296.593 75.7756C296.593 72.4773 296.043 69.4986 294.944 66.8395C293.87 64.1548 292.31 62.0199 290.265 60.4347C288.219 58.8494 285.726 58.0568 282.786 58.0568H280.983V93.4176H282.786Z" fill="#F01E24"/>
<path d="M340.842 106.112C337.083 106.112 333.734 105.46 330.793 104.156C327.853 102.827 325.526 100.871 323.813 98.2884C322.126 95.6804 321.282 92.4332 321.282 88.5469C321.282 85.2741 321.883 82.5256 323.085 80.3011C324.286 78.0767 325.923 76.2869 327.994 74.9318C330.065 73.5767 332.417 72.554 335.05 71.8636C337.71 71.1733 340.496 70.6875 343.411 70.4062C346.837 70.0483 349.599 69.7159 351.695 69.4091C353.792 69.0767 355.313 68.5909 356.259 67.9517C357.205 67.3125 357.678 66.3665 357.678 65.1136V64.8835C357.678 62.4545 356.911 60.5753 355.377 59.2457C353.869 57.9162 351.721 57.2514 348.934 57.2514C345.994 57.2514 343.654 57.9034 341.915 59.2074C340.177 60.4858 339.026 62.0966 338.464 64.0398L323.353 62.8125C324.12 59.233 325.629 56.1392 327.879 53.5312C330.129 50.8977 333.031 48.8778 336.585 47.4716C340.164 46.0398 344.306 45.3239 349.011 45.3239C352.283 45.3239 355.415 45.7074 358.407 46.4744C361.424 47.2415 364.096 48.4304 366.423 50.0412C368.775 51.652 370.629 53.723 371.984 56.2543C373.339 58.7599 374.016 61.7642 374.016 65.267V105H358.522V96.831H358.062C357.116 98.6719 355.85 100.295 354.265 101.702C352.68 103.082 350.775 104.169 348.55 104.962C346.326 105.729 343.756 106.112 340.842 106.112ZM345.521 94.8366C347.924 94.8366 350.046 94.3636 351.887 93.4176C353.728 92.446 355.173 91.142 356.221 89.5057C357.269 87.8693 357.793 86.0156 357.793 83.9446V77.6932C357.282 78.0256 356.579 78.3324 355.684 78.6136C354.815 78.8693 353.83 79.1122 352.731 79.3423C351.631 79.5469 350.532 79.7386 349.433 79.9176C348.333 80.071 347.336 80.2116 346.441 80.3395C344.523 80.6207 342.849 81.0682 341.417 81.6818C339.985 82.2955 338.873 83.1264 338.08 84.1747C337.288 85.1974 336.891 86.4758 336.891 88.0099C336.891 90.2344 337.697 91.9347 339.308 93.1108C340.944 94.2614 343.015 94.8366 345.521 94.8366Z" fill="#F01E24"/>
<path d="M423.395 66.2642V79.2273H387.574V66.2642H423.395Z" fill="#F01E24"/>
<path d="M437.624 26.4545H454.192V75.8523H454.844L488.785 26.4545H503.321V105H486.714V55.5639H486.139L452.006 105H437.624V26.4545Z" fill="#F01E24"/>
<path d="M557.733 69.0256V81.8736H526.975V69.0256H557.733ZM532.344 46.0909V105H516.735V46.0909H532.344ZM567.973 46.0909V105H552.479V46.0909H567.973Z" fill="#F01E24"/>
<path d="M580.649 105V46.0909H605.77C613.031 46.0909 618.771 47.4716 622.99 50.233C627.208 52.9943 629.318 56.919 629.318 62.0071C629.318 65.2031 628.129 67.8622 625.751 69.9844C623.373 72.1065 620.075 73.5384 615.856 74.2798C619.385 74.5355 622.389 75.3409 624.869 76.696C627.375 78.0256 629.279 79.7514 630.583 81.8736C631.913 83.9957 632.578 86.348 632.578 88.9304C632.578 92.2798 631.683 95.1563 629.893 97.5597C628.129 99.9631 625.534 101.804 622.108 103.082C618.707 104.361 614.552 105 609.643 105H580.649ZM595.875 92.7656H609.643C611.919 92.7656 613.696 92.2287 614.974 91.1548C616.278 90.0554 616.93 88.5597 616.93 86.6676C616.93 84.571 616.278 82.9219 614.974 81.7202C613.696 80.5185 611.919 79.9176 609.643 79.9176H595.875V92.7656ZM595.875 70.3295H606.115C607.751 70.3295 609.145 70.0994 610.295 69.6392C611.471 69.1534 612.366 68.4631 612.98 67.5682C613.619 66.6733 613.939 65.6122 613.939 64.3849C613.939 62.5696 613.21 61.1506 611.752 60.1278C610.295 59.1051 608.301 58.5938 605.77 58.5938H595.875V70.3295Z" fill="#F01E24"/>
<path d="M669.722 106.151C663.662 106.151 658.446 104.923 654.074 102.469C649.728 99.9886 646.378 96.4858 644.026 91.9602C641.674 87.4091 640.497 82.027 640.497 75.8139C640.497 69.7543 641.674 64.4361 644.026 59.8594C646.378 55.2827 649.689 51.7159 653.959 49.1591C658.255 46.6023 663.292 45.3239 669.07 45.3239C672.956 45.3239 676.574 45.9503 679.924 47.2031C683.299 48.4304 686.239 50.2841 688.745 52.7642C691.276 55.2443 693.245 58.3636 694.651 62.1222C696.057 65.8551 696.76 70.2273 696.76 75.2386V79.7259H647.017V69.6009H681.381C681.381 67.2486 680.87 65.1648 679.847 63.3494C678.824 61.5341 677.405 60.1151 675.59 59.0923C673.8 58.044 671.716 57.5199 669.338 57.5199C666.858 57.5199 664.659 58.0952 662.742 59.2457C660.85 60.3707 659.367 61.892 658.293 63.8097C657.219 65.7017 656.669 67.8111 656.644 70.1378V79.7642C656.644 82.679 657.181 85.1974 658.255 87.3196C659.354 89.4418 660.901 91.0781 662.895 92.2287C664.89 93.3793 667.255 93.9545 669.99 93.9545C671.806 93.9545 673.468 93.6989 674.976 93.1875C676.485 92.6761 677.776 91.9091 678.85 90.8864C679.924 89.8636 680.742 88.6108 681.304 87.1278L696.415 88.125C695.648 91.7557 694.076 94.9261 691.698 97.6364C689.346 100.321 686.303 102.418 682.57 103.926C678.863 105.409 674.58 106.151 669.722 106.151Z" fill="#F01E24"/>
<path d="M734.039 106.151C728.005 106.151 722.814 104.872 718.468 102.315C714.147 99.733 710.823 96.1534 708.496 91.5767C706.195 87 705.044 81.733 705.044 75.7756C705.044 69.7415 706.208 64.4489 708.534 59.8977C710.887 55.321 714.223 51.7543 718.544 49.1974C722.865 46.6151 728.005 45.3239 733.962 45.3239C739.101 45.3239 743.601 46.2571 747.462 48.1236C751.323 49.9901 754.378 52.6108 756.628 55.9858C758.878 59.3608 760.118 63.3239 760.348 67.875H744.931C744.496 64.9347 743.346 62.5696 741.479 60.7798C739.638 58.9645 737.222 58.0568 734.23 58.0568C731.699 58.0568 729.488 58.7472 727.596 60.1278C725.729 61.483 724.272 63.4645 723.223 66.0724C722.175 68.6804 721.651 71.8381 721.651 75.5455C721.651 79.304 722.162 82.5 723.185 85.1335C724.233 87.767 725.703 89.7741 727.596 91.1548C729.488 92.5355 731.699 93.2259 734.23 93.2259C736.097 93.2259 737.772 92.8423 739.255 92.0753C740.763 91.3082 742.003 90.196 742.975 88.7386C743.972 87.2557 744.624 85.4787 744.931 83.4077H760.348C760.093 87.9077 758.865 91.8707 756.667 95.2969C754.493 98.6974 751.489 101.357 747.654 103.274C743.819 105.192 739.28 106.151 734.039 106.151Z" fill="#F01E24"/>
<path d="M766.792 58.9389V46.0909H820.178V58.9389H801.194V105H785.622V58.9389H766.792Z" fill="#F01E24"/>
<path d="M845.692 83.446L866.901 46.0909H883.009V105H867.438V67.5298L846.305 105H830.082V46.0909H845.692V83.446Z" fill="#F01E24"/>
<path d="M947.613 46.0909V93.7244H957.009V123.946H941.131V105H896.106V46.0909H911.715V92.152H932.195V46.0909H947.613Z" fill="#F01E24"/>
<path d="M982.696 83.446L1003.9 46.0909H1020.01V105H1004.44V67.5298L983.309 105H967.086V46.0909H982.696V83.446Z" fill="#F01E24"/>
<path d="M1048.72 83.446L1069.93 46.0909H1086.04V105H1070.46V67.5298L1049.33 105H1033.11V46.0909H1048.72V83.446Z" fill="#F01E24"/>
</g>
<defs>
<clipPath id="clip0_249_704">
<rect width="1093" height="155" fill="white"/>
</clipPath>
</defs>
</svg>
