<svg width="542" height="555" viewBox="0 0 542 555" fill="none" xmlns="http://www.w3.org/2000/svg">
<g clip-path="url(#clip0_1_25)">
<path d="M486.037 106.877C498.926 123.77 509.838 142.123 518.55 161.568L271.395 346.268L168.102 280.626V201.657L271.395 267.298L486.037 106.877Z" fill="white"/>
<path d="M62.6836 275.053C62.6836 271.509 62.7689 267.989 62.9394 264.489L0.340922 261.38C0.127857 265.916 7.56472e-05 270.495 7.56472e-05 275.117C-0.0265582 311.229 6.98001 346.989 20.618 380.348C34.2559 413.709 54.2568 444.01 79.4732 469.515L123.876 424.523C104.465 404.925 89.0665 381.63 78.5651 355.979C68.0636 330.328 62.6665 302.825 62.6836 275.053Z" fill="white"/>
<path d="M271.338 63.5302C274.831 63.5302 278.303 63.6599 281.755 63.8326L284.887 0.35089C280.4 0.134893 275.882 0.0269069 271.338 0.0269069C235.699 -0.0171514 200.405 7.07563 167.479 20.898C134.553 34.7203 104.645 55 79.4721 80.5726L123.875 125.586C143.208 105.902 166.189 90.2859 191.496 79.6361C216.803 68.9863 243.936 63.5127 271.338 63.5302Z" fill="white"/>
<path d="M271.338 486.58C267.844 486.58 264.37 486.58 260.898 486.299L257.766 549.759C262.269 549.99 266.793 550.106 271.338 550.106C306.961 550.143 342.238 543.046 375.146 529.219C408.055 515.393 437.943 495.11 463.097 469.538L418.78 424.546C399.443 444.22 376.465 459.828 351.163 470.474C325.861 481.119 298.733 486.594 271.338 486.58Z" fill="white"/>
<path d="M388.952 100.439L441.706 61.0197C393.488 21.4373 333.299 -0.109877 271.254 0.000421357V63.5253C313.268 63.4725 354.307 76.3441 388.952 100.439Z" fill="white"/>
<path d="M542.657 275.053C542.69 258.527 541.265 242.03 538.395 225.762L479.994 269.394C479.994 271.274 479.994 273.153 479.994 275.053C480.01 304.608 473.898 333.836 462.058 360.842C450.217 387.849 432.909 412.032 411.259 431.824L453.383 479.021C481.529 453.26 504.022 421.792 519.401 386.655C534.781 351.517 542.704 313.494 542.657 275.053Z" fill="white"/>
<path d="M271.339 486.58C242.184 486.59 213.351 480.393 186.707 468.39C160.065 456.387 136.206 438.844 116.675 416.899L70.1421 459.58C95.5491 488.119 126.589 510.925 161.25 526.52C195.911 542.114 233.417 550.15 271.339 550.104V486.58Z" fill="white"/>
<path d="M131.418 118.281L89.3169 71.0851C61.1619 96.8401 38.6613 128.307 23.2743 163.445C7.88755 198.582 -0.0419498 236.607 0.000166897 275.051H62.6838C62.6709 245.498 68.7829 216.27 80.6235 189.263C92.4643 162.258 109.77 138.074 131.418 118.281Z" fill="white"/>
</g>
<defs>
<clipPath id="clip0_1_25">
<rect width="542" height="555" fill="white"/>
</clipPath>
</defs>
</svg>
