<svg id="Layer_1" data-name="Layer 1" xmlns="http://www.w3.org/2000/svg" xmlns:xlink="http://www.w3.org/1999/xlink" viewBox="0 0 378.07 299.85"><defs><style>.cls-1{mask:url(#mask);}.cls-2{mix-blend-mode:multiply;fill:url(#Безымянный_градиент_2);}.cls-3{fill:none;}.cls-4{fill:#fce5dd;}.cls-5{clip-path:url(#clip-path);}.cls-6{fill:#fcf3ef;}.cls-7{clip-path:url(#clip-path-2);}.cls-8{fill:#dec9c2;}.cls-9{fill:#c7b4ae;}.cls-10,.cls-11,.cls-12{fill:#fff;}.cls-10{opacity:0.31;}.cls-11{opacity:0.6;}.cls-13{fill:#fffaf1;}.cls-14{mask:url(#mask-2);}.cls-15{opacity:0.22;fill:url(#Безымянный_градиент_3);}.cls-16{fill:#f4bf62;}.cls-17{fill:#40456f;}.cls-18{fill:#6163a0;}.cls-19{fill:#c7c1b7;}.cls-20{fill:#883223;}.cls-21{fill:#d55838;}.cls-22{fill:#e0dace;}.cls-23{fill:#d9d9d9;}.cls-24{fill:#332322;}.cls-25{fill:#ed8150;}.cls-26{fill:#c9643e;}.cls-27{fill:#2e1b1a;}.cls-28{fill:#3f2524;}.cls-29{fill:#ff3d53;}.cls-30{fill:#605f31;}.cls-31{fill:#7f8444;}.cls-32{fill:#e18930;}.cls-33{fill:#f0a145;}.cls-34{fill:#745751;}.cls-35{filter:url(#luminosity-noclip-2);}.cls-36{filter:url(#luminosity-noclip);}</style><filter id="luminosity-noclip" x="1373.33" y="-8546" width="87.35" height="32766" filterUnits="userSpaceOnUse" color-interpolation-filters="sRGB"><feFlood flood-color="#fff" result="bg"/><feBlend in="SourceGraphic" in2="bg"/></filter><mask id="mask" x="1373.33" y="-8546" width="87.35" height="32766" maskUnits="userSpaceOnUse"><g class="cls-36"/></mask><linearGradient id="Безымянный_градиент_2" x1="1579.56" y1="202.87" x2="1579.56" y2="106.06" gradientTransform="translate(-162.55)" gradientUnits="userSpaceOnUse"><stop offset="0"/><stop offset="1" stop-color="#fff"/></linearGradient><clipPath id="clip-path" transform="translate(-1195.57 -37.15)"><path class="cls-3" d="M1540.19,150.47c-33.47-10.16-62.32-24.51-95-64.36s-120.55-27.58-146.09,32.18-7.15,114.93,23.5,125.15,43.8,20.22,60.72,59.41c13.57,31.45,89,46.59,112.42,16.27,42.76-55.46,44-33.8,64.38-75.17S1574.56,160.91,1540.19,150.47Z"/></clipPath><clipPath id="clip-path-2" transform="translate(-1195.57 -37.15)"><rect class="cls-3" x="1242.76" y="94.57" width="130.03" height="167.68" transform="translate(2615.55 356.82) rotate(180)"/></clipPath><filter id="luminosity-noclip-2" x="1373.33" y="106.06" width="87.35" height="96.81" filterUnits="userSpaceOnUse" color-interpolation-filters="sRGB"><feFlood flood-color="#fff" result="bg"/><feBlend in="SourceGraphic" in2="bg"/></filter><mask id="mask-2" x="177.76" y="68.91" width="87.35" height="96.81" maskUnits="userSpaceOnUse"><g class="cls-35"><g transform="translate(-1195.57 -37.15)"><g class="cls-1"><polygon class="cls-2" points="1403.37 106.06 1373.33 202.87 1460.68 202.87 1432.29 106.06 1403.37 106.06"/></g></g></g></mask><linearGradient id="Безымянный_градиент_3" x1="1579.56" y1="202.87" x2="1579.56" y2="106.06" gradientTransform="translate(-1358.12 -37.15)" gradientUnits="userSpaceOnUse"><stop offset="0" stop-color="#fff"/><stop offset="1" stop-color="#fff"/></linearGradient></defs><path class="cls-4" d="M1540.19,150.47c-33.47-10.16-62.32-24.51-95-64.36s-120.55-27.58-146.09,32.18-7.15,114.93,23.5,125.15,43.8,20.22,60.72,59.41c13.57,31.45,89,46.59,112.42,16.27,42.76-55.46,44-33.8,64.38-75.17S1574.56,160.91,1540.19,150.47Z" transform="translate(-1195.57 -37.15)"/><path class="cls-4" d="M1519.58,93.09c-22.74-25.7-31.35-33.38-56.48-28s15.71,49,57.33,70.43S1547.41,124.54,1519.58,93.09Z" transform="translate(-1195.57 -37.15)"/><g class="cls-5"><rect class="cls-6" x="47.33" y="59.27" width="129.91" height="166.55"/><g class="cls-7"><path class="cls-8" d="M1321.29,225.64c-.38-2-2.24-2.57-1.77-4.91.27-1.32,1-2,.16-3.35a5.76,5.76,0,0,0-1.88-1.72,2.76,2.76,0,0,0,1-3.18.46.46,0,0,0-.77-.21,12.26,12.26,0,0,0-1.72,2.21A14.79,14.79,0,0,0,1316,213a1,1,0,0,0-.84-.82c-.82,0-.84.75-.67,1.47-1.52-1-3-2.1-4.53-3.12-.58-.38-1.21-.76-1.85-1.13a1.88,1.88,0,0,0,.63-1c.22-.86-.44-1.59-1.29-1.13a5.26,5.26,0,0,0-1.32,1.09,25,25,0,0,0-3-1.24,2.14,2.14,0,0,0,.73-.77.89.89,0,0,0-.67-1.31,2.43,2.43,0,0,0-1.79.79,4.87,4.87,0,0,0-.61.68c-3.71-.71-7.42-.13-10.13,3.14l-.44.54a3.48,3.48,0,0,0-1.3-1.82.39.39,0,0,0-.35-.07.48.48,0,0,0-.56.25.47.47,0,0,0-.16.43,7.75,7.75,0,0,0,.78,2.29,3.5,3.5,0,0,1-.76.05,5,5,0,0,0-2,0,4.47,4.47,0,0,0-2.34,1.91,5.22,5.22,0,0,0-.43.85c-1.32,3.36,1.5,6.37,4.1,8.07a.37.37,0,0,0,.39,0c3.57,2.15,7.49,5.18,11.67,5.75.8.11,1.62-.1,2.38,0a14,14,0,0,1,2.63.87,6.14,6.14,0,0,1,.56,1.05,6.19,6.19,0,0,0,3.19,2.46c4.12,1.51,12.37.57,13.26-4.54A6.06,6.06,0,0,0,1321.29,225.64Z" transform="translate(-1195.57 -37.15)"/><path class="cls-9" d="M1321.17,227.58a.45.45,0,0,0-.45-.12c-3.22,1.32-9.68,4.51-12,.56-.38-.65-.28-1-1-1.46-.44-.27-1.09-.26-1.56-.51a4.11,4.11,0,0,1-2.11-3.5c0-.28-.29-.56-.58-.45a11.94,11.94,0,0,1-4.44,1c-2.11-.11-4.36-1.4-4.06-3.85,0-.29-.33-.51-.59-.44a8.59,8.59,0,0,1-10.8-5.62,5.22,5.22,0,0,0-.43.85c-1.32,3.36,1.5,6.37,4.1,8.07a.37.37,0,0,0,.39,0c3.57,2.15,7.49,5.18,11.67,5.75.8.11,1.62-.1,2.38,0a14,14,0,0,1,2.63.87,6.14,6.14,0,0,1,.56,1.05,6.19,6.19,0,0,0,3.19,2.46c4.12,1.51,12.37.57,13.26-4.54Z" transform="translate(-1195.57 -37.15)"/><path class="cls-8" d="M1289.69,217.51l-.13-.1a2.34,2.34,0,0,1,0-.26c.11-.59-.78-.84-.9-.25a5.2,5.2,0,0,0,.94,4.23.47.47,0,0,0,.85-.11A3.61,3.61,0,0,0,1289.69,217.51Z" transform="translate(-1195.57 -37.15)"/><path class="cls-8" d="M1301.25,221.84a.34.34,0,0,0-.37-.05,9.81,9.81,0,0,1-.51-1.5.46.46,0,0,0-.89.24,10.13,10.13,0,0,0,2,4.06.47.47,0,0,0,.78-.2A2.52,2.52,0,0,0,1301.25,221.84Z" transform="translate(-1195.57 -37.15)"/><path class="cls-8" d="M1310.2,226.53c-1,1.11-2.15,3-.61,4.23a.48.48,0,0,0,.78-.21,6.67,6.67,0,0,0,.13-2.67.27.27,0,0,0-.08-.16c.15-.2.3-.38.43-.53C1311.24,226.74,1310.59,226.08,1310.2,226.53Z" transform="translate(-1195.57 -37.15)"/><path class="cls-9" d="M1297.12,210.45c-1.48-1-1.84,3.16-1.8,3.9-.3.46.32,1.07.68.61a6.6,6.6,0,0,0,1.26-2.49C1297.41,211.92,1297.71,210.86,1297.12,210.45Z" transform="translate(-1195.57 -37.15)"/><path class="cls-9" d="M1304.78,216.33l0,0a9.54,9.54,0,0,0,1.48-4.57.45.45,0,0,0-.34-.44c-1-.33-1.51.94-1.78,1.73a7.82,7.82,0,0,0-.19,4.1c.12.59,1,.34.89-.24C1304.83,216.7,1304.81,216.51,1304.78,216.33Z" transform="translate(-1195.57 -37.15)"/><path class="cls-8" d="M1306.89,219.49a.49.49,0,0,0-.8.39.32.32,0,0,0,0,.22,2.93,2.93,0,0,0,1.11,2.24.48.48,0,0,0,.73-.1C1308.48,221.15,1307.7,220.18,1306.89,219.49Z" transform="translate(-1195.57 -37.15)"/><path class="cls-9" d="M1317.57,220.54c0-.9-.81-1.19-1.53-.9a9,9,0,0,0-1.91,1.12,13.88,13.88,0,0,0-1.33.68c-.36.22-.24.92.24.87h.06a.47.47,0,0,0,.6,0l0,0C1315.2,222.24,1317.47,222.32,1317.57,220.54Z" transform="translate(-1195.57 -37.15)"/><path class="cls-8" d="M1262.75,210.68c-.8-1.75-2.88-4.33-5-4.2a4,4,0,0,0-.67.1,8,8,0,0,0-2.29.95c.08-.25.15-.51.25-.76.23-.55-.67-.79-.89-.24a9.3,9.3,0,0,0-.52,1.78l-.11.09a3.56,3.56,0,0,0-.6-1.89.81.81,0,0,0-1.23.06c-.37.5-.11,1.17.1,1.68s.37.85.58,1.26a4.7,4.7,0,0,0-.55.76c-.47.81-.57,1.6-.93,2.26l-1.07-1.11a.47.47,0,0,0-.78.45,5.78,5.78,0,0,0,.79,1.64,2.23,2.23,0,0,1-.31.15c-.94.36-1.48.34-2.18,1.18a10,10,0,0,0-1.8,3.84,7,7,0,0,0,0,3.53,3.83,3.83,0,0,0,1.94,2.35,4.92,4.92,0,0,0,1.21.33,5,5,0,0,1,2.78.87,2.66,2.66,0,0,0,.53.53c4.82,1.6,5.17-7.3,8.58-8.95a.4.4,0,0,0,.23-.45C1262.49,215.17,1263.86,213.15,1262.75,210.68Z" transform="translate(-1195.57 -37.15)"/><path class="cls-9" d="M1262.75,210.68c-.8-1.75-2.88-4.33-5-4.2a4,4,0,0,0-.67.1s0,0,0,0a6.66,6.66,0,0,1,0,8.89c-.87.92-2.53,1.35-2.85,2.69a3.89,3.89,0,0,0,.15,1.66c.37,2-1.77,2.48-3.39,2.72s-3.62.06-4.58-1.56a14.66,14.66,0,0,1-.85-2.33,7,7,0,0,0,0,3.53,3.83,3.83,0,0,0,1.94,2.35,4.92,4.92,0,0,0,1.21.33,5,5,0,0,1,2.78.87,2.66,2.66,0,0,0,.53.53c4.82,1.6,5.17-7.3,8.58-8.95a.4.4,0,0,0,.23-.45C1262.49,215.17,1263.86,213.15,1262.75,210.68Z" transform="translate(-1195.57 -37.15)"/><path class="cls-8" d="M1251.82,221.31a.39.39,0,0,0-.37-.23.51.51,0,0,0-.68.42,6.86,6.86,0,0,0,.17,2.51.47.47,0,0,0,.85.11A3.12,3.12,0,0,0,1251.82,221.31Z" transform="translate(-1195.57 -37.15)"/><path class="cls-8" d="M1254.07,220.33a.37.37,0,0,0-.46,0,.48.48,0,0,0-.64.64,4,4,0,0,0,1.65,1.62.47.47,0,0,0,.68-.52A3.17,3.17,0,0,0,1254.07,220.33Z" transform="translate(-1195.57 -37.15)"/><path class="cls-8" d="M1260.16,212.06a5,5,0,0,0-1.58-.29,8.77,8.77,0,0,0,1.55-1.22.47.47,0,0,0-.33-.79,2.75,2.75,0,0,0-2.61,1.62.51.51,0,0,0,.43.7l.12,0a.45.45,0,0,0,.08.45,2.1,2.1,0,0,0,1.48.94,1.18,1.18,0,0,0,1.18-.87A.5.5,0,0,0,1260.16,212.06Z" transform="translate(-1195.57 -37.15)"/><path class="cls-9" d="M1250.51,216.9a1.58,1.58,0,0,0-1.09.1,1.71,1.71,0,0,0-1.13.43,1.06,1.06,0,0,0-.14,1.29c.74,1.24,2-.51,2.57-1.05A.47.47,0,0,0,1250.51,216.9Z" transform="translate(-1195.57 -37.15)"/><path class="cls-9" d="M1254.1,210.48a.47.47,0,0,0-.87.23,10.17,10.17,0,0,0,0,2.7c.07.46.61.41.82.1a.43.43,0,0,0,.19-.19A2.81,2.81,0,0,0,1254.1,210.48Z" transform="translate(-1195.57 -37.15)"/><path class="cls-8" d="M1254,215.65c0-.16-.11-.31-.16-.47-.19-.56-1.08-.32-.89.25l.15.47C1253.27,216.46,1254.17,216.22,1254,215.65Z" transform="translate(-1195.57 -37.15)"/><path class="cls-8" d="M1329.07,175.78a1.89,1.89,0,0,0,.68-.47c1.11-1.3-.25-2.3-1.24-3l-3.7-2.62c-1.09-1.34-2.18-2.6-3.16-3.75a11.23,11.23,0,0,0,1.41-7,5.61,5.61,0,0,0,.65-4.89,1.22,1.22,0,0,0-2.37.32,16.22,16.22,0,0,0-1.95-2.48,5.41,5.41,0,0,0,1.35-2.38.47.47,0,0,0-.32-.57,1.59,1.59,0,0,0-1.59.7l-.12.15a2.16,2.16,0,0,0-.27.33l-.39.47a28.75,28.75,0,0,0-10.27-5.62l-.51-.16a4.36,4.36,0,0,0,.49-3.23.47.47,0,0,0-.78-.2,4.75,4.75,0,0,0-1.31,2,9.64,9.64,0,0,0-1-2.37,1.15,1.15,0,0,0-.47-.46,13.05,13.05,0,0,0-.91-1.2.47.47,0,0,0-.73.09,3.51,3.51,0,0,0-.71,2.2l-.09.64a24.86,24.86,0,0,1-4.58-3.9,20.15,20.15,0,0,0-2-1.8c1-.65-.14-2.85-.46-3.58-.15-.34-.62-.26-.8,0a4.49,4.49,0,0,0-.75,2.2,18.17,18.17,0,0,0-2.88-1.38,22.24,22.24,0,0,0-14-.18,1,1,0,0,0-.27-1c-.44-.43-.88-.06-1.12.35s-.48.88-.72,1.32c-.56.21-1.11.43-1.65.67a34.69,34.69,0,0,1-5.62,2,8.54,8.54,0,0,0,.36-1.25c.09-.47.27-1.19-.22-1.49s-1.1.13-1.46.42a5,5,0,0,0-1.65,2.9,37.77,37.77,0,0,1-3.85.34,32.41,32.41,0,0,0-4.08.43c.39-1,.39-2.5-.66-3.09-1.22-.68-2.51.82-3.25,1.59a14.07,14.07,0,0,0-2.3,3.23,30.36,30.36,0,0,0-7.68,4.36c-.51.41-1,.75-1.41,1.09a9.53,9.53,0,0,0-4.49-2.89,1.2,1.2,0,0,0-.89,2.21,10.87,10.87,0,0,0,2.5,2.52,8.42,8.42,0,0,1-5.82.25c-8.9-2.2-14.61.39-18.51,5.74a4.46,4.46,0,0,0-.22-.81c-.12-.34-.65-.5-.84-.11a4.52,4.52,0,0,0-.42,1.34,6,6,0,0,0-.94-.94l-.09-.08-.14-.11a.42.42,0,0,0-.47,0,2.21,2.21,0,0,0-1.25,1.86,7.07,7.07,0,0,0,.7,5.82c-.19.51-.38,1-.56,1.58a6.11,6.11,0,0,0-3.1-1.24.37.37,0,0,0-.42.28.42.42,0,0,0,0,.5,4.2,4.2,0,0,0,3,1.94l0,0c-.11.37-.23.73-.34,1.1a.23.23,0,0,1-.12,0c-4.59,2.08-6.48,4.63-5.73,9.77.42,2.79.66,5.94,1.92,8.41a21.58,21.58,0,0,0-4.42,5.71l-.16-.13a1,1,0,0,0-1.16-.74,1.23,1.23,0,0,0-1.22,1.9,7.43,7.43,0,0,0,.76,3.73L1196,193c-.44,0-.56.52-.33.79a4.64,4.64,0,0,0,3.45,1.65,15,15,0,0,0,1.92,5.27,19,19,0,0,0,7.49,7.17c5.34,2.82,11.06,1.85,16.76.8a13.12,13.12,0,0,0,10-8.77,7,7,0,0,0,9.79-3.06,10.56,10.56,0,0,0,10.48-3.44c2.06-2.33,2.23-4.49,3.2-7.3s.17-1.89,2.81-2.21c1.38-.19,2.74-.14,4.1-.38,3.49-.61,5.94-2.16,9.09-3.5,1.82-.75,4.42-2.52,6.6-.92.63.46,1.19,2.23,1.67,2.91a14.4,14.4,0,0,0,5.58,4.51c3.44,1.58,7.61.54,10.52,3,4.37,3.64,7.35,8.15,13.63,8.49a9.79,9.79,0,0,0,7.91-2.84,24.06,24.06,0,0,0,2.64-3.23c2.76-3.95,8.22-3.73,7.88-9.69A15.44,15.44,0,0,0,1329.07,175.78Z" transform="translate(-1195.57 -37.15)"/><path class="cls-9" d="M1315.31,197.9a9.53,9.53,0,0,0,5.37-2.73,5.47,5.47,0,0,0-1.36-2.16c-1.53-1.53-3.78-1.82-5.72-2.47-6.24-2.16-6.48-7.88-6.29-13.56a1.23,1.23,0,0,0-1.52-1.18,20.84,20.84,0,0,1-9.31-.27c-.17-.15-.37-.27-.54-.44-.9-.9-.39-1.86-.46-3v-.05a.24.24,0,0,0,0-.1v0a.87.87,0,0,0-.44-.8c-.73-.63-2.11-.36-2,.82a.27.27,0,0,1,0,.15,1.39,1.39,0,0,1-1.34,1.23,4.92,4.92,0,0,1-1.89-1.41,2.87,2.87,0,0,1-.89-1.83,10.17,10.17,0,0,0-.14-1.45.43.43,0,0,0-.27-.27.48.48,0,0,0-.87-.23,2.72,2.72,0,0,0-.35,2.33l-.53-.5c-1.09-1.12-1.9-2.67-3.28-3.5-2.91-1.77-6-2-8.36-4.87a1.19,1.19,0,0,0-1.7,0,56.56,56.56,0,0,1-5.53,4.83,3.52,3.52,0,0,1-3.35-1.6,1.19,1.19,0,0,0-2.15,1,1,1,0,0,0,.36.94c1.89,1.58-1.53,3-2.67,3.35a.93.93,0,0,0-.48.27,9.29,9.29,0,0,1-8.32-2.89,1.25,1.25,0,0,0-1.72,0c-3.28,2.79-3.11,6.65-5.41,9.8-1.79,1.43-8.32-.46-7.56.9a5.41,5.41,0,0,0,2.37,2.18,14.51,14.51,0,0,0-2.52.9c-3.49,1.74-4.87,4.65-9.6,2.25a7.56,7.56,0,0,1-1.6-2.23c-.66-1.41-2.77-.17-2.11,1.24a10.29,10.29,0,0,0,1.6,2.37c.34,6.48.17,13.68-6.55,17-5.62,2.77-11.71,1.26-17.14-1.16a19,19,0,0,0,7.49,7.17c4,2.09,8.13,2.09,12.34,1.53a6.86,6.86,0,0,0-.42.91c-.16.41.3.65.62.52a.48.48,0,0,0,.48.05,4.78,4.78,0,0,0,2.09-1.91l1.65-.3a12.44,12.44,0,0,0,5.39-2.37.94.94,0,0,0,1,.65.68.68,0,0,0,.31-.14.46.46,0,0,0,.45-.44,16.43,16.43,0,0,0,0-1.72,14.74,14.74,0,0,0,2.82-4.75,7,7,0,0,0,9.79-3.06,11,11,0,0,0,3.31.22,3.08,3.08,0,0,0,.19.94.5.5,0,0,0,.52.31.39.39,0,0,0,.58,0,4.57,4.57,0,0,0,.83-1.59,10.91,10.91,0,0,0,5-3.28c2.06-2.33,2.23-4.49,3.2-7.3s.17-1.89,2.81-2.21c1.38-.19,2.74-.14,4.1-.38a20.38,20.38,0,0,0,4.7-1.49,6.59,6.59,0,0,0,1.64.7.47.47,0,0,0,.59-.45,1,1,0,0,0-.47-.85,1.38,1.38,0,0,0-.23-.1l1.3-.61a3.82,3.82,0,0,0,.21.46.47.47,0,0,0,.85-.11,3.62,3.62,0,0,0,.2-.91l.3-.14c1.82-.75,4.42-2.52,6.6-.92.63.46,1.19,2.23,1.67,2.91a14.43,14.43,0,0,0,4.87,4.13,13,13,0,0,0,1.64,2.54.46.46,0,0,0,.77-.2,3.83,3.83,0,0,0-.06-1.4,32.89,32.89,0,0,0,3.92.61,2.44,2.44,0,0,0,.74,2,.47.47,0,0,0,.78-.21,4.45,4.45,0,0,0,.06-1.5,7.51,7.51,0,0,1,3.38,1.52c4.32,3.6,7.29,8,13.43,8.47a8.2,8.2,0,0,0,3,1.22c.41.08.85-.45.45-.77A7.77,7.77,0,0,0,1315.31,197.9Z" transform="translate(-1195.57 -37.15)"/><path class="cls-9" d="M1225.59,164.63a10.4,10.4,0,0,0-2.89-4.61,1.24,1.24,0,0,0-2,.57,1.08,1.08,0,0,0-.17,1,7.65,7.65,0,0,0,3.28,4.43A1.23,1.23,0,0,0,1225.59,164.63Z" transform="translate(-1195.57 -37.15)"/><path class="cls-9" d="M1250.68,155.17a1.22,1.22,0,0,0-2.37-.45,9.66,9.66,0,0,0-.45,3.89c.09,1.09,1.68,1.79,2.26.61A6.31,6.31,0,0,0,1250.68,155.17Z" transform="translate(-1195.57 -37.15)"/><path class="cls-9" d="M1217.14,176.94a5.69,5.69,0,0,0-4.77-3.1c-1.52-.12-1.54,2.18-.09,2.4a1,1,0,0,0,.21.61,4.36,4.36,0,0,0,3.6,1.92A1.23,1.23,0,0,0,1217.14,176.94Z" transform="translate(-1195.57 -37.15)"/><path class="cls-8" d="M1280.71,163.87a.41.41,0,0,0-.25-.19v0c.19-.57-.71-.81-.9-.24-.4,1.24-.61,2.8.22,3.83l0,.06a2.43,2.43,0,0,0,.71.58.48.48,0,0,0,.69-.28A6.34,6.34,0,0,0,1280.71,163.87Z" transform="translate(-1195.57 -37.15)"/><path class="cls-8" d="M1270.33,163.53a.48.48,0,0,0-.61.66,3.53,3.53,0,0,0,2,1.7c.35.12.63-.25.57-.57A2.3,2.3,0,0,0,1270.33,163.53Z" transform="translate(-1195.57 -37.15)"/><path class="cls-8" d="M1264.83,168.89a11.78,11.78,0,0,0-3-2.84c-.5-.33-1,.47-.47.8a10,10,0,0,1,1.21.93l-.17-.05h-.06c-.27-.06-.56.08-.52.42a2.09,2.09,0,0,0,0,.25.46.46,0,0,0-.36.13s0-.08,0-.13a.47.47,0,0,0-.91-.12c-.56,1.62-.49,3.48,1.06,4.5a.47.47,0,0,0,.68-.28,10.59,10.59,0,0,0,.51-3.15,2.33,2.33,0,0,0,1.76.22A.47.47,0,0,0,1264.83,168.89Z" transform="translate(-1195.57 -37.15)"/><path class="cls-8" d="M1240,180.62a22.66,22.66,0,0,0-3.85-1.22.47.47,0,0,0-.38.84.48.48,0,0,0,0,.82,4.49,4.49,0,0,0,4.27.45A.47.47,0,0,0,1240,180.62Z" transform="translate(-1195.57 -37.15)"/><path class="cls-8" d="M1243.53,179.51a8.64,8.64,0,0,0-1.72-2.47.45.45,0,0,0-.75.19c-.37-.45-1.15,0-.79.48a10,10,0,0,0,2.63,2.43C1243.32,180.42,1243.71,179.9,1243.53,179.51Z" transform="translate(-1195.57 -37.15)"/><path class="cls-8" d="M1226.61,192.25a12.83,12.83,0,0,0-2.4-4.22c-.39-.45-1,.2-.65.66.14.17.28.36.41.54a.44.44,0,0,0-.33.43,3.86,3.86,0,0,0,2.4,3.16C1226.37,193,1226.72,192.56,1226.61,192.25Z" transform="translate(-1195.57 -37.15)"/><path class="cls-8" d="M1206.47,202.1a3,3,0,0,0-1-.59.47.47,0,0,0-.53-.68l-2.68.71a.46.46,0,0,0-.2.77,4,4,0,0,0,4.35.52A.46.46,0,0,0,1206.47,202.1Z" transform="translate(-1195.57 -37.15)"/><path class="cls-8" d="M1217.33,200.78a.47.47,0,0,0-.89,0c-.11.38-.24.75-.38,1.12a.39.39,0,0,0-.48,0,.47.47,0,0,0-.81.3,9.58,9.58,0,0,0,0,1.51,5.24,5.24,0,0,0,0,1c.06.38.54.4.78.2l.24-.22a.58.58,0,0,0,.16-.05,1.1,1.1,0,0,0,.71-.93A3.53,3.53,0,0,0,1217.33,200.78Z" transform="translate(-1195.57 -37.15)"/><path class="cls-8" d="M1300.69,175.54c-.07-.34-.48-.59-.75-.25-.83,1.07-1.7,2.61-.5,3.77a.47.47,0,0,0,.78-.2,13.81,13.81,0,0,0,.72-2.81A.49.49,0,0,0,1300.69,175.54Z" transform="translate(-1195.57 -37.15)"/><path class="cls-8" d="M1308.14,182.1a.37.37,0,0,0-.37-.16,1.81,1.81,0,0,0-1.53.86,1.38,1.38,0,0,0,.21,1.59.48.48,0,0,0,.66,0,8.32,8.32,0,0,0,1.26-1.64A.44.44,0,0,0,1308.14,182.1Z" transform="translate(-1195.57 -37.15)"/><path class="cls-8" d="M1313,189a.43.43,0,0,0-.43-.2,22.63,22.63,0,0,1-.39-2.28c-.06-.59-1-.59-.92,0a20.44,20.44,0,0,0,.77,3.95,2.37,2.37,0,0,0,1.32,1.67.47.47,0,0,0,.59-.45A6.33,6.33,0,0,0,1313,189Z" transform="translate(-1195.57 -37.15)"/><path class="cls-9" d="M1266.72,149.54c-.1-.67-.46-2.72-1.36-2.84s-1.12,1.44-1.19,2a5.61,5.61,0,0,0,.85,3.68l0,.05,0,.31a.47.47,0,0,0,.87.23A4.75,4.75,0,0,0,1266.72,149.54Z" transform="translate(-1195.57 -37.15)"/><path class="cls-9" d="M1276,145.85a.47.47,0,0,0-.59-.44,5.13,5.13,0,0,0-3.7,3.22c0,.06-.09.1-.13.16a.35.35,0,0,0,0,.39.47.47,0,0,0,.73.31A3.62,3.62,0,0,0,1276,145.85Z" transform="translate(-1195.57 -37.15)"/><path class="cls-9" d="M1288,154.92a.46.46,0,0,0-.8,0,4.65,4.65,0,0,0-.79,4.06.91.91,0,0,0,.07.14,2.18,2.18,0,0,0,.81,1.45.47.47,0,0,0,.68-.28C1288.56,158.52,1289,156.62,1288,154.92Z" transform="translate(-1195.57 -37.15)"/><path class="cls-9" d="M1300.86,146.4a9.46,9.46,0,0,0-3.21.46,2.56,2.56,0,0,0-1.51,1.46,1.09,1.09,0,0,0-.4,1c.27,2,3.83-.1,4.62-.52a2.29,2.29,0,0,0,1.35-1.44C1301.83,146.7,1301.47,146.4,1300.86,146.4Z" transform="translate(-1195.57 -37.15)"/><path class="cls-9" d="M1310.85,158.25a7.7,7.7,0,0,0-4.25-1,1,1,0,0,0-.83,1.34.75.75,0,0,0,.31.53,4.54,4.54,0,0,0,4.54.78A.94.94,0,0,0,1310.85,158.25Z" transform="translate(-1195.57 -37.15)"/><path class="cls-9" d="M1314.92,170.73c-.89-.52-1.5.4-1.77,1.11a7.44,7.44,0,0,0-.42,2.34.92.92,0,0,0,1.6.6.85.85,0,0,0,.32-.21,3.58,3.58,0,0,0,.86-1.82C1315.61,172.07,1315.59,171.13,1314.92,170.73Z" transform="translate(-1195.57 -37.15)"/><path class="cls-8" d="M1321.31,179.38a2.94,2.94,0,0,0-2.41-1,1,1,0,0,0-.93.93,1,1,0,0,0,.06.28s0,0,0,.06a.94.94,0,0,0,.65,1.14,4.52,4.52,0,0,0,2.25.16C1321.65,180.81,1321.71,179.85,1321.31,179.38Z" transform="translate(-1195.57 -37.15)"/><path class="cls-9" d="M1311.38,218.41a67.72,67.72,0,0,1-15.88,2.16c1-1.31,1.56-6.69.76-5.34a34.21,34.21,0,0,1-6.6,8.05c.51-1.56-2.14-5.83-1.93-4.31a7.92,7.92,0,0,1-2.65,7,51.41,51.41,0,0,1-7.17,3.26c.17-1.52.21-2,.35-3.56.69-8.07-.34-15.82-.75-23.86-.46-9,2.15-18.83,2.85-29.11.1-1.55-6.2,22.48-6.94,32.3a30.87,30.87,0,0,0-1.81-5,42.54,42.54,0,0,0-4.92-7.89c.06-.14-2.57-13.24-2.47-11.68.19,2.95.23,5.91.19,8.86-2.09-2.45-9.34-6.48-8.25-5.35,5.87,6.08,12.09,12.48,14.68,20.73a43.07,43.07,0,0,1,1.66,13.71c-5.38-.11-9.85-.61-16-4a24,24,0,0,0,15.91,6.42c-.16,3.05-.46,6.09-.79,9-1.67,15.08-2,40.41-1.88,56.12a1.09,1.09,0,0,0,.76,1.56,27.43,27.43,0,0,0,7,.65,1.28,1.28,0,0,0,1.17-1.53c-1.86-14.33-2.84-39.28-1.19-53.72a36.47,36.47,0,0,0,16-10,1.13,1.13,0,0,0,.59.16C1300.19,223,1312.89,218,1311.38,218.41Z" transform="translate(-1195.57 -37.15)"/><path class="cls-9" d="M1431.29,269.75a.43.43,0,0,0-.26-.36,4.67,4.67,0,0,0-2.84,0,3.63,3.63,0,0,0-2,2.12s0,0,0,0a15.82,15.82,0,0,0-1.53.8,6,6,0,0,0,.25-1.75c0-.59-.09-2.32-1.12-2.08-.76.19-1.34,1.85-1.53,2.5a3.55,3.55,0,0,0,.26,2.82,20,20,0,0,0-2.48,2.39,5.58,5.58,0,0,0,0-1.58c-.08-.59-.38-2.3-1.37-1.93-.73.28-1.1,2-1.21,2.66a3.54,3.54,0,0,0,.75,3,.42.42,0,0,0-.06.34c-.54.8-1,1.62-1.5,2.47a1.09,1.09,0,0,0-.08.15,5.82,5.82,0,0,0-.37-1.73c-.21-.55-.89-2.15-1.77-1.57-.65.44-.62,2.19-.57,2.87a3.51,3.51,0,0,0,1.39,2.71.46.46,0,0,0,0,.26c-.33.67-.65,1.34-1,2a5.86,5.86,0,0,0-.54-1.3,4,4,0,0,0-1.13-1.35c-.12-.89-1.59-.86-2.4-.64a6.29,6.29,0,0,0-2.08,1c.28-1.31.58-2.62.89-3.93,1.74,0,5.24-1.05,5.28-2.4,0-1-1.55-1-2.41-.8a6.79,6.79,0,0,0-2.37,1.19c.28-1.06.58-2.13.89-3.18,1.82.11,4.91-.41,5.14-1.63.2-1-1.38-1.24-2.26-1.15a6.5,6.5,0,0,0-2.22.67,31.85,31.85,0,0,1,1.32-3.32c1.76.52,4.86.69,5.36-.44.42-.95-1.07-1.52-2-1.62a6.55,6.55,0,0,0-2.42.17,19.71,19.71,0,0,1,2.21-3.14c1.54.82,5.09,1.58,5.78.42.53-.89-.88-1.64-1.73-1.85a6.49,6.49,0,0,0-2.52-.11,15.47,15.47,0,0,1,2-1.54l.11,0a4.79,4.79,0,0,0,3.17-.72,2.67,2.67,0,0,0,.73-2.48.44.44,0,0,0-.31-.31,4.69,4.69,0,0,0-2.8.48,3.57,3.57,0,0,0-1.61,2.39v0c-.48.33-1,.67-1.39,1a5.48,5.48,0,0,0,0-1.76c-.1-.59-.45-2.29-1.43-1.89-.72.3-1,2-1.12,2.7a3.54,3.54,0,0,0,.69,2.75,19.34,19.34,0,0,0-2.09,2.75,5.64,5.64,0,0,0-.24-1.57c-.17-.57-.73-2.21-1.65-1.7-.68.39-.77,2.14-.78,2.82a3.54,3.54,0,0,0,1.19,2.81.47.47,0,0,0,0,.35c-.41.86-.78,1.76-1.11,2.67,0,.05,0,.1,0,.16a6,6,0,0,0-.63-1.66c-.29-.51-1.21-2-2-1.28-.58.53-.27,2.26-.13,2.92a3.58,3.58,0,0,0,1.8,2.47.44.44,0,0,0,0,.28c-.22.72-.43,1.43-.63,2.15a5.3,5.3,0,0,0-.74-1.22c-.37-.47-1.5-1.79-2.16-1-.49.61.07,2.27.31,2.9a3.57,3.57,0,0,0,1.88,2.06c-.3,1.24-.58,2.47-.84,3.72a5.49,5.49,0,0,0-.88-1.56l-.16-.21a1.26,1.26,0,0,0-.19-.76.69.69,0,0,0-.9-.16.7.7,0,0,0-.91.16,1.26,1.26,0,0,0-.19.76l-.16.21a5.49,5.49,0,0,0-.88,1.56c-.26-1.25-.54-2.48-.84-3.72a3.57,3.57,0,0,0,1.88-2.06c.24-.63.8-2.29.31-2.9-.66-.82-1.79.5-2.16,1a5.3,5.3,0,0,0-.74,1.22c-.2-.72-.41-1.43-.63-2.15a.44.44,0,0,0,0-.28,3.58,3.58,0,0,0,1.8-2.47c.14-.66.45-2.39-.13-2.92-.78-.71-1.69.77-2,1.28a5.68,5.68,0,0,0-.63,1.66c0-.06,0-.11,0-.16-.33-.91-.7-1.81-1.11-2.67a.47.47,0,0,0,0-.35,3.54,3.54,0,0,0,1.19-2.81c0-.68-.1-2.43-.79-2.82-.91-.51-1.47,1.13-1.64,1.7a5.66,5.66,0,0,0-.25,1.57,18.56,18.56,0,0,0-2.08-2.75,3.54,3.54,0,0,0,.69-2.75c-.09-.67-.4-2.4-1.12-2.7-1-.4-1.33,1.3-1.43,1.89a5.48,5.48,0,0,0,0,1.76c-.44-.36-.91-.7-1.39-1v0a3.6,3.6,0,0,0-1.61-2.39,4.69,4.69,0,0,0-2.8-.48.44.44,0,0,0-.31.31,2.67,2.67,0,0,0,.73,2.48,4.79,4.79,0,0,0,3.17.72l.11,0a15.47,15.47,0,0,1,2,1.54,6.49,6.49,0,0,0-2.52.11c-.85.21-2.26,1-1.73,1.85.69,1.16,4.24.4,5.77-.42a19.15,19.15,0,0,1,2.22,3.14,6.55,6.55,0,0,0-2.42-.17c-.88.1-2.37.67-2,1.62.5,1.13,3.6,1,5.36.44a31.85,31.85,0,0,1,1.32,3.32,6.5,6.5,0,0,0-2.22-.67c-.88-.09-2.46.13-2.26,1.15.23,1.22,3.32,1.74,5.14,1.63.31,1.05.61,2.12.89,3.18a6.79,6.79,0,0,0-2.37-1.19c-.86-.22-2.45-.24-2.41.8,0,1.35,3.54,2.39,5.28,2.4.31,1.31.61,2.62.89,3.93a6.29,6.29,0,0,0-2.08-1c-.77-.21-2.15-.24-2.37.53-.69-.12-1.39,1-1.64,1.46a5.42,5.42,0,0,0-.54,1.3c-.31-.69-.62-1.36-1-2a.46.46,0,0,0,0-.26,3.55,3.55,0,0,0,1.4-2.71c0-.68.08-2.43-.58-2.87-.87-.58-1.55,1-1.77,1.57a5.51,5.51,0,0,0-.36,1.73l-.08-.15c-.47-.85-1-1.67-1.51-2.47a.45.45,0,0,0,0-.34,3.54,3.54,0,0,0,.74-3c-.11-.67-.47-2.38-1.21-2.66-1-.37-1.28,1.34-1.37,1.93a6,6,0,0,0,0,1.58,20.74,20.74,0,0,0-2.48-2.39,3.55,3.55,0,0,0,.25-2.82c-.19-.65-.76-2.31-1.53-2.5-1-.24-1.11,1.49-1.12,2.08a5.66,5.66,0,0,0,.26,1.75,16,16,0,0,0-1.54-.8v0a3.68,3.68,0,0,0-2-2.12,4.64,4.64,0,0,0-2.83,0,.44.44,0,0,0-.27.36,2.66,2.66,0,0,0,1.11,2.33,4.8,4.8,0,0,0,3.24.23l.1,0a14.7,14.7,0,0,1,2.25,1.21,6.55,6.55,0,0,0-2.47.49c-.81.34-2.09,1.3-1.43,2.1.87,1,4.26-.26,5.65-1.3a19.38,19.38,0,0,1,2.67,2.76,6.4,6.4,0,0,0-2.42.2c-.85.24-2.23,1-1.67,1.9.67,1.05,3.7.4,5.36-.39a35.08,35.08,0,0,1,1.82,3.08,6.38,6.38,0,0,0-2.3-.32c-.88,0-2.41.5-2.06,1.48.42,1.17,3.56,1.22,5.34.82.5,1.06.93,2,1.36,3a7,7,0,0,0-2.52-.81c-.88-.09-2.46.14-2.26,1.16.25,1.32,3.88,1.82,5.59,1.56.25.32.91,0,.84-.41,0-.09-.07-.18-.11-.27a3.56,3.56,0,0,0,1.54-2.32,8.39,8.39,0,0,0,.2-1.8,9.55,9.55,0,0,0,4.24,1.36l.33,1.64a6.36,6.36,0,0,0-2.13-1c-.86-.23-2.45-.25-2.42.79.05,1.29,3.27,2.3,5.07,2.4a.46.46,0,0,0,.71-.19,7.42,7.42,0,0,0,.89-.73,6.71,6.71,0,0,0,.88.73.46.46,0,0,0,.71.19c1.8-.1,5-1.11,5.07-2.4a1.11,1.11,0,0,0,0-.19,3.39,3.39,0,0,0,1.29,1.54c0,.09-.07.18-.11.27-.06.4.59.73.84.41,1.71.26,5.34-.24,5.6-1.56.2-1-1.38-1.25-2.26-1.16a6.84,6.84,0,0,0-2.52.81c.43-1,.85-1.95,1.35-3,1.79.4,4.93.35,5.34-.82.35-1-1.17-1.44-2.06-1.48a6.32,6.32,0,0,0-2.29.32,30.74,30.74,0,0,1,1.82-3.08c1.66.79,4.69,1.44,5.36.39.56-.87-.83-1.66-1.68-1.9a6.39,6.39,0,0,0-2.42-.2,19.45,19.45,0,0,1,2.68-2.76c1.39,1,4.78,2.33,5.64,1.3.67-.8-.61-1.76-1.42-2.1a6.59,6.59,0,0,0-2.47-.49,14.59,14.59,0,0,1,2.24-1.21l.1,0a4.83,4.83,0,0,0,3.25-.23A2.68,2.68,0,0,0,1431.29,269.75Zm-26.14,14.6.12-.12.11.12a1.14,1.14,0,0,0-.11.11Zm4.36,2a6.36,6.36,0,0,0-2.13,1l.33-1.64a10.29,10.29,0,0,0,3.75-1.06,9.12,9.12,0,0,0,.2,1.5c0,.2.11.38.17.56C1411.48,286.16,1410.24,286.21,1409.51,286.4Z" transform="translate(-1195.57 -37.15)"/><path class="cls-8" d="M1310.74,174.84c1.92,8.58,6.94,14.57,14.91,19.25a87.93,87.93,0,0,0,18.87,7.73,30.24,30.24,0,0,0,4.94,0c21.86-4.09,32.71-22.84,34.12-39.17a50.61,50.61,0,0,0-3.8-23.58,59.4,59.4,0,0,0-13.21-19.45c-5-4.89-13.74-13.41-22.87-11.38-4.67,1-7.88,4.53-10.7,7.41a102.16,102.16,0,0,0-8.81,10.19C1313.21,140.47,1306.93,157.82,1310.74,174.84Z" transform="translate(-1195.57 -37.15)"/><path class="cls-9" d="M1325.65,194.09a87.93,87.93,0,0,0,18.87,7.73,30.24,30.24,0,0,0,4.94,0c21.86-4.09,32.71-22.84,34.12-39.17a50.61,50.61,0,0,0-3.8-23.58c.43,6.48-.76,13.26-2.13,19.59-1.46,6.72-4,13.41-9.19,18.94s-13.11,8.91-21,11.75A75.94,75.94,0,0,1,1325.65,194.09Z" transform="translate(-1195.57 -37.15)"/><path class="cls-8" d="M1378,161.21a.49.49,0,0,0,.23.24.71.71,0,0,0,.73.32c2.34-.31,4.66-.55,6.2-2.14,1.89-1.93,1.68-4.65,1.76-6.94a.7.7,0,0,0-1-.54C1381.92,153.92,1376,156.92,1378,161.21Z" transform="translate(-1195.57 -37.15)"/><path class="cls-8" d="M1372.13,140a.61.61,0,0,0,.3.19.75.75,0,0,0,.8.18c2.19-.72,4.38-1.38,5.42-3.2,1.28-2.22.29-4.83-.29-7.08a.77.77,0,0,0-1.13-.35C1373.88,132.21,1368.94,136.21,1372.13,140Z" transform="translate(-1195.57 -37.15)"/><path class="cls-8" d="M1366.11,129.23a.61.61,0,0,0,.29.18.78.78,0,0,0,.81.18c2.19-.72,4.37-1.38,5.42-3.2,1.28-2.22.29-4.83-.29-7.08a.76.76,0,0,0-1.13-.34C1367.86,121.42,1362.91,125.41,1366.11,129.23Z" transform="translate(-1195.57 -37.15)"/><path class="cls-8" d="M1359.66,123.83a.53.53,0,0,0,.29.18.72.72,0,0,0,.8.18c2.19-.71,4.38-1.37,5.42-3.19,1.28-2.23.29-4.83-.29-7.09a.76.76,0,0,0-1.12-.34C1361.4,116,1356.46,120,1359.66,123.83Z" transform="translate(-1195.57 -37.15)"/><path class="cls-8" d="M1352.47,117.1a.56.56,0,0,0,.31.15.78.78,0,0,0,.83.1c2.06-.94,4.12-1.81,4.86-3.73.9-2.33-.5-4.81-1.44-7a.79.79,0,0,0-1.17-.22C1352.93,109.18,1348.67,113.64,1352.47,117.1Z" transform="translate(-1195.57 -37.15)"/><path class="cls-8" d="M1317,129.76a.77.77,0,0,0-1.12.35c-.59,2.25-1.57,4.86-.3,7.08,1,1.82,3.23,2.48,5.43,3.2a.75.75,0,0,0,.8-.18.55.55,0,0,0,.29-.19C1325.26,136.21,1320.32,132.21,1317,129.76Z" transform="translate(-1195.57 -37.15)"/><path class="cls-9" d="M1323,123a.76.76,0,0,0-1.12.34c-.58,2.25-1.57,4.86-.29,7.08,1,1.82,3.23,2.48,5.42,3.2a.75.75,0,0,0,.8-.18.53.53,0,0,0,.29-.18C1331.28,129.44,1326.34,125.45,1323,123Z" transform="translate(-1195.57 -37.15)"/><path class="cls-8" d="M1329.44,113.57a.76.76,0,0,0-1.13.34c-.58,2.26-1.56,4.86-.29,7.09,1,1.82,3.23,2.48,5.42,3.19a.74.74,0,0,0,.81-.18.57.57,0,0,0,.29-.18C1337.74,120,1332.79,116,1329.44,113.57Z" transform="translate(-1195.57 -37.15)"/><path class="cls-8" d="M1338.34,106.41a.79.79,0,0,0-1.17.22c-.94,2.18-2.35,4.66-1.44,7,.74,1.92,2.8,2.79,4.85,3.73a.78.78,0,0,0,.83-.1.63.63,0,0,0,.32-.15C1345.52,113.64,1341.27,109.18,1338.34,106.41Z" transform="translate(-1195.57 -37.15)"/><path class="cls-8" d="M1345.55,111.81a.68.68,0,0,0,.35.11.78.78,0,0,0,.83,0c1.81-1.22,3.62-2.38,3.9-4.37.35-2.43-1.61-4.66-3.05-6.66a.8.8,0,0,0-1.2,0C1344.15,104,1341,109,1345.55,111.81Z" transform="translate(-1195.57 -37.15)"/><path class="cls-8" d="M1377.57,167.5a.42.42,0,0,0,.06.3.52.52,0,0,0,.44.56c2.23.64,4.4,1.33,6.73.55,2.84-1,4.34-3.4,5.83-5.38a.55.55,0,0,0-.53-.85C1385.54,162.69,1378.48,163,1377.57,167.5Z" transform="translate(-1195.57 -37.15)"/><path class="cls-9" d="M1364.53,177a.38.38,0,0,0,0,.3.52.52,0,0,0,.44.56c2.23.64,4.4,1.33,6.73.55,2.84-1,4.34-3.41,5.83-5.38a.55.55,0,0,0-.53-.85C1372.49,172.23,1365.43,172.52,1364.53,177Z" transform="translate(-1195.57 -37.15)"/><path class="cls-8" d="M1354.93,180.73a.37.37,0,0,0-.11.28.43.43,0,0,0,.07.66c1.61,1.37,3.16,2.76,5.68,2.89,3.08.17,5.82-1.47,8.28-2.7a.5.5,0,0,0,0-1C1364.79,179.28,1358.33,177,1354.93,180.73Z" transform="translate(-1195.57 -37.15)"/><path class="cls-8" d="M1344.44,186.73a.39.39,0,0,0-.12.28.44.44,0,0,0,.07.66c1.62,1.37,3.16,2.76,5.68,2.9,3.08.16,5.82-1.48,8.28-2.7a.51.51,0,0,0,0-1C1354.29,185.28,1347.83,183,1344.44,186.73Z" transform="translate(-1195.57 -37.15)"/><path class="cls-9" d="M1369.32,167.75a.43.43,0,0,0,.13.27.6.6,0,0,0,.58.48c2.35.26,4.66.56,6.72-.59,2.53-1.4,3.34-4,4.28-6.22.16-.37-.21-.84-.75-.75C1375.82,161.71,1369,163.17,1369.32,167.75Z" transform="translate(-1195.57 -37.15)"/><path class="cls-8" d="M1354.45,196.66a.34.34,0,0,0-.15.2.34.34,0,0,0-.1.5c.88,1.26,1.71,2.53,3.56,3,2.26.58,4.69-.25,6.82-.8.36-.09.55-.49.23-.71C1362.15,197,1357.87,194.4,1354.45,196.66Z" transform="translate(-1195.57 -37.15)"/><path class="cls-8" d="M1375.12,180a.39.39,0,0,0,.15.27.59.59,0,0,0,.6.45c2.37.17,4.69.39,6.68-.83,2.44-1.5,3.1-4.17,3.91-6.38.13-.37-.27-.83-.8-.72C1381.25,173.73,1374.53,175.45,1375.12,180Z" transform="translate(-1195.57 -37.15)"/><path class="cls-9" d="M1310.68,141.49a.71.71,0,0,0-1,.54c.09,2.3-.12,5,1.76,6.95,1.54,1.58,3.86,1.83,6.2,2.13a.67.67,0,0,0,.73-.32.47.47,0,0,0,.23-.23C1320.62,146.26,1314.65,143.27,1310.68,141.49Z" transform="translate(-1195.57 -37.15)"/><path class="cls-9" d="M1302.43,151.12a.55.55,0,0,0-.53.85c1.49,2,3,4.42,5.83,5.38,2.33.78,4.5.09,6.73-.55a.52.52,0,0,0,.44-.56.38.38,0,0,0,0-.3C1314.05,151.42,1307,151.12,1302.43,151.12Z" transform="translate(-1195.57 -37.15)"/><path class="cls-8" d="M1305.24,180.54a.52.52,0,0,0-.32.92c2,1.7,4,3.87,7,4.37,2.47.41,4.44-.6,6.46-1.57a.47.47,0,0,0,.3-.62.45.45,0,0,0,0-.3C1316.71,179.05,1309.72,179.84,1305.24,180.54Z" transform="translate(-1195.57 -37.15)"/><path class="cls-8" d="M1316.59,189.63a.53.53,0,0,0-.32.93c2,1.7,4,3.87,7,4.37,2.47.41,4.43-.6,6.46-1.57a.48.48,0,0,0,.29-.62.39.39,0,0,0,0-.3C1328.05,188.14,1321.06,188.94,1316.59,189.63Z" transform="translate(-1195.57 -37.15)"/><path class="cls-9" d="M1325,195.76a.52.52,0,0,0-.32.92c1.95,1.7,4,3.87,7,4.37,2.47.41,4.43-.59,6.46-1.57a.46.46,0,0,0,.29-.62.37.37,0,0,0,0-.29C1336.44,194.27,1329.45,195.06,1325,195.76Z" transform="translate(-1195.57 -37.15)"/><path class="cls-8" d="M1335.37,201.59c-.27.17-.12.5.17.58,1.73.5,3.7,1.22,5.58.79a5.19,5.19,0,0,0,3-2.4.28.28,0,0,0-.07-.42.34.34,0,0,0-.12-.16C1341.21,198.05,1337.61,200.14,1335.37,201.59Z" transform="translate(-1195.57 -37.15)"/><path class="cls-8" d="M1355.92,201.59a.34.34,0,0,1-.15.58c-1.47.5-3.14,1.22-4.73.79a4.61,4.61,0,0,1-2.56-2.4.32.32,0,0,1,.06-.42.28.28,0,0,1,.1-.16C1351,198.05,1354,200.14,1355.92,201.59Z" transform="translate(-1195.57 -37.15)"/><path class="cls-9" d="M1306.87,161.24c-.53-.11-.93.35-.8.72.81,2.21,1.47,4.88,3.91,6.38,2,1.22,4.31,1,6.68.83a.59.59,0,0,0,.6-.45.41.41,0,0,0,.15-.27C1318,163.89,1311.28,162.17,1306.87,161.24Z" transform="translate(-1195.57 -37.15)"/><path class="cls-8" d="M1306.87,168.76c-.53-.11-.93.35-.8.72.81,2.21,1.47,4.88,3.91,6.38,2,1.22,4.31,1,6.68.83a.6.6,0,0,0,.6-.45.41.41,0,0,0,.15-.27C1318,171.41,1311.28,169.69,1306.87,168.76Z" transform="translate(-1195.57 -37.15)"/><path class="cls-8" d="M1359.79,191.22a.4.4,0,0,0-.12.28.44.44,0,0,0,.07.66c1.6,1.38,3.14,2.78,5.66,2.93,3.07.18,5.82-1.45,8.29-2.66.42-.21.51-.76,0-1C1369.65,189.82,1363.22,187.53,1359.79,191.22Z" transform="translate(-1195.57 -37.15)"/><path class="cls-8" d="M1365.54,187.58a.35.35,0,0,0,0,.29.45.45,0,0,0,.22.64c1.91,1.12,3.75,2.26,6.26,2,3.06-.28,5.37-2.29,7.51-3.85a.51.51,0,0,0-.21-.94C1374.9,184.74,1368,183.44,1365.54,187.58Z" transform="translate(-1195.57 -37.15)"/><path class="cls-8" d="M1338.56,120.56a.5.5,0,0,0,.23,0,.5.5,0,0,0,.52-.06c1-.87,2-1.7,2-3,0-1.54-1.43-2.82-2.52-4a.5.5,0,0,0-.75,0C1337,115.73,1335.46,119,1338.56,120.56Z" transform="translate(-1195.57 -37.15)"/><path class="cls-8" d="M1321.68,155.56a.49.49,0,0,0,.24,0,.47.47,0,0,0,.48-.17c.68-1,1.39-2.08,1-3.29-.53-1.48-2.34-2.42-3.78-3.32-.24-.15-.67-.07-.72.2C1318.51,151.24,1318.18,154.75,1321.68,155.56Z" transform="translate(-1195.57 -37.15)"/><path class="cls-9" d="M1338.1,162.55a.38.38,0,0,0,.22.07.5.5,0,0,0,.53,0c1.16-.75,2.33-1.46,2.55-2.71.27-1.52-.92-3-1.78-4.24a.51.51,0,0,0-.76,0C1337.39,157.58,1335.3,160.7,1338.1,162.55Z" transform="translate(-1195.57 -37.15)"/><path class="cls-8" d="M1357.69,145.71a.47.47,0,0,0,.23.23.67.67,0,0,0,.73.32c2.34-.3,4.66-.55,6.2-2.13,1.88-1.93,1.67-4.65,1.76-6.95a.7.7,0,0,0-1-.53C1361.64,138.42,1355.67,141.42,1357.69,145.71Z" transform="translate(-1195.57 -37.15)"/><path class="cls-9" d="M1339.28,141.74a1,1,0,0,0,.43,0,1.09,1.09,0,0,0,.94-.23c1.61-1.53,3.27-3,2.91-4.84-.43-2.23-3.4-3.73-5.69-5.16-.39-.23-1.2-.15-1.38.26C1335.05,135.12,1333.21,140.33,1339.28,141.74Z" transform="translate(-1195.57 -37.15)"/><path class="cls-8" d="M1354.64,124.43a.68.68,0,0,0,.24.21.85.85,0,0,0,.68.32c2,0,4,0,5.16-1.16,1.38-1.37.82-3.54.58-5.35a.8.8,0,0,0-1-.51C1357.11,119,1352.28,120.86,1354.64,124.43Z" transform="translate(-1195.57 -37.15)"/><path class="cls-8" d="M1355.45,167.84a.72.72,0,0,0,.23.2.86.86,0,0,0,.69.32c2,0,4,0,5.15-1.15,1.39-1.37.83-3.54.59-5.36a.82.82,0,0,0-.95-.51C1357.91,162.4,1353.09,164.26,1355.45,167.84Z" transform="translate(-1195.57 -37.15)"/><path class="cls-8" d="M1353.31,201.85c-1.84,2.83-2.06,6-1,9.65a39.72,39.72,0,0,0,3.31,7.88,12.78,12.78,0,0,0,1.44,1.53,16.93,16.93,0,0,0,20.85.39,17.72,17.72,0,0,0,5.49-7.34,22.8,22.8,0,0,0,1.6-9.18c-.07-2.81-.24-7.77-3.45-10.07a9.71,9.71,0,0,0-5.18-1.4,40.75,40.75,0,0,0-5.4-.07C1363.64,193.64,1357,196.22,1353.31,201.85Z" transform="translate(-1195.57 -37.15)"/><path class="cls-9" d="M1352.26,211.5a39.72,39.72,0,0,0,3.31,7.88,12.78,12.78,0,0,0,1.44,1.53,16.93,16.93,0,0,0,20.85.39,17.72,17.72,0,0,0,5.49-7.34,24.64,24.64,0,0,1-6.1,4.45,14.27,14.27,0,0,1-8,2.09c-3.08-.18-6.29-1.75-9.36-3.44A35.29,35.29,0,0,1,1352.26,211.5Z" transform="translate(-1195.57 -37.15)"/><path class="cls-9" d="M1378.2,190.12a.41.41,0,0,0-.55-.35c-1.13.69-2.55,1.34-3,2.82-.36,1.21.16,2.44.66,3.7a.4.4,0,0,0,.37.28.35.35,0,0,0,.18.05C1378.57,196.43,1378.41,192.61,1378.2,190.12Z" transform="translate(-1195.57 -37.15)"/><path class="cls-8" d="M1366.3,191.62a.4.4,0,0,0-.55-.35c-1.13.68-2.55,1.33-3,2.81-.37,1.22.15,2.45.65,3.7a.4.4,0,0,0,.37.28.27.27,0,0,0,.18.05C1366.67,197.93,1366.51,194.1,1366.3,191.62Z" transform="translate(-1195.57 -37.15)"/><path class="cls-8" d="M1359.5,193a.4.4,0,0,0-.62-.17c-.88,1-2.05,2-2,3.57,0,1.27.86,2.29,1.71,3.35a.41.41,0,0,0,.43.16.31.31,0,0,0,.19,0C1361.71,199,1360.44,195.34,1359.5,193Z" transform="translate(-1195.57 -37.15)"/><path class="cls-8" d="M1384.34,194.27a.41.41,0,0,0-.14-.64c-1.29-.29-2.76-.82-4.11-.06-1.11.61-1.6,1.86-2.11,3.11a.41.41,0,0,0,.06.45.27.27,0,0,0,.1.16C1380.21,199.05,1382.77,196.2,1384.34,194.27Z" transform="translate(-1195.57 -37.15)"/><path class="cls-8" d="M1387.3,200.46a.36.36,0,0,1,.25.55c-.83,1-1.67,2.33-3.16,2.63a5.39,5.39,0,0,1-3.46-.94.34.34,0,0,1-.21-.37.22.22,0,0,1,0-.18C1381.29,199.58,1384.94,200.05,1387.3,200.46Z" transform="translate(-1195.57 -37.15)"/><path class="cls-9" d="M1386.17,210.78a.36.36,0,0,1,.25.55c-.83,1-1.67,2.32-3.16,2.63a5.41,5.41,0,0,1-3.46-.94.34.34,0,0,1-.21-.37.22.22,0,0,1,0-.18C1380.16,209.9,1383.81,210.37,1386.17,210.78Z" transform="translate(-1195.57 -37.15)"/><path class="cls-8" d="M1367.82,221.19a.35.35,0,0,1-.34.49c-1.31-.19-2.85-.26-3.87-1.4a5.4,5.4,0,0,1-.95-3.45.35.35,0,0,1,.22-.37.23.23,0,0,1,.14-.11C1365.54,215.56,1367,219,1367.82,221.19Z" transform="translate(-1195.57 -37.15)"/><path class="cls-9" d="M1359.72,220.94a.41.41,0,0,0-.21.1.44.44,0,0,0-.37.35c-.21,1.24-.45,2.46.43,3.4,1.08,1.14,3.11,1.27,4.79,1.52.28,0,.65-.2.58-.47C1364.36,223.63,1363.26,220.28,1359.72,220.94Z" transform="translate(-1195.57 -37.15)"/><path class="cls-9" d="M1369.28,222.51a.43.43,0,0,0-.15.18.45.45,0,0,0-.18.47c.36,1.21.67,2.41,1.87,2.87,1.47.56,3.37-.21,5-.72.27-.09.5-.47.32-.67C1374.63,222.9,1372.17,220.37,1369.28,222.51Z" transform="translate(-1195.57 -37.15)"/><path class="cls-9" d="M1377.72,219.39a.56.56,0,0,0-.06.2.41.41,0,0,0,0,.45c.72.84,1.4,1.7,2.54,1.64,1.39-.07,2.64-1.37,3.76-2.36.19-.17.23-.56,0-.66C1382.18,217.79,1379.29,216.62,1377.72,219.39Z" transform="translate(-1195.57 -37.15)"/><path class="cls-9" d="M1365.93,203.11a.47.47,0,0,0,.18.12.49.49,0,0,0,.48.13c1.12-.39,2.26-.74,2.61-1.83.42-1.33-.46-2.94-1.07-4.33-.11-.23-.48-.41-.67-.24C1365.9,198.38,1363.66,200.7,1365.93,203.11Z" transform="translate(-1195.57 -37.15)"/><path class="cls-9" d="M1358.08,208.64a.48.48,0,0,0,.21.09.46.46,0,0,0,.48,0c1-.58,2.1-1.13,2.25-2.27.18-1.38-1-2.81-1.83-4.07-.14-.21-.55-.31-.7-.11C1357.21,204,1355.42,206.68,1358.08,208.64Z" transform="translate(-1195.57 -37.15)"/><path class="cls-8" d="M1373.83,202.27a.46.46,0,0,0,.09.2.46.46,0,0,0,.32.37c1.15.31,2.29.65,3.18-.06,1.1-.86,1.27-2.69,1.54-4.19,0-.25-.18-.61-.43-.57C1376.45,198.33,1373.29,199,1373.83,202.27Z" transform="translate(-1195.57 -37.15)"/><path class="cls-8" d="M1368.2,210.78a.65.65,0,0,0-.07.21.46.46,0,0,0,0,.49c.63,1,1.23,2,2.37,2.13,1.39.12,2.76-1.11,4-2,.2-.16.28-.56.08-.71C1372.8,209.69,1370,208,1368.2,210.78Z" transform="translate(-1195.57 -37.15)"/><path class="cls-9" d="M1349.18,180.6s-1,99.06,2.22,136.26h-11.1S1348.47,189.77,1349.18,180.6Z" transform="translate(-1195.57 -37.15)"/><path class="cls-9" d="M1347.74,204.42s-9-12-11.25-16.93c0,0,9.06,18,10.73,24.23Z" transform="translate(-1195.57 -37.15)"/><path class="cls-9" d="M1347.7,226.05s6.43-6.07,13.39-12.23c0,0-8.86,13.3-12.86,19.53Z" transform="translate(-1195.57 -37.15)"/><path class="cls-9" d="M1348.1,199.28s5.24-7.07,6.6-10c0,0-5.29,10.65-6.29,14.39Z" transform="translate(-1195.57 -37.15)"/><path class="cls-8" d="M1388.4,291.7a.58.58,0,0,0-.36-.49,6.35,6.35,0,0,0-3.88.06,4.9,4.9,0,0,0-2.68,2.89,0,0,0,0,0,0,0,23.08,23.08,0,0,0-2.1,1.09,7.84,7.84,0,0,0,.35-2.38c0-.81-.13-3.19-1.53-2.85-1,.25-1.83,2.52-2.1,3.41a4.89,4.89,0,0,0,.35,3.86,27.63,27.63,0,0,0-3.39,3.28,7.88,7.88,0,0,0,0-2.17c-.12-.8-.53-3.14-1.88-2.64-1,.38-1.5,2.73-1.65,3.64a4.87,4.87,0,0,0,1,4.05.64.64,0,0,0-.07.47c-.74,1.09-1.42,2.21-2.06,3.37,0,.07-.07.14-.11.2a7.91,7.91,0,0,0-.5-2.36c-.29-.76-1.22-2.94-2.42-2.14-.89.59-.84,3-.79,3.92a4.86,4.86,0,0,0,1.91,3.7.73.73,0,0,0,0,.36c-.45.92-.88,1.84-1.3,2.78a7.62,7.62,0,0,0-.74-1.78,5.34,5.34,0,0,0-1.54-1.84c-.16-1.22-2.18-1.18-3.29-.89a9.2,9.2,0,0,0-2.85,1.34q.59-2.7,1.23-5.38c2.37,0,7.16-1.44,7.23-3.29,0-1.42-2.14-1.39-3.3-1.08a8.85,8.85,0,0,0-3.24,1.63c.37-1.46.78-2.92,1.2-4.36,2.5.16,6.73-.56,7-2.23.27-1.4-1.9-1.7-3.09-1.57a9,9,0,0,0-3,.91,42.49,42.49,0,0,1,1.81-4.54c2.4.71,6.64.95,7.32-.6.58-1.3-1.46-2.07-2.66-2.22a9,9,0,0,0-3.31.24,27.52,27.52,0,0,1,3-4.3c2.1,1.12,7,2.16,7.9.58.73-1.22-1.2-2.24-2.37-2.54a9.07,9.07,0,0,0-3.44-.15,21.54,21.54,0,0,1,2.78-2.1l.15,0c1.38.06,3.22-.05,4.33-1a3.64,3.64,0,0,0,1-3.38.6.6,0,0,0-.43-.43,6.39,6.39,0,0,0-3.82.65,4.93,4.93,0,0,0-2.21,3.27,0,0,0,0,0,0,0,22.25,22.25,0,0,0-1.9,1.41,7.8,7.8,0,0,0,0-2.41c-.13-.8-.62-3.13-2-2.58-1,.41-1.42,2.77-1.54,3.69a4.87,4.87,0,0,0,.94,3.76,26.93,26.93,0,0,0-2.85,3.76,7.64,7.64,0,0,0-.33-2.15c-.23-.77-1-3-2.25-2.32-.94.53-1.07,2.93-1.08,3.86a4.89,4.89,0,0,0,1.63,3.84.64.64,0,0,0,0,.47c-.56,1.19-1.06,2.41-1.51,3.65,0,.08,0,.15-.08.22a7.69,7.69,0,0,0-.86-2.26c-.4-.7-1.66-2.72-2.72-1.75-.79.73-.37,3.09-.17,4a4.85,4.85,0,0,0,2.46,3.37.66.66,0,0,0,.06.39c-.3,1-.58,1.95-.85,2.93a8.31,8.31,0,0,0-1-1.67c-.51-.63-2-2.44-3-1.32-.67.83.1,3.11.43,4a4.9,4.9,0,0,0,2.57,2.82c-.4,1.68-.79,3.38-1.15,5.08a7.76,7.76,0,0,0-1.2-2.13l-.23-.28a1.64,1.64,0,0,0-.25-1,.94.94,0,0,0-1.24-.23.93.93,0,0,0-1.23.23,1.64,1.64,0,0,0-.26,1l-.23.28a7.76,7.76,0,0,0-1.2,2.13c-.36-1.7-.74-3.4-1.15-5.08a4.9,4.9,0,0,0,2.57-2.82c.34-.86,1.1-3.14.43-4-.9-1.12-2.45.69-3,1.32a8.8,8.8,0,0,0-1,1.67c-.26-1-.55-2-.85-2.93a.67.67,0,0,0,.07-.39,4.91,4.91,0,0,0,2.46-3.37c.2-.91.61-3.27-.18-4-1.06-1-2.32,1-2.72,1.75a7.69,7.69,0,0,0-.86,2.26c0-.07-.05-.14-.08-.22-.45-1.24-.95-2.46-1.51-3.65a.64.64,0,0,0,0-.47,4.86,4.86,0,0,0,1.63-3.84c0-.93-.14-3.33-1.08-3.86-1.25-.7-2,1.55-2.25,2.32a7.64,7.64,0,0,0-.33,2.15,26.93,26.93,0,0,0-2.85-3.76,4.88,4.88,0,0,0,1-3.76c-.13-.92-.55-3.28-1.55-3.69-1.33-.55-1.81,1.78-1.95,2.58a8.12,8.12,0,0,0,0,2.41,20.77,20.77,0,0,0-1.9-1.41v0a5,5,0,0,0-2.21-3.27,6.43,6.43,0,0,0-3.83-.65.6.6,0,0,0-.43.43,3.66,3.66,0,0,0,1,3.38c1.11.94,3,1.05,4.34,1a.58.58,0,0,0,.14,0,21.54,21.54,0,0,1,2.78,2.1,9.07,9.07,0,0,0-3.44.15c-1.17.3-3.1,1.32-2.37,2.54,1,1.58,5.8.54,7.9-.58a27.58,27.58,0,0,1,3,4.3,9,9,0,0,0-3.32-.24c-1.19.15-3.23.92-2.66,2.22.68,1.55,4.92,1.31,7.32.6a44.76,44.76,0,0,1,1.82,4.54,9.15,9.15,0,0,0-3-.91c-1.2-.13-3.36.17-3.1,1.57.32,1.67,4.54,2.39,7,2.23.42,1.44.83,2.9,1.21,4.36a8.93,8.93,0,0,0-3.24-1.63c-1.17-.31-3.35-.34-3.3,1.08.06,1.85,4.85,3.27,7.22,3.29q.65,2.68,1.23,5.38a9.1,9.1,0,0,0-2.85-1.34c-1.06-.27-2.94-.32-3.25.73-.94-.16-1.9,1.4-2.24,2a7.62,7.62,0,0,0-.74,1.78c-.42-.94-.85-1.86-1.3-2.78a.73.73,0,0,0,0-.36,4.86,4.86,0,0,0,1.91-3.7c.05-.93.1-3.33-.79-3.92-1.2-.8-2.13,1.38-2.42,2.14a7.91,7.91,0,0,0-.5,2.36c0-.06-.07-.13-.11-.2-.64-1.16-1.32-2.28-2.06-3.37a.64.64,0,0,0-.07-.47,4.87,4.87,0,0,0,1-4.05c-.15-.91-.65-3.26-1.65-3.64-1.35-.5-1.76,1.84-1.88,2.64a7.88,7.88,0,0,0,0,2.17,27.63,27.63,0,0,0-3.39-3.28,4.89,4.89,0,0,0,.35-3.86c-.27-.89-1-3.16-2.1-3.41-1.4-.34-1.52,2-1.53,2.85a7.84,7.84,0,0,0,.35,2.38,23.08,23.08,0,0,0-2.1-1.09,0,0,0,0,0,0,0,4.9,4.9,0,0,0-2.68-2.89,6.38,6.38,0,0,0-3.89-.06.59.59,0,0,0-.35.49,3.67,3.67,0,0,0,1.5,3.19,6.57,6.57,0,0,0,4.44.31.35.35,0,0,0,.14-.06,22,22,0,0,1,3.07,1.66,8.93,8.93,0,0,0-3.37.68c-1.12.46-2.86,1.77-2,2.86,1.17,1.42,5.81-.35,7.71-1.78a27.9,27.9,0,0,1,3.67,3.78,9.1,9.1,0,0,0-3.32.28c-1.16.32-3,1.4-2.28,2.6.91,1.43,5.06.54,7.32-.53a44.26,44.26,0,0,1,2.5,4.2,9,9,0,0,0-3.15-.43c-1.2.06-3.29.68-2.82,2,.57,1.6,4.87,1.66,7.31,1.12.69,1.45,1.27,2.74,1.86,4.12a9.08,9.08,0,0,0-3.45-1.11c-1.2-.12-3.36.18-3.1,1.58.36,1.81,5.32,2.48,7.66,2.13.34.44,1.24,0,1.15-.56l-.15-.36a4.9,4.9,0,0,0,2.1-3.18,11.2,11.2,0,0,0,.28-2.46,13.05,13.05,0,0,0,5.8,1.86c.15.75.3,1.49.46,2.24a9,9,0,0,0-2.93-1.4c-1.17-.31-3.35-.34-3.3,1.09.06,1.76,4.47,3.15,6.92,3.28a.64.64,0,0,0,1-.25,10.89,10.89,0,0,0,1.21-1,11.9,11.9,0,0,0,1.21,1,.64.64,0,0,0,1,.25c2.45-.13,6.86-1.52,6.92-3.28a.8.8,0,0,0,0-.27,4.68,4.68,0,0,0,1.77,2.12l-.15.36c-.09.55.81,1,1.15.56,2.34.35,7.3-.32,7.65-2.13.27-1.4-1.89-1.7-3.09-1.58a9.08,9.08,0,0,0-3.45,1.11c.59-1.38,1.17-2.67,1.86-4.12,2.44.54,6.73.48,7.3-1.12.48-1.35-1.61-2-2.81-2a9,9,0,0,0-3.15.43,46.39,46.39,0,0,1,2.49-4.2c2.27,1.07,6.42,2,7.33.53.77-1.2-1.12-2.28-2.28-2.6a9.1,9.1,0,0,0-3.32-.28,27.9,27.9,0,0,1,3.67-3.78c1.9,1.43,6.53,3.2,7.71,1.78.91-1.09-.83-2.4-2-2.86a8.93,8.93,0,0,0-3.37-.68,22,22,0,0,1,3.07-1.66.35.35,0,0,0,.14.06,6.57,6.57,0,0,0,4.44-.31A3.67,3.67,0,0,0,1388.4,291.7Zm-35.75,20,.15-.18c0,.07.1.12.15.18l-.15.14Zm6,2.79a9,9,0,0,0-2.92,1.4c.15-.75.3-1.49.46-2.24a14.07,14.07,0,0,0,5.13-1.45,12.22,12.22,0,0,0,.28,2.05,4.87,4.87,0,0,0,.22.77C1361.31,314.15,1359.6,314.21,1358.61,314.47Z" transform="translate(-1195.57 -37.15)"/></g><rect class="cls-10" x="1242.84" y="94.57" width="130.03" height="167.68" transform="translate(1420.14 319.66) rotate(180)"/><polygon class="cls-11" points="132.03 222.07 145.65 222.07 87.8 59.33 74.18 59.33 132.03 222.07"/><polygon class="cls-11" points="156.07 222.07 162.88 222.07 105.03 59.33 98.22 59.33 156.07 222.07"/><polygon class="cls-11" points="89.92 222.07 96.73 222.07 48.75 76.94 47.31 86.39 89.92 222.07"/><rect class="cls-12" x="1370.95" y="92.65" width="3.84" height="171.76" transform="translate(1550.16 319.91) rotate(180)"/><rect class="cls-12" x="1327.61" y="93.52" width="3.84" height="170.03" transform="translate(1463.48 319.91) rotate(180)"/><rect class="cls-12" x="1305.94" y="27.64" width="3.84" height="133.86" transform="translate(17.71 1365.27) rotate(-90)"/><rect class="cls-12" x="1305.94" y="195.32" width="3.84" height="133.86" transform="translate(-149.97 1532.95) rotate(-90)"/><rect class="cls-12" x="1284.27" y="93.52" width="3.84" height="170.03" transform="translate(1376.79 319.91) rotate(180)"/><rect class="cls-12" x="1240.92" y="92.65" width="3.84" height="171.76" transform="translate(1290.11 319.91) rotate(180)"/><rect class="cls-12" x="1305.94" y="111.6" width="3.84" height="133.86" transform="translate(-66.25 1449.23) rotate(-90)"/><rect class="cls-9" x="1307.18" y="118.05" width="1.35" height="126.15" transform="translate(293.41 -1163.88) rotate(90)"/><rect class="cls-9" x="1307.18" y="196.82" width="1.35" height="126.15" transform="translate(372.18 -1085.11) rotate(90)"/><rect class="cls-9" x="1307.18" y="34.05" width="1.35" height="126.22" transform="translate(209.45 -1247.84) rotate(90)"/><rect class="cls-9" x="1463.52" y="143.7" width="98.9" height="59.62" transform="translate(1830.36 309.86) rotate(180)"/><rect class="cls-13" x="1468.43" y="148.66" width="89.08" height="49.7" transform="translate(1830.36 309.87) rotate(180)"/><rect class="cls-8" x="1476.35" y="155.4" width="73.24" height="36.21" transform="translate(1830.36 309.87) rotate(180)"/><path class="cls-9" d="M1549.59,191.62l-11.54-16.75a1.09,1.09,0,0,0-1.82,0L1529.88,185l-5.09-5.41a1.1,1.1,0,0,0-1.75.23l-6.51,11.83Z" transform="translate(-1195.57 -37.15)"/><path class="cls-12" d="M1527.22,163.92a3.62,3.62,0,1,0,3.62-3.61A3.62,3.62,0,0,0,1527.22,163.92Z" transform="translate(-1195.57 -37.15)"/><path class="cls-12" d="M1500.35,165.18c.18.39.58.44,1,.51a27.69,27.69,0,0,0,4.37.16c.85,0,1.7,0,2.55,0a6.31,6.31,0,0,0,2.67.73c1,0,1.86-.64,2.89-.73.6,0,2.36.18,1.86-1.06-.55-1.41-3.8-1.11-4.93-1.46a10.12,10.12,0,0,0-1.65-.37c-.8-.11-.65-.13-1.36-.58a3.48,3.48,0,0,0-.87-.46,2.69,2.69,0,0,0-2,.09c-.72.33-1,1.09-1.82,1.3S1499.59,163.59,1500.35,165.18Z" transform="translate(-1195.57 -37.15)"/><path class="cls-12" d="M1490.86,168.34a9.89,9.89,0,0,0,3.9.37,4,4,0,0,0,2.41-.7,1,1,0,0,0-.06-1.38,1.32,1.32,0,0,0-1.29-.24,4.6,4.6,0,0,0-2.51-.44,4,4,0,0,1-1,.23c-.29,0-.63-.23-.91-.27a1.87,1.87,0,0,0-1,.05C1488.89,166.54,1489.75,168,1490.86,168.34Z" transform="translate(-1195.57 -37.15)"/><path class="cls-9" d="M1508,191.62l-7.2-12.89a.67.67,0,0,0-1.16,0l-5.46,8.91-2.31-3.6a.67.67,0,0,0-1.17.08l-3.57,7.52-6-13.93a.67.67,0,0,0-1.24,0l-3.52,9.89v4Z" transform="translate(-1195.57 -37.15)"/><path class="cls-8" d="M1417.81,126a22.58,22.58,0,0,1-22.55-22.56h1.06a21.49,21.49,0,1,0,43,0h1.06A22.58,22.58,0,0,1,1417.81,126Z" transform="translate(-1195.57 -37.15)"/><polygon class="cls-9" points="221.93 48.67 193.49 72.23 256.2 72.23 221.93 48.67"/><g class="cls-14"><polygon class="cls-15" points="207.8 68.91 177.76 165.72 265.11 165.72 236.72 68.91 207.8 68.91"/></g><polygon class="cls-8" points="220.63 32.14 220.63 45.75 220.63 49.65 220.63 49.74 220.63 51.58 220.63 51.79 220.63 55.92 223.39 55.92 223.39 51.79 223.39 51.58 223.39 49.76 223.39 49.67 223.39 45.76 223.39 33.38 220.63 32.14"/><path class="cls-16" d="M220.65,51.79h2.72a3.27,3.27,0,0,1,3.27,3.27v6.76a0,0,0,0,1,0,0h-9.25a0,0,0,0,1,0,0V55.06A3.27,3.27,0,0,1,220.65,51.79Z"/><path class="cls-8" d="M1422.85,110.18a5.39,5.39,0,1,0-5.39,5.39A5.4,5.4,0,0,0,1422.85,110.18Z" transform="translate(-1195.57 -37.15)"/><path class="cls-12" d="M1417.53,113.56c-1.27-.23-3-1.24-3.36-2.59-.11-.48-.86-.27-.74.21.39,1.61,2.36,2.84,3.9,3.12C1417.81,114.39,1418,113.64,1417.53,113.56Z" transform="translate(-1195.57 -37.15)"/><polygon class="cls-8" points="221.93 48.67 190.58 72.23 253.29 72.23 221.93 48.67"/><rect class="cls-8" x="219.02" y="45.76" width="5.83" height="5.83" rx="1.62"/></g><path class="cls-17" d="M1533.89,125.13l0,86v20.77l0,88.67c0,7.72-7.25,14-16.11,14l-55.28-.07-21.28,0h0l-20.44,0h-2.52a11.52,11.52,0,0,1-1.18-.05,17.58,17.58,0,0,1-4.73-.95,16.73,16.73,0,0,1-3.28-1.55,17.17,17.17,0,0,1-1.56-1.07h0a15.17,15.17,0,0,1-1.47-1.3c-.14-.15-.3-.31-.44-.48s-.53-.6-.77-.91a.18.18,0,0,0,0-.07c-.13-.17-.25-.34-.37-.52s-.24-.36-.35-.53-.2-.33-.29-.5l0-.06-.27-.51,0-.05-.27-.57a12.37,12.37,0,0,1-1-4.95V297l0-16.91V260.2l0-39.07,0-37.77V159.15l0-34.15c0-7.72,7.24-14,16.1-14h9.63l43.89,0H1491l16.52,0h11.44l.37,0,.74.08c.16,0,.31,0,.47.06l.26,0,.12,0c.13,0,.26,0,.39.06a.79.79,0,0,0,.2,0l.49.12.22,0,.46.12h0c.21.05.42.12.63.19a5.66,5.66,0,0,1,.58.2.23.23,0,0,1,.1,0c.19.06.38.14.56.21h0l.61.27a16.07,16.07,0,0,1,4.29,2.83l.13.11h0l0,0A13,13,0,0,1,1533.89,125.13Z" transform="translate(-1195.57 -37.15)"/><path class="cls-18" d="M1513,334.55c7.28-1.65,12.37-7.39,12.38-14l-.06-195.46a13.44,13.44,0,0,0-4.38-9.78l0,0,0,0-.13-.11a16.26,16.26,0,0,0-4.38-2.89l-.62-.27-.2-.08-.41-.16-.15,0c-.13-.06-.34-.13-.54-.2l-.1,0-.56-.16-.5-.14-.18,0-.53-.12-.26-.05a2.5,2.5,0,0,0-.38-.06s-.06,0-.12,0l-.22,0-.5-.07-.71-.07-.44,0-.28,0h-.87l-46.11-.05-53.52,0a19.19,19.19,0,0,0-4.15.46c-7.29,1.65-12.38,7.4-12.37,14l0,58.36.08,137a12.73,12.73,0,0,0,1.07,5.11c.1.2.19.4.28.59s.21.41.3.58l0,0,.07.08a2.89,2.89,0,0,0,.24.44c.15.23.25.4.37.57l.37.52,0,0,0,0c.24.32.51.63.78.94s.31.33.46.48a15.38,15.38,0,0,0,1.39,1.25l0,.19h.2a13.33,13.33,0,0,0,1.48,1,16.77,16.77,0,0,0,3.37,1.59,18.19,18.19,0,0,0,4.83,1c.4,0,.8,0,1.2,0l23,0,21.3.05,55.28.06a18.59,18.59,0,0,0,4.15-.46Z" transform="translate(-1195.57 -37.15)"/><path class="cls-19" d="M1432.43,182.14h0l-3.73-1.23-.85,1.08h-16.63a3,3,0,0,0-3.09,3v20.24a3.87,3.87,0,0,0,.33,1.54l-1,1.23,3.63,1.21h0l.06,0h0a4,4,0,0,0,1.13.17h20.15a3,3,0,0,0,3.09-3V186.16A4.36,4.36,0,0,0,1432.43,182.14Z" transform="translate(-1195.57 -37.15)"/><path class="cls-13" d="M1429.83,208.6a3.37,3.37,0,0,0,2.65-3.37V185a4.63,4.63,0,0,0-1.41-3.22,4.71,4.71,0,0,0-3.25-1.38h-20.15a4,4,0,0,0-.85.09,3.39,3.39,0,0,0-2.66,3.38v20.24a4.58,4.58,0,0,0,1.41,3.21,4.72,4.72,0,0,0,3.25,1.39H1429a3.41,3.41,0,0,0,.85-.1Z" transform="translate(-1195.57 -37.15)"/><path class="cls-19" d="M1472.09,182.12h0l-3.73-1.24-.85,1.08h-16.64a3,3,0,0,0-3.09,3.05v20.24a3.68,3.68,0,0,0,.34,1.54l-1,1.24,3.63,1.2h0l.05,0h0a3.87,3.87,0,0,0,1.13.18h20.15a3,3,0,0,0,3.09-3.06V186.15A4.37,4.37,0,0,0,1472.09,182.12Z" transform="translate(-1195.57 -37.15)"/><path class="cls-13" d="M1469.5,208.59a3.39,3.39,0,0,0,2.65-3.38V185a4.81,4.81,0,0,0-4.66-4.6h-20.14a4.12,4.12,0,0,0-.86.09,3.38,3.38,0,0,0-2.65,3.38v20.24a4.81,4.81,0,0,0,4.66,4.6h20.14a4.12,4.12,0,0,0,.86-.09Z" transform="translate(-1195.57 -37.15)"/><path class="cls-19" d="M1511.76,182.1h0l-3.73-1.24-.84,1.09h-16.64a3,3,0,0,0-3.09,3.06v20.24a3.82,3.82,0,0,0,.33,1.53l-1,1.24,3.63,1.2,0,0,.06,0h0a3.67,3.67,0,0,0,1.14.18h20.15a3,3,0,0,0,3.08-3V186.13A4.4,4.4,0,0,0,1511.76,182.1Z" transform="translate(-1195.57 -37.15)"/><path class="cls-13" d="M1509.16,208.57a3.39,3.39,0,0,0,2.66-3.38V185a4.81,4.81,0,0,0-4.66-4.6H1487a4,4,0,0,0-.85.09,3.37,3.37,0,0,0-2.65,3.38v20.24a4.63,4.63,0,0,0,1.41,3.22,4.71,4.71,0,0,0,3.25,1.38h20.15a4,4,0,0,0,.85-.09Z" transform="translate(-1195.57 -37.15)"/><path class="cls-19" d="M1431.52,219.46h0l-3.73-1.23-.84,1.08h-16.64a3,3,0,0,0-3.09,3.05v20.24a3.91,3.91,0,0,0,.33,1.54l-1,1.23,3.63,1.21h0l.06,0h0a4,4,0,0,0,1.14.17h20.15a3,3,0,0,0,3.08-3.05V223.49A4.4,4.4,0,0,0,1431.52,219.46Z" transform="translate(-1195.57 -37.15)"/><path class="cls-13" d="M1428.92,245.93a3.38,3.38,0,0,0,2.66-3.37V222.32a4.59,4.59,0,0,0-1.41-3.22,4.69,4.69,0,0,0-3.25-1.38h-20.15a4.71,4.71,0,0,0-.85.1,3.38,3.38,0,0,0-2.65,3.38v20.24a4.83,4.83,0,0,0,4.66,4.6h20.15a3.41,3.41,0,0,0,.85-.1Z" transform="translate(-1195.57 -37.15)"/><path class="cls-19" d="M1471.19,219.45h0l-3.73-1.24-.85,1.08H1450a3,3,0,0,0-3.09,3v20.24a3.84,3.84,0,0,0,.33,1.54l-1,1.24,3.62,1.2h0l.06,0h0a4,4,0,0,0,1.13.18h20.15a3,3,0,0,0,3.09-3.06V223.48A4.38,4.38,0,0,0,1471.19,219.45Z" transform="translate(-1195.57 -37.15)"/><path class="cls-13" d="M1468.59,245.92a3.38,3.38,0,0,0,2.65-3.38V222.3a4.83,4.83,0,0,0-4.66-4.6h-20.15a4,4,0,0,0-.85.09,3.39,3.39,0,0,0-2.66,3.38v20.24a4.81,4.81,0,0,0,4.66,4.6h20.15a4,4,0,0,0,.85-.09Z" transform="translate(-1195.57 -37.15)"/><path class="cls-19" d="M1510.85,219.43h0l-3.73-1.24-.85,1.09h-16.64a3,3,0,0,0-3.09,3.06v20.24a3.67,3.67,0,0,0,.34,1.53l-1,1.24,3.63,1.2,0,0,.06,0h0a3.87,3.87,0,0,0,1.13.18H1511a3,3,0,0,0,3.09-3.05V223.46A4.37,4.37,0,0,0,1510.85,219.43Z" transform="translate(-1195.57 -37.15)"/><path class="cls-13" d="M1508.26,245.9a3.39,3.39,0,0,0,2.65-3.38V222.28a4.81,4.81,0,0,0-4.66-4.6H1486.1a4.12,4.12,0,0,0-.86.09,3.39,3.39,0,0,0-2.65,3.38V241.4a4.59,4.59,0,0,0,1.41,3.22,4.69,4.69,0,0,0,3.25,1.38h20.14a4.12,4.12,0,0,0,.86-.09Z" transform="translate(-1195.57 -37.15)"/><path class="cls-19" d="M1430.61,256.79h0l-3.73-1.23-.85,1.08H1409.4a3,3,0,0,0-3.09,3.05v20.24a3.75,3.75,0,0,0,.34,1.54l-1,1.23,3.63,1.21h0l.07,0h0a3.86,3.86,0,0,0,1.13.17h20.15a3,3,0,0,0,3.09-3.05V260.82A4.38,4.38,0,0,0,1430.61,256.79Z" transform="translate(-1195.57 -37.15)"/><path class="cls-13" d="M1428,283.26a3.38,3.38,0,0,0,2.65-3.38V259.65a4.8,4.8,0,0,0-4.66-4.6h-20.14a4.12,4.12,0,0,0-.86.1,3.39,3.39,0,0,0-2.65,3.38v20.24a4.82,4.82,0,0,0,4.66,4.6h20.14a3.55,3.55,0,0,0,.86-.1Z" transform="translate(-1195.57 -37.15)"/><path class="cls-19" d="M1470.28,256.78h0l-3.73-1.24-.84,1.08h-16.64a3,3,0,0,0-3.09,3.05v20.24a3.84,3.84,0,0,0,.33,1.54l-1,1.24,3.63,1.2h0l.06,0h0a4,4,0,0,0,1.14.17h20.15a3,3,0,0,0,3.08-3.06V260.8A4.38,4.38,0,0,0,1470.28,256.78Z" transform="translate(-1195.57 -37.15)"/><path class="cls-13" d="M1467.68,283.25a3.39,3.39,0,0,0,2.66-3.38V259.63a4.81,4.81,0,0,0-4.66-4.6h-20.15a4,4,0,0,0-.85.09,3.38,3.38,0,0,0-2.65,3.38v20.24a4.59,4.59,0,0,0,1.41,3.21,4.72,4.72,0,0,0,3.25,1.39h20.15a4,4,0,0,0,.85-.09Z" transform="translate(-1195.57 -37.15)"/><path class="cls-19" d="M1429.71,294.12h0l-3.73-1.23-.85,1.08H1408.5a3,3,0,0,0-3.09,3v20.24a3.91,3.91,0,0,0,.33,1.54l-1,1.23,3.62,1.21h0l.06,0h0a4,4,0,0,0,1.13.17h20.15a3,3,0,0,0,3.09-3.05V298.15A4.39,4.39,0,0,0,1429.71,294.12Z" transform="translate(-1195.57 -37.15)"/><path class="cls-13" d="M1427.11,320.59a3.36,3.36,0,0,0,2.65-3.38V297a4.82,4.82,0,0,0-4.66-4.6H1405a4,4,0,0,0-.85.1,3.39,3.39,0,0,0-2.66,3.38v20.23a4.63,4.63,0,0,0,1.41,3.22,4.72,4.72,0,0,0,3.25,1.39h20.15a3.47,3.47,0,0,0,.85-.1Z" transform="translate(-1195.57 -37.15)"/><path class="cls-19" d="M1469.37,294.11h0l-3.73-1.24-.85,1.08h-16.64a3,3,0,0,0-3.09,3.05v20.24a3.68,3.68,0,0,0,.34,1.54l-1,1.24,3.63,1.2h0l.06,0h0a3.86,3.86,0,0,0,1.13.17h20.15a3,3,0,0,0,3.09-3.06V298.13A4.37,4.37,0,0,0,1469.37,294.11Z" transform="translate(-1195.57 -37.15)"/><path class="cls-13" d="M1466.78,320.58a3.39,3.39,0,0,0,2.65-3.38V297a4.81,4.81,0,0,0-4.65-4.6h-20.15a4,4,0,0,0-.86.09,3.39,3.39,0,0,0-2.65,3.38v20.24a4.55,4.55,0,0,0,1.41,3.21,4.7,4.7,0,0,0,3.24,1.39h20.15a4.12,4.12,0,0,0,.86-.09Z" transform="translate(-1195.57 -37.15)"/><path class="cls-20" d="M1509,256.85h0l-3.73-1.23-.84,1.08h-16.64a3,3,0,0,0-3.09,3.05l.1,57.48a3.82,3.82,0,0,0,.33,1.53l-1,1.24,3.63,1.2,0,0,.06,0h0a4,4,0,0,0,1.14.18h20.15a3,3,0,0,0,3.09-3.05l-.1-57.48A4.41,4.41,0,0,0,1509,256.85Z" transform="translate(-1195.57 -37.15)"/><path class="cls-21" d="M1506.44,320.56a3.39,3.39,0,0,0,2.66-3.38l-.1-57.47a4.63,4.63,0,0,0-1.41-3.22,4.72,4.72,0,0,0-3.25-1.39h-20.15a4,4,0,0,0-.85.1,3.39,3.39,0,0,0-2.66,3.38l.1,57.47a4.63,4.63,0,0,0,1.41,3.22,4.71,4.71,0,0,0,3.25,1.38h20.15A4,4,0,0,0,1506.44,320.56Z" transform="translate(-1195.57 -37.15)"/><path class="cls-22" d="M1510.34,166.77l-102.1,0a3.67,3.67,0,0,1-3.67-3.67v-24.7a3.67,3.67,0,0,1,3.67-3.67l102.1,0a3.66,3.66,0,0,1,3.66,3.66v24.71A3.66,3.66,0,0,1,1510.34,166.77Z" transform="translate(-1195.57 -37.15)"/><path class="cls-23" d="M1408.23,134.78h3.93a3.66,3.66,0,0,0-3.66,3.66v24.71a3.67,3.67,0,0,0,3.67,3.67h-3.94a3.67,3.67,0,0,1-3.67-3.67v-24.7A3.67,3.67,0,0,1,1408.23,134.78Z" transform="translate(-1195.57 -37.15)"/><polygon class="cls-24" points="301.82 113.47 304.09 111.55 304.09 103.6 301.82 101.68 301.82 113.47"/><polygon class="cls-24" points="301.81 125.26 304.08 123.34 304.09 115.39 301.82 113.47 301.81 125.26"/><polygon class="cls-24" points="312.08 113.47 309.81 111.55 309.81 103.6 312.08 101.68 312.08 113.47"/><polygon class="cls-24" points="311.67 101 309.75 103.26 304.09 103.26 302.17 100.99 311.67 101"/><polygon class="cls-24" points="311.66 126.07 309.74 123.8 304.08 123.8 302.16 126.07 311.66 126.07"/><polygon class="cls-24" points="312.07 125.26 309.81 123.34 309.81 115.39 312.08 113.47 312.07 125.26"/><polygon class="cls-24" points="288.99 113.46 291.26 111.54 291.26 103.59 289 101.67 288.99 113.46"/><polygon class="cls-24" points="288.99 125.25 291.26 123.33 291.26 115.39 288.99 113.46 288.99 125.25"/><polygon class="cls-24" points="299.25 113.47 296.99 111.54 296.99 103.6 299.26 101.68 299.25 113.47"/><polygon class="cls-24" points="298.85 100.99 296.93 103.26 291.27 103.26 289.35 100.99 298.85 100.99"/><polygon class="cls-24" points="298.84 126.07 296.92 123.8 291.26 123.8 289.33 126.06 298.84 126.07"/><polygon class="cls-24" points="299.25 125.26 296.98 123.33 296.98 115.39 299.25 113.47 299.25 125.26"/><polygon class="cls-24" points="276.17 113.46 278.44 111.53 278.44 103.59 276.17 101.67 276.17 113.46"/><polygon class="cls-24" points="276.16 125.25 278.43 123.33 278.43 115.38 276.17 113.46 276.16 125.25"/><polygon class="cls-24" points="286.43 113.46 284.16 111.54 284.16 103.59 286.43 101.67 286.43 113.46"/><polygon class="cls-24" points="286.02 100.99 284.1 103.25 278.44 103.25 276.52 100.98 286.02 100.99"/><polygon class="cls-24" points="286.01 126.06 284.09 123.79 278.43 123.79 276.51 126.06 286.01 126.06"/><polygon class="cls-24" points="286.42 125.25 284.15 123.33 284.16 115.38 286.43 113.46 286.42 125.25"/><polygon class="cls-24" points="263.34 113.45 265.61 111.53 265.61 103.58 263.35 101.66 263.34 113.45"/><polygon class="cls-24" points="263.34 125.24 265.61 123.32 265.61 115.37 263.34 113.45 263.34 125.24"/><polygon class="cls-24" points="273.6 113.45 271.33 111.53 271.34 103.59 273.61 101.67 273.6 113.45"/><polygon class="cls-24" points="273.19 100.98 271.27 103.25 265.61 103.25 263.69 100.98 273.19 100.98"/><polygon class="cls-24" points="273.19 126.06 271.26 123.79 265.61 123.78 263.68 126.05 273.19 126.06"/><polygon class="cls-24" points="273.6 125.25 271.33 123.32 271.33 115.38 273.6 113.45 273.6 125.25"/><polygon class="cls-24" points="260.77 113.45 258.51 111.53 258.51 103.58 260.78 101.66 260.77 113.45"/><polygon class="cls-24" points="260.77 125.24 258.5 123.32 258.51 115.37 260.77 113.45 260.77 125.24"/><path class="cls-25" d="M1401.63,182.65c13,.25,26.34-9.17,35.76-19.46l-4.55-4.75s-23,9.25-31.95,6.07c-2.71-1-9-4.83-12-9-5.65-8-12.35-20.69-21.53-18.19C1340.14,144.72,1383.09,182.29,1401.63,182.65Z" transform="translate(-1195.57 -37.15)"/><path class="cls-26" d="M1396.64,168c8.13,1.9,13.72-2.59,13.77-3.17-11.78,2.3-17.75-5.59-21.5-9.3a78.12,78.12,0,0,1-5.32-7.48l-10.31,1.63S1386,165.47,1396.64,168Z" transform="translate(-1195.57 -37.15)"/><path class="cls-27" d="M1342.87,300s23.63,8.07,39.35,0C1382.22,300,1362.77,283.12,1342.87,300Z" transform="translate(-1195.57 -37.15)"/><path class="cls-25" d="M1380.36,198.78a500.55,500.55,0,0,1-6,67.18c-4.21,26.09-13.82,61.91-13.82,61.91l-4.23,1.24s-4.51-43-6-65.09c-1.43-21.07-7.43-61.33-7.43-61.33Z" transform="translate(-1195.57 -37.15)"/><path class="cls-26" d="M1366.73,196.26s-.64,17.5-3.5,47.17c-3,30.9-9.65,67.09-9.65,67.09s-2.43-37.88-3.92-54.26c-1.24-13.64-6.79-53.57-6.79-53.57Z" transform="translate(-1195.57 -37.15)"/><path class="cls-28" d="M1360.87,326.35s16.77,0,20.05,8.55h-19.13l-2.28-1.9-1.4,1.9h-4.55s-2.23-6,2.52-8.3C1356.08,326.6,1358,328.25,1360.87,326.35Z" transform="translate(-1195.57 -37.15)"/><path class="cls-28" d="M1375.42,182.65s13.7,21.64,6.8,117.39c0,0-28-4.64-39.35,0,0,0,10-54.55-1.82-106.69Z" transform="translate(-1195.57 -37.15)"/><path class="cls-27" d="M1345.54,278.45s2.72-37.39,0-59.92V198.78l3.74-7.91S1366.49,241.62,1345.54,278.45Z" transform="translate(-1195.57 -37.15)"/><path class="cls-27" d="M1301.75,300.3s19.65,7.81,35.37-.26C1337.12,300,1321.66,283.39,1301.75,300.3Z" transform="translate(-1195.57 -37.15)"/><path class="cls-25" d="M1317.21,198.78s-4.38,25.53-6.8,61.31C1309.05,280.32,1315,328,1315,328l4,1.08,35.74-126.42Z" transform="translate(-1195.57 -37.15)"/><path class="cls-28" d="M1314.88,326.35s-16.76,0-20,8.55H1313l2.52-1.9,2,1.9h4.67s2.24-6-2.51-8.3C1319.68,326.6,1317.75,328.25,1314.88,326.35Z" transform="translate(-1195.57 -37.15)"/><path class="cls-28" d="M1321.62,192.85s-11.45,11.87-19.87,107.45c0,0,19.79-10.7,35.42-.26,0,0,1.17-50,19.65-99.89Z" transform="translate(-1195.57 -37.15)"/><path class="cls-24" d="M1307.89,131.9c3.84,6.62,15,8.48,18.78,6.62,2.1-1,2.92-2.63,3.71-4.66s-.54-5.48,0-9.42c.12-.87,1.56-2,2.37-2.37a7,7,0,0,0,1.4-.93,7,7,0,0,0,2.32-5.29c0-7.4,4.53-7.27,5.36-7.93,2.37-1.87,4.13-5.86,3.17-8.85a.93.93,0,0,0-.1-.37c-.06-.12-.12-.25-.19-.37s2.84-.58,2.77-.68c-1.62-2.83-8.14-6.06-11.58-4.3-2.17,1.1-1.63,3-2.31,5-2.43,6.86-5.8,3.35-10,5.78a5.43,5.43,0,0,0-2.62,4.22c-.17,1.15.33,2.36.16,3.46-.73,4.72-4.51,3.87-7.81,5.86C1309.37,120,1305.22,127.29,1307.89,131.9Z" transform="translate(-1195.57 -37.15)"/><path class="cls-21" d="M1365.09,129.84s-7.25,14.82,2.84,29l5,12.56s17.1-12.56,18.94-21.62C1391.88,149.74,1382.91,137.63,1365.09,129.84Z" transform="translate(-1195.57 -37.15)"/><path class="cls-20" d="M1378.62,166.75l-5.68,4.61-7.85-41.52s5.36,2.52,9.46,5C1378.46,143.41,1382,152,1378.62,166.75Z" transform="translate(-1195.57 -37.15)"/><path class="cls-21" d="M1380.36,198.78s-17.28,15.51-64.26,7.13c0,0-3.69-85,39.76-79.08C1387.6,131.19,1365.35,169,1380.36,198.78Z" transform="translate(-1195.57 -37.15)"/><path class="cls-26" d="M1360.09,127.69a13.24,13.24,0,0,1-1.81,7.32,31.69,31.69,0,0,0-9.63-8.33,17.38,17.38,0,0,0,.16-9.61l9.24,2.25S1356.77,123.29,1360.09,127.69Z" transform="translate(-1195.57 -37.15)"/><path class="cls-25" d="M1353,98.51c-4.79.64-7.93,6.6-7,13.3s5.51,11.61,10.29,11,7.93-6.6,7-13.3S1357.8,97.87,1353,98.51Z" transform="translate(-1195.57 -37.15)"/><path class="cls-25" d="M1360.93,108.92a41.51,41.51,0,0,1,3.66,6.63.64.64,0,0,1-.48.83,19.06,19.06,0,0,1-4.42.51C1358.38,116.69,1360.93,108.92,1360.93,108.92Z" transform="translate(-1195.57 -37.15)"/><path class="cls-29" d="M1361.36,103.76a16.52,16.52,0,0,1,1.43,3.24,7.94,7.94,0,0,1-6.17-1.69c-4.45-3.48-9.52-.43-9.52-.43L1348,101l12.7-1.76Z" transform="translate(-1195.57 -37.15)"/><path class="cls-20" d="M1316.1,205.91s-.07-36.95,7.55-54.71l17.4,3s-.77,6.92-14.3,23.46c-5.4,6.6.88,28.27.88,28.27Z" transform="translate(-1195.57 -37.15)"/><path class="cls-25" d="M1294,174.87c2.16,11.71,38.42,21.39,50.2,23.66l1-7s-7.94-5.55-13.48-8.64h0c-6.23-3.48-13.26-8.1-15-12-1.1-2.51,1.75-4.95,5.83-7.64,7.79-5.11,20.07-11.09,18-19.9C1334.39,117.23,1290.83,157.51,1294,174.87Z" transform="translate(-1195.57 -37.15)"/><path class="cls-26" d="M1311.87,170.46c1.05,8.78,19.3,12.34,19.85,12.41-6.23-3.48-13.26-8.1-15-12-1.1-2.51,1.75-4.95,5.83-7.64a73.42,73.42,0,0,1,7.28-4.81l-1.22-9.87S1310.63,160.1,1311.87,170.46Z" transform="translate(-1195.57 -37.15)"/><path class="cls-24" d="M1347.7,107.2a3.07,3.07,0,0,0,3.07-2.12c1-2.34,4.09-1.91,6.27-.52s4.37,2.34,7,1.09c2.05-1,4.71-4.73,1.31-7.75-3.09-2.74-5.23.4-6.53-1.34s-4.7-3.53-6.62-1.61-6.39.32-8.41,1c-3.75,1.17-4.32,8.6-4.51,10-.87,6.25,2.07,11.54,5.44,11.74C1350.15,117.94,1346.12,109.85,1347.7,107.2Z" transform="translate(-1195.57 -37.15)"/><path class="cls-25" d="M1348.59,109.61s-1.63-2.09-3.13-.65.19,6.54,2.67,5.1S1348.59,109.61,1348.59,109.61Z" transform="translate(-1195.57 -37.15)"/><path class="cls-21" d="M1339.7,129.48s11.9,22.71-8,34.39c0,0-18.74-9.59-22.86-18.72C1308.86,145.15,1321.12,131.35,1339.7,129.48Z" transform="translate(-1195.57 -37.15)"/><path class="cls-13" d="M1360.09,127.69s-.22,4.9-1.81,7.32a28.67,28.67,0,0,1,2.56,2.51c.64-6.49,0-9.6,0-9.6Z" transform="translate(-1195.57 -37.15)"/><path class="cls-13" d="M1348.65,126.68s8,4.75,9.63,8.33l-1.29,3.44-8.79-11.71Z" transform="translate(-1195.57 -37.15)"/><path class="cls-13" d="M1331.82,212.77s26.1-22.59,30.7-35.84c0,0,12.85,3.71,20.52,26.43,0,0-10.75,24.8-34.33,33.59C1348.71,237,1341,216.57,1331.82,212.77Z" transform="translate(-1195.57 -37.15)"/><path class="cls-19" d="M1356.11,225.9a15.37,15.37,0,0,0-1.74-1.15l-.78-.2c-.4,0-.53-.28-.39-.78-.56-.7-.64-1.31-1.19-1.81a12.15,12.15,0,0,0-1.2-4.72c-1-2.46-1.62-3.67-3.88-4.4-.14-2.86-1.67-4.42-4.86-3.34-1.21.41-.44,2.24.77,1.83l2.14,2.12a1,1,0,0,0,.85,1.12c1.94.46,3,2.93,3.47,4.58a14.35,14.35,0,0,1,.66,3.14,1,1,0,0,0,.6,1.05c.89.42.59,2.06,1.32,2.66,1,.79,2,.45,3,1.47S1357,226.78,1356.11,225.9Z" transform="translate(-1195.57 -37.15)"/><path class="cls-19" d="M1357.6,210.37a6,6,0,0,0-1.14-1c-.44-.27-1-.33-1.43-.6s-.65-.87-1-1.36-.82-.77-1.11-1.21c-.57-.86-.37-2-1.2-2.77a1.4,1.4,0,0,0-1.93-.16,1,1,0,0,0,.6,1.74c.41.42.37,1.55.62,2,.35.64,1,1,1.45,1.62a5.23,5.23,0,0,0,1.15,1.64c.78.58,1.69.55,2.41,1.31C1356.9,212.51,1358.48,211.3,1357.6,210.37Z" transform="translate(-1195.57 -37.15)"/><path class="cls-19" d="M1365.53,219.36a8.12,8.12,0,0,0-1.76-1.8,1.34,1.34,0,0,1-.63-.93,5,5,0,0,0-.3-1,3.12,3.12,0,0,0-3.25-1.63,1,1,0,0,0,.26,2c1.45-.21,1.23,1.37,1.76,2.23s1.7,1.43,2.35,2.37S1366.26,220.41,1365.53,219.36Z" transform="translate(-1195.57 -37.15)"/><path class="cls-19" d="M1371.09,212.1a10,10,0,0,0-1.19-1.89,5.05,5.05,0,0,1-1.78-2.17,5.46,5.46,0,0,0-.21-1.14,10.62,10.62,0,0,0-2.89-3.67,16.9,16.9,0,0,1-4.15-5.19c-.84-1.62-1.1-2.88-3-3.42-1.22-.34-2,1.49-.77,1.83,1,.29,3.56,4.85,4.3,6a8.69,8.69,0,0,0,2.05,2.48,7.34,7.34,0,0,1,2.75,3.42c.26.71.16,1.24.61,1.88.79,1.11,1.83,1.21,2.5,2.69C1369.78,214,1371.62,213.27,1371.09,212.1Z" transform="translate(-1195.57 -37.15)"/><path class="cls-19" d="M1368.33,191.72a7.43,7.43,0,0,1-.93-1.68,4.55,4.55,0,0,0-3-2.2c-1.24-.34-1.49,1.64-.28,2a2.62,2.62,0,0,1,1.75,1.79,3.75,3.75,0,0,0,.52,1c.22.28.77.62.84,1,.24,1.25,2.21,1,2-.26A2.87,2.87,0,0,0,1368.33,191.72Z" transform="translate(-1195.57 -37.15)"/><path class="cls-19" d="M1377,205.07a8.41,8.41,0,0,0-1.31-2.43c-.51-.65-1.32-1.06-1.81-1.68-.36-.45-.33-1.2-.68-1.74s-1.08-1.09-1.52-1.74c-.7-1.06-2.27.16-1.57,1.22.36.53,1,.91,1.3,1.44s.21,1.26.64,1.84a11,11,0,0,0,1.46,1.24,6.48,6.48,0,0,1,1.66,2.63C1375.63,207.05,1377.46,206.28,1377,205.07Z" transform="translate(-1195.57 -37.15)"/><path class="cls-25" d="M1435.73,147.93c.85-.9,4-2.16,5.83-2.64.84-.23,1.73,1.43.76,2.21-1.34,1.07-3,1.89-4.22,3.09a5.76,5.76,0,0,0-1.38,2.41,2.34,2.34,0,0,1,1.15-.49c1.24-.14,1.6.63,1.62,1.55a2.08,2.08,0,0,1,2.32.16,1.78,1.78,0,0,1,.63,1.91,2.5,2.5,0,0,1,1.43,2.66,5.94,5.94,0,0,1-3,4.25l0,0a.67.67,0,0,0-.12.06,6,6,0,0,1-.63.28c-3.05,1.25-7.38-.09-8.72-3.13C1429.53,156,1433,150.84,1435.73,147.93Z" transform="translate(-1195.57 -37.15)"/><path class="cls-25" d="M1340.12,195.74c.35,1.53,1.71,1.38,3,2.2,1.52,1,5.49,7.28,7.5,6.9,2.76-.53-2.92-4.35-1.28-4.66.59-.12,5.35,6.4,6.06,4,.3-1-3.31-5.91-1.65-5.41,1.5,1.28,4.56,5.92,5.81,4.71.59-.56-1.13-3.9-2-4.82-2.92-3.17-1.39-3.58,1.57-.73,1.54,1.48,2.91,1.09,2-.93-1.85-4.2-8.42-5.93-12.72-6.54C1346.58,190.21,1339.36,192.32,1340.12,195.74Z" transform="translate(-1195.57 -37.15)"/><path class="cls-25" d="M1344.71,191.63c-.86.75.14,2,1,1.63a6,6,0,0,0,3.46-1c.59-.43,1.08-1,1.71-1.38a6.23,6.23,0,0,1,3.06-.67c.67,0,1.4-.76.93-1.46C1352.81,185.63,1346.56,190,1344.71,191.63Z" transform="translate(-1195.57 -37.15)"/><path class="cls-30" d="M1543.26,299.53v0c-.34-7.64-.33-17.23,0-28,1.51,0,2-2.36.35-2.56l-.28,0c.15-5.51.38-11.31.65-17.28h.09c1.59-.19,1.5-2.58,0-2.6.23-5,.5-10.07.8-15.21l.15,0c1.62.06,1.49-2.35,0-2.58.32-5.58.68-11.21,1-16.81,1.21-.25,1.49-2.17.17-2.5.32-4.75.65-9.47,1-14.11,1.52,0,1.48-2.19.18-2.55.44-5.9.89-11.68,1.33-17.23,1.49,0,1.46-2.15.19-2.53.46-5.63.91-11,1.33-16a.7.7,0,0,0,.14,0c1.66.3,2.18-2.26.53-2.55l-.45-.08c.52-6.05,1-11.54,1.42-16.27,1.52,0,2-2.4.35-2.55l-.11,0c.65-7.2,1.13-12.31,1.34-14.48a1.47,1.47,0,0,0,.66-1.24,1.34,1.34,0,0,0-1.38-1.21,21.38,21.38,0,0,0-2.4,0h0a21,21,0,0,0-2.38.19,1.37,1.37,0,0,0-.62,2.44c-.23,2.52-.69,7.36-1.29,14-.93.43-1.14,1.9-.2,2.31-.43,4.78-.92,10.32-1.45,16.44-.91.3-.92,1.64-.19,2.24-.43,5.15-.88,10.65-1.35,16.43a1.31,1.31,0,0,0-.19,2.46c-.45,5.72-.91,11.67-1.36,17.75-1.17.23-1.17,1.93-.17,2.43q-.51,6.78-1,13.72c-1.12.23-1.11,1.85-.16,2.39-.37,5.6-.72,11.22-1.06,16.81a1.32,1.32,0,0,0-.14,2.49c-.31,5.45-.59,10.86-.84,16.13-1.23.17-1.2,2-.12,2.45-.25,5.7-.47,11.24-.62,16.52-1.31.24-1.61,2.35-.1,2.54h0c-.29,11.13-.31,21.09,0,29Z" transform="translate(-1195.57 -37.15)"/><path class="cls-31" d="M1538.78,299.7l4.48-.2c-.34-7.64-.33-17.23,0-28,1.51,0,2-2.36.35-2.56l-.28,0c.15-5.51.38-11.31.65-17.28h.09c1.59-.19,1.5-2.58,0-2.6.23-5,.5-10.07.8-15.21l.15,0c1.62.06,1.49-2.35,0-2.58.32-5.58.68-11.21,1-16.81,1.21-.25,1.49-2.17.17-2.5.32-4.75.65-9.47,1-14.11,1.52,0,1.48-2.19.18-2.55.44-5.9.89-11.68,1.33-17.23,1.49,0,1.46-2.15.19-2.53.46-5.63.91-11,1.33-16a.7.7,0,0,0,.14,0c1.66.3,2.18-2.26.53-2.55l-.45-.08c.52-6.05,1-11.54,1.42-16.27,1.52,0,2-2.4.35-2.55l-.11,0c.65-7.2,1.13-12.31,1.34-14.48a1.47,1.47,0,0,0,.66-1.24,1.34,1.34,0,0,0-1.38-1.21,21.38,21.38,0,0,0-2.4,0h0c-.27,0-.53.05-.79.08a1.37,1.37,0,0,0-.62,2.45c-.24,2.51-.7,7.35-1.29,13.94-.94.44-1.15,1.9-.21,2.32-.43,4.77-.92,10.31-1.44,16.43a1.32,1.32,0,0,0-.19,2.24c-.43,5.15-.89,10.66-1.35,16.44a1.31,1.31,0,0,0-.2,2.46c-.45,5.71-.91,11.66-1.36,17.75-1.18.22-1.17,1.92-.18,2.42q-.48,6.78-1,13.72c-1.13.23-1.12,1.86-.17,2.39-.37,5.6-.73,11.23-1,16.81a1.32,1.32,0,0,0-.15,2.49c-.31,5.46-.6,10.86-.84,16.14-1.22.16-1.19,1.95-.11,2.45-.26,5.69-.47,11.23-.62,16.52-1.32.23-1.62,2.35-.1,2.53h0C1538.44,281.85,1538.41,291.81,1538.78,299.7Z" transform="translate(-1195.57 -37.15)"/><path class="cls-30" d="M1529.3,283.62c.2,10.65.31,17.59.32,17.85l6.07-.08v-.12c0-1.37-.12-8-.31-17.7l.32,0c1.65-.26,1.48-2.86-.17-2.6l-.2,0c-.1-4.64-.2-9.88-.33-15.5,1.21-.47,1.12-2.39-.07-2.53-.11-4.85-.25-10-.39-15.23l.5-.08c1.65-.25,1.48-2.85-.17-2.59l-.4.06c-.13-4.41-.26-8.9-.4-13.39l.47-.12c1.51-.45.85-2.63-.56-2.52-.19-5.56-.39-11.1-.61-16.49l.12,0c1.4-.38,1-2.24-.22-2.48-.24-5.8-.51-11.4-.79-16.63a1.33,1.33,0,0,0-.14-2.48c-.51-8.9-1.08-16.57-1.72-22.1a1.35,1.35,0,0,0,.12-2.12,1.12,1.12,0,0,0-1.24-.21,20,20,0,0,1-4.57,1.18,1.33,1.33,0,0,0-.26,2.58c.6,5.48,1.15,13,1.63,21.74a1.34,1.34,0,0,0,.14,2.42c.27,5.14.53,10.65.76,16.36h0c-1.67,0-1.49,2.58.16,2.6.22,5.46.42,11.07.6,16.69a1.4,1.4,0,0,0,.07,2.09c.15,4.65.29,9.32.42,13.88-1.28.42-1.19,2.44.08,2.55.13,5.16.27,10.2.38,15a1.3,1.3,0,0,0,.06,2.58c.12,5.42.23,10.45.32,14.93-1.21.33-1.45,2.34,0,2.52Z" transform="translate(-1195.57 -37.15)"/><path class="cls-31" d="M1531.56,283.46c.21,10.66.31,17.6.32,17.86l3.81-.05c0-1.37-.12-8-.31-17.7l.32,0c1.65-.26,1.48-2.86-.17-2.6l-.2,0c-.1-4.64-.2-9.88-.33-15.5,1.21-.47,1.12-2.39-.07-2.53-.11-4.85-.25-10-.39-15.23l.5-.08c1.65-.25,1.48-2.85-.17-2.59l-.4.06c-.13-4.41-.26-8.9-.4-13.39l.47-.12c1.51-.45.85-2.63-.56-2.52-.19-5.56-.39-11.1-.61-16.49l.12,0c1.4-.38,1-2.24-.22-2.48-.24-5.8-.51-11.4-.79-16.63a1.33,1.33,0,0,0-.14-2.48c-.51-8.9-1.08-16.57-1.72-22.1a1.35,1.35,0,0,0,.12-2.12,19.36,19.36,0,0,1-3.54.82,1.33,1.33,0,0,0-.27,2.58c.61,5.48,1.15,13,1.64,21.74a1.34,1.34,0,0,0,.13,2.42c.27,5.14.53,10.65.77,16.36h0c-1.67,0-1.49,2.57.15,2.6.22,5.46.43,11.06.61,16.69a1.39,1.39,0,0,0,.07,2.09c.14,4.65.29,9.32.41,13.88-1.27.42-1.18,2.43.08,2.55.14,5.16.27,10.2.38,15a1.3,1.3,0,0,0,.06,2.58c.13,5.42.24,10.45.33,14.93-1.22.33-1.46,2.34,0,2.52Z" transform="translate(-1195.57 -37.15)"/><path class="cls-30" d="M1544.51,299.22l6.06.28a1.77,1.77,0,0,0,0-.23q.47-9.93,1.38-19c1.61.2,2.09-2.29.47-2.55l-.21,0q.78-7.38,1.78-14.17l.27.06a1.31,1.31,0,0,0,.52-2.56l-.39-.08q1-6.79,2.24-13l.49.07c1.66.2,2.18-2.36.52-2.56l-.5-.06c1-4.86,2-9.4,3.06-13.61l.2.06c1.6.53,2.1-2,.52-2.55l-.09,0c1.33-5.17,2.67-9.79,4-13.87,1.47.43,2.52-1.76,1-2.38l-.23-.1a179.35,179.35,0,0,1,6.67-17.71,1.24,1.24,0,0,0,1.27-.69,1.33,1.33,0,0,0-.59-1.75l-3.9-1.42-.49-.18a1.32,1.32,0,0,0-1.74.59,1.43,1.43,0,0,0-.09.92,176.63,176.63,0,0,0-6.94,18.2,1.33,1.33,0,0,0-.67,2.09c-1.34,4.23-2.75,9-4.14,14.43-1.07,0-1.43,1.59-.59,2.34-1.16,4.65-2.3,9.68-3.39,15.13a1.38,1.38,0,0,0-.41,2.16c-.77,4-1.5,8.23-2.18,12.66a1.33,1.33,0,0,0-.38,2.48q-1,7-1.84,14.71a1.34,1.34,0,0,0-.23,2.3C1545.32,285.54,1544.82,292.23,1544.51,299.22Z" transform="translate(-1195.57 -37.15)"/><path class="cls-31" d="M1546.56,299.09l4,.18q.47-9.93,1.38-19c1.61.2,2.09-2.29.47-2.55l-.21,0q.78-7.38,1.78-14.17l.27.06a1.31,1.31,0,0,0,.52-2.56l-.39-.08q1-6.79,2.24-13l.49.07c1.66.2,2.18-2.36.52-2.56l-.5-.06c1-4.86,2-9.4,3.06-13.61l.2.06c1.6.53,2.1-2,.52-2.55l-.09,0c1.33-5.17,2.67-9.79,4-13.87,1.47.43,2.52-1.76,1-2.38l-.23-.1a179.35,179.35,0,0,1,6.67-17.71,1.24,1.24,0,0,0,1.27-.69,1.33,1.33,0,0,0-.59-1.75l-3.9-1.42a1.27,1.27,0,0,0-.18.27,1.37,1.37,0,0,0-.07.92,171.53,171.53,0,0,0-7,18.21,1.33,1.33,0,0,0-.67,2.09c-1.35,4.22-2.75,9-4.14,14.43-1.08,0-1.44,1.59-.59,2.33q-1.76,7-3.39,15.13a1.37,1.37,0,0,0-.41,2.16q-1.17,6-2.19,12.66a1.32,1.32,0,0,0-.37,2.48c-.68,4.69-1.3,9.59-1.83,14.71a1.33,1.33,0,0,0-.24,2.3Q1547.05,288.58,1546.56,299.09Z" transform="translate(-1195.57 -37.15)"/><path class="cls-30" d="M1549.46,253.79a.36.36,0,0,1,.18-.29A198.1,198.1,0,0,1,1564,178.57c.21-.52,1-.13.78.39a196.92,196.92,0,0,0-14.28,74.9.44.44,0,0,1-.21.38q-1.92,19.92-3.19,39.89c0,.55-.9.61-.86.06Q1547.52,274,1549.46,253.79Z" transform="translate(-1195.57 -37.15)"/><path class="cls-30" d="M1540.29,164.11q.59-17.72,1.3-35.43c0-.56.88-.62.86-.06q-2.51,62.2-3.26,124.48-.23,17.72-.29,35.45c0,.56-.87.62-.86.06Q1538.28,226.34,1540.29,164.11Z" transform="translate(-1195.57 -37.15)"/><path class="cls-30" d="M1528.27,251.2a135.53,135.53,0,0,0-2.46-23.07,194.55,194.55,0,0,1-2.83-23.69q-.92-13.47-1.82-26.94a.44.44,0,0,1,.87-.06q.81,12,1.61,23.95a210.72,210.72,0,0,0,2.42,23.38c1.39,7.71,2.75,15.23,3,23.08s.29,15.87.42,23.8q.23,13.55.44,27.09c0,.56-.86.62-.87.06C1528.79,282.93,1528.59,267.07,1528.27,251.2Z" transform="translate(-1195.57 -37.15)"/><path class="cls-30" d="M1510.19,241.86a62.22,62.22,0,0,0,13.2-3,20.7,20.7,0,0,0-5.1,14.07.35.35,0,0,0,.6.2c3.45-3.22,7-7.33,6.91-12.13a11.55,11.55,0,0,0,4,2.69,66.1,66.1,0,0,0,10.76,3.8.34.34,0,0,0,.35-.52c-3.47-4.7-7.62-9.58-13.62-10.59-.65-6.1-6.31-9.18-11.28-11.56a.34.34,0,0,0-.49.32c.17,4.79,3.58,8.09,7.09,10.9a14.48,14.48,0,0,0-12.74,5.27A.34.34,0,0,0,1510.19,241.86Z" transform="translate(-1195.57 -37.15)"/><path class="cls-30" d="M1548,194.21a62.27,62.27,0,0,0-2.09-13.38,20.67,20.67,0,0,0,13.68,6.06.35.35,0,0,0,.25-.58c-3-3.67-6.83-7.5-11.63-7.74a11.34,11.34,0,0,0,3-3.84,66.56,66.56,0,0,0,4.55-10.47.35.35,0,0,0-.5-.39c-4.93,3.14-10.09,6.94-11.51,12.85-6.13.23-9.59,5.66-12.32,10.46a.34.34,0,0,0,.29.51c4.79.16,8.31-3,11.37-6.32a14.51,14.51,0,0,0,4.36,13.08A.35.35,0,0,0,1548,194.21Z" transform="translate(-1195.57 -37.15)"/><path class="cls-31" d="M1530.22,195.08a35.15,35.15,0,0,0-6.2,4.33,11.55,11.55,0,0,0-.32-8.36c-.07-.16-.29-.11-.35,0-1.11,2.4-2.09,5.27-1,7.74a6.46,6.46,0,0,0-2.66-.54,36.64,36.64,0,0,0-6.37.28.19.19,0,0,0-.07.35c2.78,1.71,6,3.36,9.28,2.62,1.61,3,5.19,3.43,8.27,3.63a.2.2,0,0,0,.19-.28c-1.1-2.44-3.56-3.43-6-4.15a8.13,8.13,0,0,0,5.5-5.41A.2.2,0,0,0,1530.22,195.08Z" transform="translate(-1195.57 -37.15)"/><path class="cls-30" d="M1557.86,281.28a62.87,62.87,0,0,0-2.89-13.23,20.69,20.69,0,0,0,14,5.22c.32,0,.39-.39.21-.59-3.2-3.49-7.27-7.08-12.08-7a11.47,11.47,0,0,0,2.73-4,67,67,0,0,0,3.9-10.72.34.34,0,0,0-.52-.36c-4.74,3.43-9.65,7.54-10.71,13.53-6.1.59-9.23,6.23-11.66,11.18a.34.34,0,0,0,.32.49c4.79-.13,8.11-3.51,11-7a14.51,14.51,0,0,0,5.15,12.79A.35.35,0,0,0,1557.86,281.28Z" transform="translate(-1195.57 -37.15)"/><path class="cls-30" d="M1549.3,139.13a10.39,10.39,0,0,1-2-.2l0-.14a10.43,10.43,0,0,0,3.49.09l0,.15A10.66,10.66,0,0,1,1549.3,139.13Z" transform="translate(-1195.57 -37.15)"/><path class="cls-30" d="M1547.59,158a3.55,3.55,0,0,1-2.38-.6l.11-.09c.83.88,3.94.43,4,.43l0,.14A13.35,13.35,0,0,1,1547.59,158Z" transform="translate(-1195.57 -37.15)"/><path class="cls-30" d="M1548.2,176.68a18.08,18.08,0,0,1-4.09-.44l0-.14a18.82,18.82,0,0,0,4.41.43v.14Z" transform="translate(-1195.57 -37.15)"/><path class="cls-30" d="M1546.54,196.81a18.13,18.13,0,0,1-4.09-.44l0-.14a18.78,18.78,0,0,0,4.41.43v.14Z" transform="translate(-1195.57 -37.15)"/><path class="cls-30" d="M1545.43,213a18,18,0,0,1-4.09-.43l0-.15a18.23,18.23,0,0,0,4.41.43V213Z" transform="translate(-1195.57 -37.15)"/><path class="cls-30" d="M1544.51,232.26a18.06,18.06,0,0,1-4.09-.43l0-.14a18.85,18.85,0,0,0,4.41.43v.14Z" transform="translate(-1195.57 -37.15)"/><path class="cls-30" d="M1543.52,250.53a17.93,17.93,0,0,1-4.08-.43l0-.14a18.85,18.85,0,0,0,4.41.43v.14Z" transform="translate(-1195.57 -37.15)"/><path class="cls-30" d="M1542.18,269.67a18.08,18.08,0,0,1-4.1-.43l0-.14a18,18,0,0,0,4.41.42v.15Z" transform="translate(-1195.57 -37.15)"/><path class="cls-30" d="M1551.69,278.66a16.59,16.59,0,0,1-3.49-.58l.06-.13a18.19,18.19,0,0,0,3.44.57Z" transform="translate(-1195.57 -37.15)"/><path class="cls-30" d="M1554,262.05a17.14,17.14,0,0,1-3.48-.57l.06-.13a17.09,17.09,0,0,0,3.44.56Z" transform="translate(-1195.57 -37.15)"/><path class="cls-30" d="M1531.11,264.91l-.29,0,0-.14a16.73,16.73,0,0,0,3.45-.46l0,.14A20.5,20.5,0,0,1,1531.11,264.91Z" transform="translate(-1195.57 -37.15)"/><path class="cls-30" d="M1531.66,282.41h-.29l0-.15a16.73,16.73,0,0,0,3.45-.46l0,.14A20.5,20.5,0,0,1,1531.66,282.41Z" transform="translate(-1195.57 -37.15)"/><path class="cls-30" d="M1531.07,247.35h-.28l0-.15a17,17,0,0,0,3.45-.46l0,.14A20.89,20.89,0,0,1,1531.07,247.35Z" transform="translate(-1195.57 -37.15)"/><path class="cls-30" d="M1530.61,231.12h-.29l0-.14a16.58,16.58,0,0,0,3.45-.47l0,.15A20.85,20.85,0,0,1,1530.61,231.12Z" transform="translate(-1195.57 -37.15)"/><path class="cls-30" d="M1529.68,211.8h-.29l0-.15a16.73,16.73,0,0,0,3.45-.46l0,.14A20.7,20.7,0,0,1,1529.68,211.8Z" transform="translate(-1195.57 -37.15)"/><path class="cls-30" d="M1528.4,192.67l-.29,0,0-.14a18.27,18.27,0,0,0,3.45-.46l0,.14A20.89,20.89,0,0,1,1528.4,192.67Z" transform="translate(-1195.57 -37.15)"/><path class="cls-30" d="M1557,246.36a17.11,17.11,0,0,1-3.49-.57l.06-.14a16.67,16.67,0,0,0,3.44.57Z" transform="translate(-1195.57 -37.15)"/><path class="cls-30" d="M1564.62,213.93a16.59,16.59,0,0,1-3.22-1.44l.09-.12a16.74,16.74,0,0,0,3.18,1.42Z" transform="translate(-1195.57 -37.15)"/><path class="cls-30" d="M1560.27,230a16.27,16.27,0,0,1-3.48-.57l0-.13a17.31,17.31,0,0,0,3.44.56Z" transform="translate(-1195.57 -37.15)"/><path class="cls-30" d="M1509.07,176.63a20.85,20.85,0,0,0,12.29,2.24.45.45,0,0,0,.14-.85,17.68,17.68,0,0,0-5.73-14.79.44.44,0,0,0-.67.12,8.51,8.51,0,0,0-.48,7.63c.92,2.29,2.71,3.88,4.38,5.6a13.78,13.78,0,0,0-9.86-.75A.44.44,0,0,0,1509.07,176.63Z" transform="translate(-1195.57 -37.15)"/><path class="cls-31" d="M1557.15,185.84a20.9,20.9,0,0,0-.09,12.5.45.45,0,0,0,.86,0,17.66,17.66,0,0,0,13.58-8.19.44.44,0,0,0-.23-.65,8.51,8.51,0,0,0-7.59.85c-2.11,1.3-3.36,3.34-4.77,5.28a13.81,13.81,0,0,0-1-9.84A.44.44,0,0,0,1557.15,185.84Z" transform="translate(-1195.57 -37.15)"/><path class="cls-31" d="M1541,110.9a.44.44,0,0,1,.86.06c1.18,5.89,2.27,11.89.72,17.82a.45.45,0,0,1-.84.06.37.37,0,0,1-.11-.18A30.8,30.8,0,0,1,1541,110.9Z" transform="translate(-1195.57 -37.15)"/><path class="cls-31" d="M1537.15,130.43a6.74,6.74,0,0,0,4.45,2.75.45.45,0,0,0,.51-.55.38.38,0,0,0,.09-.39c-.93-3.36-3.24-5.91-5.58-8.38-.28-.29-.73,0-.72.36C1535.93,126.32,1536,128.6,1537.15,130.43Z" transform="translate(-1195.57 -37.15)"/><path class="cls-30" d="M1541.12,155.91a12.08,12.08,0,0,0,8.69-8.66c.09-.35-.38-.7-.67-.45-2.82,2.49-6.22,4.32-8.43,7.43a.47.47,0,0,0,.15.67l-.27.4C1540.37,155.65,1540.8,156,1541.12,155.91Z" transform="translate(-1195.57 -37.15)"/><path class="cls-30" d="M1564.18,180.36a12,12,0,0,0,8.69-8.65c.09-.35-.39-.7-.67-.45-2.82,2.49-6.22,4.31-8.43,7.43a.47.47,0,0,0,.15.67l-.27.4C1563.43,180.11,1563.86,180.44,1564.18,180.36Z" transform="translate(-1195.57 -37.15)"/><path class="cls-31" d="M1563.12,162.35a.44.44,0,0,1,.86.05c1.18,5.89,2.26,11.9.71,17.82a.45.45,0,0,1-.84.06.5.5,0,0,1-.11-.18A30.68,30.68,0,0,1,1563.12,162.35Z" transform="translate(-1195.57 -37.15)"/><polygon class="cls-32" points="364.38 297.86 330.54 297.86 324.76 248.37 370.15 248.37 364.38 297.86"/><polygon class="cls-33" points="361.1 297.86 327.26 297.86 321.48 248.37 366.87 248.37 361.1 297.86"/><path class="cls-32" d="M1365.86,37.21l66.76-.05c5.62-.11,9.51,3.9,9.62,8.36l-3.58,29.06a6.08,6.08,0,0,1-6.08,6.08l-45.5.25c-.2,3.83-3.89,7.9-8.11,12.39l.71.37-3.75,7.36-3.66-2.75s4.37-10.2,1.56-17.38l-6.83-.19-1.07,1.6-3.29-2.52a6.09,6.09,0,0,1-1-.72l-.11-.09h0a6.05,6.05,0,0,1-1.84-4.35l0-31.34A6.06,6.06,0,0,1,1365.86,37.21Z" transform="translate(-1195.57 -37.15)"/><path class="cls-33" d="M1369.52,40l66.76-.05a6.07,6.07,0,0,1,6.07,6.08l0,31.35a6.09,6.09,0,0,1-6.08,6.07l-45.51.25c-.28,5.38-5.86,16.64-14.81,17.37,0,0,4.37-10.19,1.56-17.38l-8-.19a6.09,6.09,0,0,1-6.07-6.09l0-31.34A6.07,6.07,0,0,1,1369.52,40Z" transform="translate(-1195.57 -37.15)"/><path class="cls-13" d="M1403.22,47.29a10.1,10.1,0,0,1,2.46.63,7.77,7.77,0,0,1,2.12,1.29,7.25,7.25,0,0,1,1.62,2,8.58,8.58,0,0,1,.95,2.75l-3.11,0a6.11,6.11,0,0,0-1.53-2.49,4.82,4.82,0,0,0-2.49-1.17l0,8.66,1.86.81a19.44,19.44,0,0,1,1.77.88,13.59,13.59,0,0,1,1.56,1,7.27,7.27,0,0,1,1.27,1.27,5.56,5.56,0,0,1,1.14,3.48,6.54,6.54,0,0,1-.64,3.06,7,7,0,0,1-1.72,2.19,8.15,8.15,0,0,1-2.43,1.41,12.07,12.07,0,0,1-2.73.66l0,4.33-3.14,0,0-4.41a8.19,8.19,0,0,1-2.62-1,9.44,9.44,0,0,1-2.19-1.85,10.87,10.87,0,0,1-1.62-2.52,11.3,11.3,0,0,1-.92-3l3.3,0a8.34,8.34,0,0,0,.53,1.84,7.65,7.65,0,0,0,.87,1.57,5.55,5.55,0,0,0,1.18,1.19,4.63,4.63,0,0,0,1.45.74l0-9.4c-.87-.39-1.72-.79-2.52-1.21a10.52,10.52,0,0,1-2.16-1.47,6.59,6.59,0,0,1-1.53-1.93,6.08,6.08,0,0,1,0-5,6.66,6.66,0,0,1,1.44-2,8.12,8.12,0,0,1,2.14-1.44,9.44,9.44,0,0,1,2.6-.78V44.53l3.14,0Zm-6.59,6.55a2.89,2.89,0,0,0,.27,1.25,3.6,3.6,0,0,0,.72,1,5.59,5.59,0,0,0,1.11.88,11,11,0,0,0,1.41.77l0-7.41a4.43,4.43,0,0,0-2.58,1.25A3.06,3.06,0,0,0,1396.63,53.84Zm11,12.7a2.47,2.47,0,0,0-.36-1.28,4.64,4.64,0,0,0-1-1.09,8,8,0,0,0-1.38-1c-.52-.29-1.06-.57-1.62-.82l0,8.35a6,6,0,0,0,1.79-.52,5.24,5.24,0,0,0,1.36-1,4,4,0,0,0,.85-1.26A3.72,3.72,0,0,0,1407.64,66.54Z" transform="translate(-1195.57 -37.15)"/><rect class="cls-34" x="96.95" y="297.86" width="269.46" height="1.99"/></svg>