<svg id="Layer_4" data-name="Layer 4" xmlns="http://www.w3.org/2000/svg" xmlns:xlink="http://www.w3.org/1999/xlink" viewBox="0 0 2223.37 1908.63"><defs><style>.cls-1{fill:url(#linear-gradient);}.cls-2{fill:url(#linear-gradient-2);}.cls-3{fill:url(#linear-gradient-3);}.cls-4{fill:url(#linear-gradient-4);}.cls-5{fill:url(#linear-gradient-5);}.cls-6{opacity:0.2;}.cls-10,.cls-11,.cls-12,.cls-13,.cls-14,.cls-15,.cls-16,.cls-17,.cls-18,.cls-19,.cls-20,.cls-21,.cls-22,.cls-23,.cls-24,.cls-25,.cls-26,.cls-27,.cls-28,.cls-29,.cls-30,.cls-31,.cls-32,.cls-33,.cls-34,.cls-7,.cls-8,.cls-9{fill:#02040f;}.cls-7{opacity:0;}.cls-8{opacity:0.02;}.cls-9{opacity:0.04;}.cls-10{opacity:0.06;}.cls-11{opacity:0.09;}.cls-12{opacity:0.11;}.cls-13{opacity:0.13;}.cls-14{opacity:0.15;}.cls-15{opacity:0.17;}.cls-16{opacity:0.19;}.cls-17{opacity:0.21;}.cls-18{opacity:0.24;}.cls-19{opacity:0.26;}.cls-20{opacity:0.28;}.cls-21{opacity:0.3;}.cls-22{opacity:0.32;}.cls-23{opacity:0.34;}.cls-24{opacity:0.37;}.cls-25{opacity:0.39;}.cls-26{opacity:0.41;}.cls-27{opacity:0.43;}.cls-28{opacity:0.45;}.cls-29{opacity:0.47;}.cls-30{opacity:0.49;}.cls-31{opacity:0.52;}.cls-32{opacity:0.54;}.cls-33{opacity:0.56;}.cls-34{opacity:0.58;}.cls-35{fill:url(#linear-gradient-6);}.cls-36{fill:url(#linear-gradient-7);}.cls-37{fill:url(#linear-gradient-8);}.cls-38{fill:url(#linear-gradient-9);}.cls-39{fill:url(#linear-gradient-10);}.cls-40{fill:url(#linear-gradient-11);}.cls-41{fill:url(#linear-gradient-12);}.cls-42{fill:url(#linear-gradient-13);}.cls-43{fill:url(#linear-gradient-14);}.cls-44{fill:url(#linear-gradient-15);}.cls-45{fill:url(#linear-gradient-16);}.cls-46{fill:url(#linear-gradient-17);}.cls-47{fill:url(#linear-gradient-18);}.cls-48{fill:url(#linear-gradient-19);}.cls-49{fill:url(#linear-gradient-20);}.cls-50{fill:url(#linear-gradient-21);}.cls-51{fill:url(#linear-gradient-22);}.cls-52{fill:url(#linear-gradient-23);}.cls-53{fill:url(#linear-gradient-24);}.cls-54{fill:url(#linear-gradient-25);}.cls-55{fill:url(#linear-gradient-26);}.cls-56{fill:url(#linear-gradient-27);}.cls-57{fill:url(#linear-gradient-28);}.cls-58{fill:url(#linear-gradient-29);}.cls-59{fill:url(#linear-gradient-30);}.cls-60{fill:url(#linear-gradient-31);}.cls-61{fill:url(#linear-gradient-32);}.cls-62{fill:url(#linear-gradient-33);}.cls-63{fill:url(#linear-gradient-34);}.cls-64{fill:url(#linear-gradient-35);}.cls-65{fill:url(#linear-gradient-36);}.cls-66{fill:url(#linear-gradient-37);}.cls-67{fill:url(#linear-gradient-38);}.cls-68{fill:url(#linear-gradient-39);}.cls-69{fill:url(#linear-gradient-40);}.cls-70{fill:url(#linear-gradient-41);}.cls-71{fill:url(#linear-gradient-42);}.cls-72{fill:url(#linear-gradient-43);}.cls-73{fill:url(#linear-gradient-44);}.cls-74{fill:url(#linear-gradient-45);}.cls-75{fill:url(#linear-gradient-46);}.cls-76{fill:url(#linear-gradient-47);}.cls-77{fill:url(#linear-gradient-48);}.cls-78{fill:url(#linear-gradient-49);}.cls-79{fill:url(#linear-gradient-50);}.cls-80{fill:url(#linear-gradient-51);}.cls-81{fill:#e0e1e1;}.cls-82{fill:url(#linear-gradient-52);}.cls-83{fill:url(#linear-gradient-53);}.cls-84{fill:url(#linear-gradient-54);}.cls-85{fill:url(#linear-gradient-55);}.cls-86{fill:url(#linear-gradient-56);}.cls-87{fill:url(#linear-gradient-57);}.cls-88{fill:url(#linear-gradient-58);}.cls-89{fill:url(#linear-gradient-59);}.cls-90{fill:url(#linear-gradient-60);}.cls-91{fill:url(#linear-gradient-61);}.cls-92{fill:url(#linear-gradient-62);}.cls-93{fill:url(#linear-gradient-63);}.cls-94{fill:url(#linear-gradient-64);}.cls-95{fill:url(#linear-gradient-65);}.cls-96{fill:url(#linear-gradient-66);}.cls-97{fill:url(#linear-gradient-67);}.cls-98{fill:url(#linear-gradient-68);}.cls-99{fill:url(#linear-gradient-69);}.cls-100{fill:url(#linear-gradient-70);}.cls-101{fill:url(#linear-gradient-71);}.cls-102{fill:url(#linear-gradient-72);}.cls-103{fill:url(#linear-gradient-73);}.cls-104{fill:url(#linear-gradient-74);}.cls-105{fill:url(#linear-gradient-75);}.cls-106{fill:#fff;}.cls-107{fill:url(#linear-gradient-76);}.cls-108{fill:url(#linear-gradient-77);}.cls-109{fill:url(#linear-gradient-78);}.cls-110{fill:url(#linear-gradient-79);}.cls-111{fill:url(#linear-gradient-80);}.cls-112{fill:url(#linear-gradient-81);}.cls-113{fill:url(#linear-gradient-82);}.cls-114{fill:url(#linear-gradient-83);}.cls-115{fill:url(#linear-gradient-84);}.cls-116{fill:url(#linear-gradient-85);}.cls-117{fill:url(#linear-gradient-86);}.cls-118{fill:url(#linear-gradient-87);}.cls-119{fill:url(#linear-gradient-88);}.cls-120{fill:url(#linear-gradient-89);}.cls-121{fill:url(#linear-gradient-90);}.cls-122{fill:url(#linear-gradient-91);}.cls-123{opacity:0.26;}.cls-124{fill:url(#linear-gradient-92);}.cls-125{fill:url(#linear-gradient-93);}.cls-126{fill:url(#linear-gradient-94);}.cls-127{fill:url(#linear-gradient-95);}.cls-128{fill:url(#linear-gradient-96);}.cls-129{opacity:0.53;fill:url(#linear-gradient-97);}.cls-130{fill:url(#linear-gradient-98);}.cls-131{fill:url(#linear-gradient-99);}.cls-132{fill:url(#linear-gradient-100);}.cls-133{fill:url(#linear-gradient-101);}.cls-134{fill:url(#linear-gradient-102);}.cls-135{fill:url(#linear-gradient-103);}.cls-136{fill:url(#linear-gradient-104);}.cls-137{fill:url(#linear-gradient-105);}.cls-138{fill:url(#linear-gradient-106);}.cls-139{fill:url(#linear-gradient-107);}.cls-140{fill:url(#linear-gradient-108);}.cls-141{fill:url(#linear-gradient-109);}.cls-142{fill:url(#linear-gradient-110);}.cls-143{isolation:isolate;}.cls-144{fill:url(#linear-gradient-111);}.cls-145{fill:url(#linear-gradient-112);}.cls-146{fill:url(#linear-gradient-113);}.cls-147{fill:url(#linear-gradient-114);}.cls-148{fill:url(#linear-gradient-115);}.cls-149{fill:#858585;}.cls-150{fill:url(#linear-gradient-116);}.cls-151{fill:url(#linear-gradient-117);}.cls-152{clip-path:url(#clip-path);}.cls-153{clip-path:url(#clip-path-2);}.cls-154{clip-path:url(#clip-path-3);}.cls-155{fill:url(#linear-gradient-124);}.cls-156{fill:url(#linear-gradient-125);}.cls-157{clip-path:url(#clip-path-4);}.cls-158{fill:url(#linear-gradient-128);}.cls-159{fill:url(#linear-gradient-129);}.cls-160{fill:url(#linear-gradient-130);}.cls-161{clip-path:url(#clip-path-5);}.cls-162{fill:url(#linear-gradient-133);}</style><linearGradient id="linear-gradient" x1="788.36" y1="742.35" x2="851.13" y2="742.35" gradientUnits="userSpaceOnUse"><stop offset="0" stop-color="#9c9e9f"/><stop offset="1" stop-color="#d1d2d3"/></linearGradient><linearGradient id="linear-gradient-2" x1="745.13" y1="554.34" x2="795.92" y2="554.34" xlink:href="#linear-gradient"/><linearGradient id="linear-gradient-3" x1="736.11" y1="659.16" x2="779.32" y2="659.16" xlink:href="#linear-gradient"/><linearGradient id="linear-gradient-4" x1="712.53" y1="733.54" x2="783.59" y2="733.54" xlink:href="#linear-gradient"/><linearGradient id="linear-gradient-5" x1="691.94" y1="600.13" x2="734.36" y2="600.13" xlink:href="#linear-gradient"/><linearGradient id="linear-gradient-6" x1="2314.15" y1="982.14" x2="2163.74" y2="620.57" gradientUnits="userSpaceOnUse"><stop offset="0" stop-color="#4c6fbf"/><stop offset="1" stop-color="#8ca3d8"/></linearGradient><linearGradient id="linear-gradient-7" x1="2009.28" y1="832.78" x2="2252.81" y2="906.58" gradientUnits="userSpaceOnUse"><stop offset="0" stop-color="#8e4d21"/><stop offset="1" stop-color="#fa8a13"/></linearGradient><linearGradient id="linear-gradient-8" x1="2204.13" y1="999.56" x2="2081.46" y2="704.66" gradientUnits="userSpaceOnUse"><stop offset="0" stop-color="#ffac06"/><stop offset="1" stop-color="#ffd38d"/></linearGradient><linearGradient id="linear-gradient-9" x1="2181.96" y1="579.51" x2="2270.41" y2="910.77" xlink:href="#linear-gradient-6"/><linearGradient id="linear-gradient-10" x1="1206.42" y1="1498.21" x2="1444.84" y2="941.9" gradientUnits="userSpaceOnUse"><stop offset="0" stop-color="#ffac06"/><stop offset="1" stop-color="#fff"/></linearGradient><linearGradient id="linear-gradient-11" x1="1719.3" y1="1395.28" x2="1827.84" y2="1142.02" xlink:href="#linear-gradient-6"/><linearGradient id="linear-gradient-12" x1="900.45" y1="882.68" x2="1493.18" y2="882.68" xlink:href="#linear-gradient-7"/><linearGradient id="linear-gradient-13" x1="1560.8" y1="841.08" x2="1745.02" y2="1154.87" xlink:href="#linear-gradient-7"/><linearGradient id="linear-gradient-14" x1="887.75" y1="1462.74" x2="1322.31" y2="448.77" gradientUnits="userSpaceOnUse"><stop offset="0" stop-color="#4c6fbf"/><stop offset="1" stop-color="#525575"/></linearGradient><linearGradient id="linear-gradient-15" x1="1503.33" y1="1714.6" x2="1866.42" y2="867.38" xlink:href="#linear-gradient"/><linearGradient id="linear-gradient-16" x1="1286.2" y1="1302.26" x2="1196.68" y2="1562.23" xlink:href="#linear-gradient-10"/><linearGradient id="linear-gradient-17" x1="1620.42" y1="1666.81" x2="1977.65" y2="833.28" xlink:href="#linear-gradient-6"/><linearGradient id="linear-gradient-18" x1="1351.5" y1="955.71" x2="1227.55" y2="558.64" xlink:href="#linear-gradient-8"/><linearGradient id="linear-gradient-19" x1="1617.39" y1="1110.22" x2="1884.24" y2="672.93" xlink:href="#linear-gradient-10"/><linearGradient id="linear-gradient-20" x1="1242.33" y1="1116.55" x2="933.17" y2="1115.37" xlink:href="#linear-gradient-6"/><linearGradient id="linear-gradient-21" x1="1689.79" y1="1521.56" x2="1607.86" y2="1324.6" gradientUnits="userSpaceOnUse"><stop offset="0" stop-color="#fbfbfb"/><stop offset="1" stop-color="#eaebec"/></linearGradient><linearGradient id="linear-gradient-22" x1="1165.41" y1="1596.19" x2="1230.66" y2="1443.94" xlink:href="#linear-gradient-7"/><linearGradient id="linear-gradient-23" x1="1263.22" y1="1227.29" x2="1211.15" y2="1102.13" gradientTransform="matrix(1, 0, 0.18, 1.04, -206.13, -52.32)" xlink:href="#linear-gradient"/><linearGradient id="linear-gradient-24" x1="1397.48" y1="1218.78" x2="1331.61" y2="1060.46" gradientTransform="matrix(1, 0, 0.18, 1.04, -206.13, -52.32)" xlink:href="#linear-gradient"/><linearGradient id="linear-gradient-25" x1="1529.76" y1="1211.49" x2="1450.24" y2="1020.35" gradientTransform="matrix(1, 0, 0.18, 1.04, -206.13, -52.32)" xlink:href="#linear-gradient"/><linearGradient id="linear-gradient-26" x1="1648.73" y1="1218.98" x2="1582.35" y2="1059.42" gradientTransform="matrix(1, 0, 0.18, 1.04, -206.13, -52.32)" xlink:href="#linear-gradient"/><linearGradient id="linear-gradient-27" x1="1238.57" y1="957.52" x2="1257.02" y2="1150.68" gradientTransform="matrix(1, 0, 0.18, 1.04, -206.13, -52.32)" xlink:href="#linear-gradient-21"/><linearGradient id="linear-gradient-28" x1="1366.48" y1="945.3" x2="1384.94" y2="1138.46" gradientTransform="matrix(1, 0, 0.18, 1.04, -206.13, -52.32)" xlink:href="#linear-gradient-21"/><linearGradient id="linear-gradient-29" x1="1492.73" y1="933.24" x2="1511.19" y2="1126.4" gradientTransform="matrix(1, 0, 0.18, 1.04, -206.13, -52.32)" xlink:href="#linear-gradient-21"/><linearGradient id="linear-gradient-30" x1="1615.38" y1="921.52" x2="1633.83" y2="1114.69" gradientTransform="matrix(1, 0, 0.18, 1.04, -206.13, -52.32)" xlink:href="#linear-gradient-21"/><linearGradient id="linear-gradient-31" x1="1234.41" y1="953.29" x2="1253.45" y2="1152.65" gradientUnits="userSpaceOnUse"><stop offset="0" stop-color="#fbfbfb"/><stop offset="1" stop-color="#fff"/></linearGradient><linearGradient id="linear-gradient-32" x1="1355.26" y1="935.94" x2="1374.66" y2="1138.99" xlink:href="#linear-gradient-31"/><linearGradient id="linear-gradient-33" x1="1477.13" y1="923.08" x2="1496.57" y2="1126.53" xlink:href="#linear-gradient-31"/><linearGradient id="linear-gradient-34" x1="1603.97" y1="910.95" x2="1623.37" y2="1114" xlink:href="#linear-gradient-31"/><linearGradient id="linear-gradient-35" x1="1349.26" y1="997.53" x2="1410.2" y2="1229.27" xlink:href="#linear-gradient-21"/><linearGradient id="linear-gradient-36" x1="1463.23" y1="946.4" x2="1537.5" y2="1228.83" xlink:href="#linear-gradient-21"/><linearGradient id="linear-gradient-37" x1="1600.44" y1="997.53" x2="1661.38" y2="1229.28" xlink:href="#linear-gradient-21"/><linearGradient id="linear-gradient-38" x1="435.02" y1="755.31" x2="1674.31" y2="755.31" xlink:href="#linear-gradient-14"/><linearGradient id="linear-gradient-39" x1="981.69" y1="433.79" x2="1091.75" y2="867" xlink:href="#linear-gradient-6"/><linearGradient id="linear-gradient-40" x1="2172.64" y1="2467" x2="2065.68" y2="2072.51" gradientTransform="matrix(1, 0.19, 0, 1, -388.31, -1572)" xlink:href="#linear-gradient"/><linearGradient id="linear-gradient-41" x1="2190.3" y1="2432.66" x2="2083.34" y2="2038.18" gradientTransform="matrix(1, 0.19, 0, 1, -388.31, -1572)" xlink:href="#linear-gradient-21"/><linearGradient id="linear-gradient-42" x1="2090.95" y1="2099.16" x2="2068.8" y2="2017.45" gradientTransform="matrix(1, 0.19, 0, 1, -388.31, -1572)" xlink:href="#linear-gradient-8"/><linearGradient id="linear-gradient-43" x1="2196.17" y1="2464.14" x2="2185.57" y2="2425.06" gradientTransform="matrix(1, 0.19, 0, 1, -388.31, -1572)" xlink:href="#linear-gradient"/><linearGradient id="linear-gradient-44" x1="1801.12" y1="2202.12" x2="1776.97" y2="2113.04" gradientTransform="matrix(1, 0.19, 0, 1, -388.31, -1572)" xlink:href="#linear-gradient-7"/><linearGradient id="linear-gradient-45" x1="1984.19" y1="2169.9" x2="2037.2" y2="2368.4" gradientTransform="matrix(1, 0.19, 0, 1, 0, -1276.31)" xlink:href="#linear-gradient-6"/><linearGradient id="linear-gradient-46" x1="2047.52" y1="2182.49" x2="2092.74" y2="2351.85" gradientTransform="matrix(1, 0.19, 0, 1, 0, -1276.31)" xlink:href="#linear-gradient-8"/><linearGradient id="linear-gradient-47" x1="1982.63" y1="2338.82" x2="2092.82" y2="2338.82" gradientTransform="matrix(1, 0.19, 0, 1, 0, -1276.31)" xlink:href="#linear-gradient-21"/><linearGradient id="linear-gradient-48" x1="2195.51" y1="683.93" x2="2195.51" y2="709.14" gradientTransform="matrix(0.95, -0.14, 0.32, 1.01, -62.87, 876.91)" gradientUnits="userSpaceOnUse"><stop offset="0" stop-color="#fbfbfb"/><stop offset="1" stop-color="#c7c8c9"/></linearGradient><linearGradient id="linear-gradient-49" x1="2195.51" y1="732.34" x2="2195.51" y2="757.56" xlink:href="#linear-gradient-48"/><linearGradient id="linear-gradient-50" x1="2195.51" y1="780.75" x2="2195.51" y2="805.97" xlink:href="#linear-gradient-48"/><linearGradient id="linear-gradient-51" x1="2195.51" y1="829.17" x2="2195.51" y2="854.38" xlink:href="#linear-gradient-48"/><linearGradient id="linear-gradient-52" x1="1568.49" y1="1769.69" x2="1407.41" y2="1338.42" xlink:href="#linear-gradient-21"/><linearGradient id="linear-gradient-53" x1="3309.74" y1="51.13" x2="3309.74" y2="35.33" gradientTransform="matrix(1.08, -0.33, 0.87, 0.49, -1652.82, 2966.48)" xlink:href="#linear-gradient-48"/><linearGradient id="linear-gradient-54" x1="3309.74" y1="94.01" x2="3309.74" y2="78.2" gradientTransform="matrix(1.08, -0.33, 0.87, 0.49, -1652.82, 2966.48)" xlink:href="#linear-gradient-48"/><linearGradient id="linear-gradient-55" x1="3309.74" y1="136.88" x2="3309.74" y2="121.08" gradientTransform="matrix(1.08, -0.33, 0.87, 0.49, -1652.82, 2966.48)" xlink:href="#linear-gradient-48"/><linearGradient id="linear-gradient-56" x1="3309.74" y1="179.76" x2="3309.74" y2="163.95" gradientTransform="matrix(1.08, -0.33, 0.87, 0.49, -1652.82, 2966.48)" xlink:href="#linear-gradient-48"/><linearGradient id="linear-gradient-57" x1="1312.97" y1="1564.55" x2="1375.97" y2="1564.55" xlink:href="#linear-gradient-6"/><linearGradient id="linear-gradient-58" x1="1339.87" y1="1543.72" x2="1426.99" y2="1543.72" xlink:href="#linear-gradient-6"/><linearGradient id="linear-gradient-59" x1="1348.09" y1="1518" x2="1478.01" y2="1518" xlink:href="#linear-gradient-6"/><linearGradient id="linear-gradient-60" x1="1372.3" y1="1496.23" x2="1529.02" y2="1496.23" xlink:href="#linear-gradient-6"/><linearGradient id="linear-gradient-61" x1="1450.12" y1="1488.98" x2="1580.04" y2="1488.98" xlink:href="#linear-gradient-6"/><linearGradient id="linear-gradient-62" x1="941.58" y1="1834.44" x2="917.05" y2="1523.37" xlink:href="#linear-gradient-6"/><linearGradient id="linear-gradient-63" x1="831.93" y1="1553.23" x2="929.57" y2="1846.28" xlink:href="#linear-gradient-6"/><linearGradient id="linear-gradient-64" x1="1020.83" y1="1811.55" x2="1000.46" y2="1553.34" xlink:href="#linear-gradient"/><linearGradient id="linear-gradient-65" x1="929.81" y1="1578.13" x2="1010.85" y2="1821.38" xlink:href="#linear-gradient-21"/><linearGradient id="linear-gradient-66" x1="1259.87" y1="1797.7" x2="1260.1" y2="1798.59" gradientUnits="userSpaceOnUse"><stop offset="0" stop-color="#edaeae"/><stop offset="1" stop-color="#ffe9e9"/></linearGradient><linearGradient id="linear-gradient-67" x1="1244.38" y1="1704.61" x2="1258.81" y2="1760.54" xlink:href="#linear-gradient-66"/><linearGradient id="linear-gradient-68" x1="1133.19" y1="1654.98" x2="1202.81" y2="1727.92" xlink:href="#linear-gradient-66"/><linearGradient id="linear-gradient-69" x1="1030.35" y1="1458.39" x2="1163.59" y2="1858.32" xlink:href="#linear-gradient-66"/><linearGradient id="linear-gradient-70" x1="1141.57" y1="1427.24" x2="1186.65" y2="1601.92" xlink:href="#linear-gradient-66"/><linearGradient id="linear-gradient-71" x1="1242.06" y1="1753.8" x2="1255.22" y2="1804.81" xlink:href="#linear-gradient-66"/><linearGradient id="linear-gradient-72" x1="1251.78" y1="1642.83" x2="1268.96" y2="1709.39" xlink:href="#linear-gradient-66"/><linearGradient id="linear-gradient-73" x1="2310.06" y1="1576.43" x2="2342.59" y2="1742.11" gradientTransform="matrix(0.68, 0.74, -0.72, 0.7, 1979.81, -1209.69)" gradientUnits="userSpaceOnUse"><stop offset="0" stop-color="#ffac06"/><stop offset="1" stop-color="#f66c1e"/></linearGradient><linearGradient id="linear-gradient-74" x1="2236.34" y1="1654.51" x2="2482.01" y2="1668.53" gradientTransform="translate(1984.49 -1204.76) rotate(47.33)" xlink:href="#linear-gradient-73"/><linearGradient id="linear-gradient-75" x1="2236.35" y1="1658.48" x2="2426.34" y2="1669.32" xlink:href="#linear-gradient-10"/><linearGradient id="linear-gradient-76" x1="806.23" y1="1758.79" x2="1169.47" y2="1801.63" xlink:href="#linear-gradient"/><linearGradient id="linear-gradient-77" x1="1212.42" y1="1734.72" x2="800.14" y2="1816.55" xlink:href="#linear-gradient-21"/><linearGradient id="linear-gradient-78" x1="1509.19" y1="1965.14" x2="1265.62" y2="1965.14" xlink:href="#linear-gradient"/><linearGradient id="linear-gradient-79" x1="1509.19" y1="1963.5" x2="1265.62" y2="1963.5" xlink:href="#linear-gradient-21"/><linearGradient id="linear-gradient-80" x1="898.2" y1="1521.1" x2="1088.42" y2="1543.53" xlink:href="#linear-gradient-21"/><linearGradient id="linear-gradient-81" x1="1539" y1="1833.07" x2="1327.96" y2="1826.97" xlink:href="#linear-gradient-21"/><linearGradient id="linear-gradient-82" x1="1314.7" y1="1834.71" x2="1451.87" y2="1850.89" xlink:href="#linear-gradient-6"/><linearGradient id="linear-gradient-83" x1="1506.36" y1="1895.29" x2="1506.36" y2="2029.37" xlink:href="#linear-gradient-21"/><linearGradient id="linear-gradient-84" x1="1501.17" y1="1895.58" x2="1501.17" y2="2085.46" gradientUnits="userSpaceOnUse"><stop offset="0" stop-color="#ecedee"/><stop offset="1" stop-color="#d1d2d3"/></linearGradient><linearGradient id="linear-gradient-85" x1="548.71" y1="1150.55" x2="568.59" y2="1059.88" gradientUnits="userSpaceOnUse"><stop offset="0" stop-color="#fff"/><stop offset="1" stop-color="#eaebec"/></linearGradient><linearGradient id="linear-gradient-86" x1="617.64" y1="1126.52" x2="611.13" y2="851.76" xlink:href="#linear-gradient-85"/><linearGradient id="linear-gradient-87" x1="723.5" y1="985.59" x2="723.5" y2="973.15" gradientTransform="matrix(1, 0, 0.27, 1, -364.76, 0)" gradientUnits="userSpaceOnUse"><stop offset="0" stop-color="#f0f0f1"/><stop offset="1" stop-color="#d1d2d3"/></linearGradient><linearGradient id="linear-gradient-88" x1="716.37" y1="945.78" x2="716.37" y2="935.35" xlink:href="#linear-gradient-87"/><linearGradient id="linear-gradient-89" x1="723.5" y1="1018.3" x2="723.5" y2="1005.86" xlink:href="#linear-gradient-87"/><linearGradient id="linear-gradient-90" x1="723.5" y1="1051.01" x2="723.5" y2="1038.57" xlink:href="#linear-gradient-87"/><linearGradient id="linear-gradient-91" x1="549.98" y1="868.32" x2="590.61" y2="868.32" gradientTransform="translate(826.06 -138.56) rotate(47.55)" xlink:href="#linear-gradient-6"/><linearGradient id="linear-gradient-92" x1="694.23" y1="1598.3" x2="478.07" y2="1595.12" xlink:href="#linear-gradient-6"/><linearGradient id="linear-gradient-93" x1="477.84" y1="1533.82" x2="601.46" y2="1616.56" xlink:href="#linear-gradient-6"/><linearGradient id="linear-gradient-94" x1="497.34" y1="1254.76" x2="584.5" y2="1313.1" xlink:href="#linear-gradient-21"/><linearGradient id="linear-gradient-95" x1="502.39" y1="1258.14" x2="580.11" y2="1310.15" xlink:href="#linear-gradient-6"/><linearGradient id="linear-gradient-96" x1="448.38" y1="1366.44" x2="624.33" y2="1484.21" xlink:href="#linear-gradient-21"/><linearGradient id="linear-gradient-97" x1="453.97" y1="1370" x2="620.58" y2="1481.52" xlink:href="#linear-gradient-6"/><linearGradient id="linear-gradient-98" x1="474.57" y1="1224.45" x2="603.25" y2="1310.57" xlink:href="#linear-gradient-6"/><linearGradient id="linear-gradient-99" x1="651.32" y1="1228.51" x2="431.98" y2="1292.09" xlink:href="#linear-gradient-6"/><linearGradient id="linear-gradient-100" x1="570.12" y1="257.57" x2="1586.81" y2="257.57" xlink:href="#linear-gradient-21"/><linearGradient id="linear-gradient-101" x1="1521.04" y1="736.3" x2="1401.64" y2="777.19" gradientTransform="translate(962.44 -800.91) rotate(45)" xlink:href="#linear-gradient-6"/><linearGradient id="linear-gradient-102" x1="1496.04" y1="830.61" x2="1442.61" y2="707.83" gradientTransform="translate(1881.98 -837.13) rotate(76.81)" xlink:href="#linear-gradient-6"/><linearGradient id="linear-gradient-103" x1="1352.45" y1="340.99" x2="1227.92" y2="383.64" gradientTransform="translate(633.38 -794.94) rotate(45)" xlink:href="#linear-gradient-8"/><linearGradient id="linear-gradient-104" x1="1298.9" y1="307.75" x2="1297.83" y2="410.86" gradientTransform="translate(645.14 -808.24) rotate(45)" xlink:href="#linear-gradient-8"/><linearGradient id="linear-gradient-105" x1="1697.41" y1="466.44" x2="1590.65" y2="503" gradientTransform="translate(7.24 -23.55) rotate(0.83)" xlink:href="#linear-gradient-8"/><linearGradient id="linear-gradient-106" x1="1651.35" y1="447.5" x2="1650.43" y2="546.95" gradientTransform="translate(1774.42 -1223.89) rotate(77.41)" xlink:href="#linear-gradient-8"/><linearGradient id="linear-gradient-107" x1="1880.24" y1="678.72" x2="1812.76" y2="701.83" gradientTransform="translate(405.13 -651) rotate(22.5)" xlink:href="#linear-gradient-6"/><linearGradient id="linear-gradient-108" x1="1866.11" y1="732.02" x2="1835.91" y2="662.63" gradientTransform="translate(2103.91 -1264.51) rotate(76.72)" xlink:href="#linear-gradient-6"/><linearGradient id="linear-gradient-109" x1="2011.56" y1="523.52" x2="1944.08" y2="546.63" gradientTransform="translate(2040.88 -1503.45) rotate(76.72)" xlink:href="#linear-gradient-8"/><linearGradient id="linear-gradient-110" x1="1986.61" y1="510.99" x2="1976.13" y2="583.6" gradientTransform="translate(1907.98 -1511.78) rotate(72.64)" xlink:href="#linear-gradient-8"/><linearGradient id="linear-gradient-111" x1="559.22" y1="203.07" x2="633.39" y2="203.07" xlink:href="#linear-gradient"/><linearGradient id="linear-gradient-112" x1="529.68" y1="471.66" x2="596.81" y2="471.66" xlink:href="#linear-gradient"/><linearGradient id="linear-gradient-113" x1="863.83" y1="622.36" x2="981.05" y2="622.36" xlink:href="#linear-gradient"/><linearGradient id="linear-gradient-114" x1="860.42" y1="438.95" x2="911.62" y2="438.95" xlink:href="#linear-gradient"/><linearGradient id="linear-gradient-115" x1="460.21" y1="166.32" x2="506.87" y2="166.32" xlink:href="#linear-gradient"/><linearGradient id="linear-gradient-116" x1="428.05" y1="478.63" x2="462.93" y2="478.63" xlink:href="#linear-gradient"/><linearGradient id="linear-gradient-117" x1="817.33" y1="489.52" x2="883.29" y2="489.52" xlink:href="#linear-gradient"/><clipPath id="clip-path" transform="translate(-388.31 -295.68)"><path class="cls-1" d="M851.13,751.49l-34.77-1.73a130.93,130.93,0,0,1-28-16.55l34.77,1.73A130.93,130.93,0,0,0,851.13,751.49Z"/></clipPath><clipPath id="clip-path-2" transform="translate(-388.31 -295.68)"><path class="cls-2" d="M779.9,569.84l-34.77-1.73a140.06,140.06,0,0,1,16-29.28l34.77,1.73A140.06,140.06,0,0,0,779.9,569.84Z"/></clipPath><clipPath id="clip-path-3" transform="translate(-388.31 -295.68)"><path class="cls-3" d="M779.32,676.12l-34.77-1.73a141.82,141.82,0,0,1-8.44-32.2l34.77,1.73A141.68,141.68,0,0,0,779.32,676.12Z"/></clipPath><linearGradient id="linear-gradient-124" x1="350.02" y1="223.52" x2="407.61" y2="223.52" xlink:href="#linear-gradient"/><linearGradient id="linear-gradient-125" x1="738.34" y1="479.73" x2="819.89" y2="479.73" xlink:href="#linear-gradient"/><clipPath id="clip-path-4" transform="translate(-388.31 -295.68)"><path class="cls-4" d="M783.59,758.8l-34.77-1.73a182.87,182.87,0,0,1-36.29-48.79L747.3,710A182.71,182.71,0,0,0,783.59,758.8Z"/></clipPath><linearGradient id="linear-gradient-128" x1="324.22" y1="396.52" x2="391" y2="396.52" xlink:href="#linear-gradient"/><linearGradient id="linear-gradient-129" x1="311.28" y1="273.52" x2="391.58" y2="273.52" xlink:href="#linear-gradient"/><linearGradient id="linear-gradient-130" x1="303.76" y1="341.25" x2="382.57" y2="341.25" xlink:href="#linear-gradient"/><clipPath id="clip-path-5" transform="translate(-388.31 -295.68)"><path class="cls-5" d="M726.85,631.68l-34.77-1.74a194.5,194.5,0,0,1,7.51-61.37l34.77,1.74a194.4,194.4,0,0,0-7.51,61.37Z"/></clipPath><linearGradient id="linear-gradient-133" x1="726.71" y1="623.18" x2="1078.47" y2="623.18" xlink:href="#linear-gradient-21"/></defs><g class="cls-6"><ellipse class="cls-7" cx="1982.52" cy="1577.56" rx="240.85" ry="51.25"/><ellipse class="cls-8" cx="1982.52" cy="1577.56" rx="235.54" ry="50.12"/><ellipse class="cls-9" cx="1982.52" cy="1577.56" rx="230.23" ry="48.99"/><ellipse class="cls-10" cx="1982.52" cy="1577.56" rx="224.92" ry="47.86"/><ellipse class="cls-11" cx="1982.52" cy="1577.56" rx="219.61" ry="46.73"/><ellipse class="cls-12" cx="1982.52" cy="1577.56" rx="214.29" ry="45.6"/><ellipse class="cls-13" cx="1982.52" cy="1577.56" rx="208.98" ry="44.47"/><ellipse class="cls-14" cx="1982.52" cy="1577.56" rx="203.67" ry="43.34"/><ellipse class="cls-15" cx="1982.52" cy="1577.56" rx="198.36" ry="42.21"/><ellipse class="cls-16" cx="1982.52" cy="1577.56" rx="193.05" ry="41.08"/><ellipse class="cls-17" cx="1982.52" cy="1577.56" rx="187.74" ry="39.95"/><ellipse class="cls-18" cx="1982.52" cy="1577.56" rx="182.43" ry="38.82"/><ellipse class="cls-19" cx="1982.52" cy="1577.56" rx="177.12" ry="37.69"/><ellipse class="cls-20" cx="1982.52" cy="1577.56" rx="171.8" ry="36.56"/><ellipse class="cls-21" cx="1982.52" cy="1577.56" rx="166.49" ry="35.43"/><ellipse class="cls-22" cx="1982.52" cy="1577.56" rx="161.18" ry="34.3"/><ellipse class="cls-23" cx="1982.52" cy="1577.56" rx="155.87" ry="33.17"/><ellipse class="cls-24" cx="1982.52" cy="1577.56" rx="150.56" ry="32.04"/><ellipse class="cls-25" cx="1982.52" cy="1577.56" rx="145.25" ry="30.91"/><ellipse class="cls-26" cx="1982.52" cy="1577.56" rx="139.94" ry="29.78"/><ellipse class="cls-27" cx="1982.52" cy="1577.56" rx="134.63" ry="28.65"/><ellipse class="cls-28" cx="1982.52" cy="1577.56" rx="129.31" ry="27.52"/><ellipse class="cls-29" cx="1982.52" cy="1577.56" rx="124" ry="26.39"/><ellipse class="cls-30" cx="1982.52" cy="1577.56" rx="118.69" ry="25.26"/><ellipse class="cls-31" cx="1982.52" cy="1577.56" rx="113.38" ry="24.13"/><ellipse class="cls-32" cx="1982.52" cy="1577.56" rx="108.07" ry="23"/><ellipse class="cls-33" cx="1982.52" cy="1577.56" rx="102.76" ry="21.87"/><ellipse class="cls-34" cx="1982.52" cy="1577.56" rx="97.45" ry="20.74"/></g><g class="cls-6"><ellipse class="cls-7" cx="1676.18" cy="1369.09" rx="417.55" ry="88.86"/><ellipse class="cls-8" cx="1676.18" cy="1369.09" rx="408.34" ry="86.9"/><ellipse class="cls-9" cx="1676.18" cy="1369.09" rx="399.14" ry="84.94"/><ellipse class="cls-10" cx="1676.18" cy="1369.09" rx="389.93" ry="82.98"/><ellipse class="cls-11" cx="1676.18" cy="1369.09" rx="380.72" ry="81.02"/><ellipse class="cls-12" cx="1676.18" cy="1369.09" rx="371.51" ry="79.06"/><ellipse class="cls-13" cx="1676.18" cy="1369.09" rx="362.3" ry="77.1"/><ellipse class="cls-14" cx="1676.18" cy="1369.09" rx="353.1" ry="75.14"/><ellipse class="cls-15" cx="1676.18" cy="1369.09" rx="343.89" ry="73.18"/><ellipse class="cls-16" cx="1676.18" cy="1369.09" rx="334.68" ry="71.22"/><ellipse class="cls-17" cx="1676.18" cy="1369.09" rx="325.47" ry="69.26"/><ellipse class="cls-18" cx="1676.18" cy="1369.09" rx="316.27" ry="67.3"/><ellipse class="cls-19" cx="1676.18" cy="1369.09" rx="307.06" ry="65.34"/><ellipse class="cls-20" cx="1676.18" cy="1369.09" rx="297.85" ry="63.38"/><ellipse class="cls-21" cx="1676.18" cy="1369.09" rx="288.64" ry="61.42"/><ellipse class="cls-22" cx="1676.18" cy="1369.09" rx="279.43" ry="59.46"/><ellipse class="cls-23" cx="1676.18" cy="1369.09" rx="270.23" ry="57.5"/><ellipse class="cls-24" cx="1676.18" cy="1369.09" rx="261.02" ry="55.55"/><ellipse class="cls-25" cx="1676.18" cy="1369.09" rx="251.81" ry="53.59"/><ellipse class="cls-26" cx="1676.18" cy="1369.09" rx="242.6" ry="51.63"/><ellipse class="cls-27" cx="1676.18" cy="1369.09" rx="233.4" ry="49.67"/><ellipse class="cls-28" cx="1676.18" cy="1369.09" rx="224.19" ry="47.71"/><ellipse class="cls-29" cx="1676.18" cy="1369.09" rx="214.98" ry="45.75"/><ellipse class="cls-30" cx="1676.18" cy="1369.09" rx="205.77" ry="43.79"/><ellipse class="cls-31" cx="1676.18" cy="1369.09" rx="196.56" ry="41.83"/><ellipse class="cls-32" cx="1676.18" cy="1369.09" rx="187.36" ry="39.87"/><ellipse class="cls-33" cx="1676.18" cy="1369.09" rx="178.15" ry="37.91"/><ellipse class="cls-34" cx="1676.18" cy="1369.09" rx="168.94" ry="35.95"/></g><g class="cls-6"><ellipse class="cls-7" cx="1573.18" cy="1730.73" rx="417.55" ry="88.86"/><ellipse class="cls-8" cx="1573.18" cy="1730.73" rx="408.34" ry="86.9"/><ellipse class="cls-9" cx="1573.18" cy="1730.73" rx="399.14" ry="84.94"/><ellipse class="cls-10" cx="1573.18" cy="1730.73" rx="389.93" ry="82.98"/><ellipse class="cls-11" cx="1573.18" cy="1730.73" rx="380.72" ry="81.02"/><ellipse class="cls-12" cx="1573.18" cy="1730.73" rx="371.51" ry="79.06"/><ellipse class="cls-13" cx="1573.18" cy="1730.73" rx="362.3" ry="77.1"/><ellipse class="cls-14" cx="1573.18" cy="1730.73" rx="353.1" ry="75.14"/><ellipse class="cls-15" cx="1573.18" cy="1730.73" rx="343.89" ry="73.18"/><ellipse class="cls-16" cx="1573.18" cy="1730.73" rx="334.68" ry="71.22"/><ellipse class="cls-17" cx="1573.18" cy="1730.73" rx="325.47" ry="69.26"/><ellipse class="cls-18" cx="1573.18" cy="1730.73" rx="316.27" ry="67.3"/><ellipse class="cls-19" cx="1573.18" cy="1730.73" rx="307.06" ry="65.34"/><ellipse class="cls-20" cx="1573.18" cy="1730.73" rx="297.85" ry="63.38"/><ellipse class="cls-21" cx="1573.18" cy="1730.73" rx="288.64" ry="61.42"/><ellipse class="cls-22" cx="1573.18" cy="1730.73" rx="279.43" ry="59.46"/><ellipse class="cls-23" cx="1573.18" cy="1730.73" rx="270.23" ry="57.5"/><ellipse class="cls-24" cx="1573.18" cy="1730.73" rx="261.02" ry="55.55"/><ellipse class="cls-25" cx="1573.18" cy="1730.73" rx="251.81" ry="53.59"/><ellipse class="cls-26" cx="1573.18" cy="1730.73" rx="242.6" ry="51.63"/><ellipse class="cls-27" cx="1573.18" cy="1730.73" rx="233.4" ry="49.67"/><ellipse class="cls-28" cx="1573.18" cy="1730.73" rx="224.19" ry="47.71"/><ellipse class="cls-29" cx="1573.18" cy="1730.73" rx="214.98" ry="45.75"/><ellipse class="cls-30" cx="1573.18" cy="1730.73" rx="205.77" ry="43.79"/><ellipse class="cls-31" cx="1573.18" cy="1730.73" rx="196.56" ry="41.83"/><ellipse class="cls-32" cx="1573.18" cy="1730.73" rx="187.36" ry="39.87"/><ellipse class="cls-33" cx="1573.18" cy="1730.73" rx="178.15" ry="37.91"/><ellipse class="cls-34" cx="1573.18" cy="1730.73" rx="168.94" ry="35.95"/></g><g class="cls-6"><ellipse class="cls-7" cx="982.04" cy="1395.61" rx="417.55" ry="88.86"/><ellipse class="cls-8" cx="982.04" cy="1395.61" rx="408.34" ry="86.9"/><ellipse class="cls-9" cx="982.04" cy="1395.61" rx="399.14" ry="84.94"/><ellipse class="cls-10" cx="982.04" cy="1395.61" rx="389.93" ry="82.98"/><ellipse class="cls-11" cx="982.04" cy="1395.61" rx="380.72" ry="81.02"/><ellipse class="cls-12" cx="982.04" cy="1395.61" rx="371.51" ry="79.06"/><ellipse class="cls-13" cx="982.04" cy="1395.61" rx="362.3" ry="77.1"/><ellipse class="cls-14" cx="982.04" cy="1395.61" rx="353.1" ry="75.14"/><ellipse class="cls-15" cx="982.04" cy="1395.61" rx="343.89" ry="73.18"/><ellipse class="cls-16" cx="982.04" cy="1395.61" rx="334.68" ry="71.22"/><ellipse class="cls-17" cx="982.04" cy="1395.61" rx="325.47" ry="69.26"/><ellipse class="cls-18" cx="982.04" cy="1395.61" rx="316.27" ry="67.3"/><ellipse class="cls-19" cx="982.04" cy="1395.61" rx="307.06" ry="65.34"/><ellipse class="cls-20" cx="982.04" cy="1395.61" rx="297.85" ry="63.38"/><ellipse class="cls-21" cx="982.04" cy="1395.61" rx="288.64" ry="61.42"/><ellipse class="cls-22" cx="982.04" cy="1395.61" rx="279.43" ry="59.46"/><ellipse class="cls-23" cx="982.04" cy="1395.61" rx="270.23" ry="57.5"/><ellipse class="cls-24" cx="982.04" cy="1395.61" rx="261.02" ry="55.55"/><ellipse class="cls-25" cx="982.04" cy="1395.61" rx="251.81" ry="53.59"/><ellipse class="cls-26" cx="982.04" cy="1395.61" rx="242.6" ry="51.63"/><ellipse class="cls-27" cx="982.04" cy="1395.61" rx="233.4" ry="49.67"/><ellipse class="cls-28" cx="982.04" cy="1395.61" rx="224.19" ry="47.71"/><ellipse class="cls-29" cx="982.04" cy="1395.61" rx="214.98" ry="45.75"/><ellipse class="cls-30" cx="982.04" cy="1395.61" rx="205.77" ry="43.79"/><ellipse class="cls-31" cx="982.04" cy="1395.61" rx="196.56" ry="41.83"/><ellipse class="cls-32" cx="982.04" cy="1395.61" rx="187.36" ry="39.87"/><ellipse class="cls-33" cx="982.04" cy="1395.61" rx="178.15" ry="37.91"/><ellipse class="cls-34" cx="982.04" cy="1395.61" rx="168.94" ry="35.95"/></g><path class="cls-35" d="M2362.79,961.91l-56.83-38c11.85-21.41,17.18-46.54,14-73.5-.22-1.9-.47-3.76-.81-5.67-9.6-59.87-59-110.14-120.64-128.12a175.17,175.17,0,0,0-49.25-7.11c-26.91,0-51.5,6.3-72.19,17.39l-28.6-58.18c27.5-12.82,59.24-20,93.64-20a255.47,255.47,0,0,1,112.81,26.62c58.56,28.9,104.64,79,123.51,138.07a195.76,195.76,0,0,1,8.09,37C2391.39,891.59,2382.29,930,2362.79,961.91Z" transform="translate(-388.31 -295.68)"/><path class="cls-36" d="M2306,923.91c-1.14,2.08-2.33,4.11-3.6,6.1-23.48,37-67.23,61.27-120.09,61.27-5.28,0-10.62-.26-15.82-.72-52.77-4.87-100.62-33.47-129-73.88-13.88-19.76-23.07-42.32-25.9-66.27-3.13-26.7,2.07-51.66,13.71-72.94s29.41-38.64,51.79-50.57l4.46-26.39-33.06-31.79c-39.31,18.32-70.07,48.15-87.81,85-13.87,28.74-19.8,61.7-15.65,96.73,4.4,37.41,19.68,72.49,42.65,102.57q4.77,6.22,10,12.19c37.19,42.48,90.42,73.08,149.2,83.23,7.32,1.27,14.77,2.25,22.21,2.84,6.73.59,13.54.84,20.36.84,76.25,0,139.34-35.33,172.68-89,.25-.39.47-.77.68-1.15l4.46-26.39Z" transform="translate(-388.31 -295.68)"/><path class="cls-37" d="M2310.42,897.52c-1.14,2.08-2.33,4.11-3.6,6.1-23.48,37-67.23,61.27-120.09,61.27-5.29,0-10.62-.26-15.82-.72-52.77-4.87-100.63-33.47-129-73.88C2028.06,870.53,2018.87,848,2016,824c-3.13-26.7,2.07-51.66,13.71-72.95s29.41-38.63,51.79-50.56l-28.6-58.18c-39.31,18.32-70.08,48.15-87.81,85-13.87,28.74-19.8,61.7-15.65,96.73,4.4,37.41,19.67,72.49,42.65,102.57,3.17,4.15,6.52,8.21,10,12.19,37.19,42.48,90.42,73.08,149.2,83.23,7.32,1.27,14.76,2.25,22.21,2.84,6.73.59,13.54.84,20.35.84,76.25,0,139.35-35.33,172.69-89,.25-.38.47-.76.68-1.14Z" transform="translate(-388.31 -295.68)"/><path class="cls-38" d="M2367.25,935.52l-56.83-38c11.85-21.41,17.18-46.54,14-73.5-.21-1.9-.46-3.76-.8-5.67-9.6-59.87-59-110.14-120.64-128.12a175.17,175.17,0,0,0-49.25-7.11c-26.91,0-51.5,6.3-72.19,17.39l-28.6-58.18c27.5-12.82,59.24-20,93.64-20a255.47,255.47,0,0,1,112.81,26.62C2318,677.83,2364,727.89,2382.9,787a195,195,0,0,1,8.08,37C2395.85,865.2,2386.75,903.62,2367.25,935.52Z" transform="translate(-388.31 -295.68)"/><path class="cls-39" d="M1391.32,1577.22c-139.14-24-265.08-96.48-353.08-197l13.54-8.71,110.34-70.9c49.41,70.43,132.87,120.36,224.94,128.79l3.6,125.7Z" transform="translate(-388.31 -295.68)"/><path class="cls-40" d="M1850.52,1451.52,1624,1323.76c25-39.48,36.77-87.3,30.73-138.81q-.57-4.92-1.41-9.84l50.21-76.34c3.7,11.52,37.51,23,76.71,34.47,57.28,16.86,125.89,33.91,128,51.71C1919.83,1283.67,1897.77,1375.42,1850.52,1451.52Z" transform="translate(-388.31 -295.68)"/><path class="cls-41" d="M1493.18,875.33,1443,951.66A305.93,305.93,0,0,0,1357,939.25c-97.56,0-177.41,47.44-216.19,118.49L900.45,956.11C971.73,808,1132.09,707.62,1329.86,707.62,1424.32,707.62,1412,835.24,1493.18,875.33Z" transform="translate(-388.31 -295.68)"/><path class="cls-42" d="M1889.16,1097.37l-108.89,35.87c-39.2-11.52-73-23-76.71-34.47l-50.21,76.34C1636.63,1070.67,1550.5,983,1443,951.67l50.2-76.34c6.61,3.28,23.23-3,30.16,0C1661.5,935.93,1846.58,964.17,1889.16,1097.37Z" transform="translate(-388.31 -295.68)"/><path class="cls-43" d="M1162.11,1300.57,964.38,1427.68c-54.42-71.14-90.58-154.13-101-242.74-9.74-82.9,4.27-160.87,37.05-228.83l50.22-76.33,190.17,178c-20.32,37.09-29.36,80.65-23.93,127.2C1121.83,1226.76,1137.89,1266.1,1162.11,1300.57Z" transform="translate(-388.31 -295.68)"/><path class="cls-44" d="M1850.51,1451.51c-78.92,127.16-228.22,210.75-408.72,210.75-16.11,0-32.17-.65-48.09-2l-6.65-230.89c9.08.84,18.31,1.27,27.58,1.27,92.12,0,168.46-42.34,209.39-106.88L1867.67,1421Z" transform="translate(-388.31 -295.68)"/><path class="cls-45" d="M1443.91,1583.92q-26.55-2.18-52.59-6.7c-139.14-24-265.08-96.48-353.08-197-8.24-9.36-16.11-19-23.65-28.85l197.73-127.1c49.41,70.44,132.87,120.36,224.94,128.79Z" transform="translate(-388.31 -295.68)"/><path class="cls-46" d="M1900.72,1375.18l-226.48-127.76c25-39.48,36.76-87.3,30.72-138.81q-.56-4.92-1.4-9.84l235.8-77.74a460.44,460.44,0,0,1,19.11,87.58C1970,1207.33,1948,1299.08,1900.72,1375.18Z" transform="translate(-388.31 -295.68)"/><path class="cls-47" d="M1647,694.28,1493.18,875.33a305.94,305.94,0,0,0-85.94-12.41c-97.55,0-177.4,47.44-216.18,118.49L950.67,879.78c71.28-148.09,231.63-248.5,429.41-248.5C1474.54,631.28,1565.87,654.19,1647,694.28Z" transform="translate(-388.31 -295.68)"/><path class="cls-48" d="M1939.36,1021l-235.8,77.74c-16.72-104.43-102.85-192.11-210.38-223.44L1647,694.28C1785.61,762.7,1894.68,881.19,1939.36,1021Z" transform="translate(-388.31 -295.68)"/><path class="cls-49" d="M1212.32,1224.24l-197.73,127.1c-54.42-71.14-90.57-154.12-101-242.73-9.74-82.9,4.26-160.87,37-228.83l240.39,101.63c-20.32,37.09-29.36,80.65-23.93,127.2C1172.05,1150.43,1188.11,1189.77,1212.32,1224.24Z" transform="translate(-388.31 -295.68)"/><path class="cls-50" d="M1900.72,1375.18c-78.91,127.15-228.21,210.75-408.71,210.75q-24.16,0-48.1-2L1437.26,1353c9.09.84,18.32,1.27,27.59,1.27,92.12,0,168.46-42.34,209.39-106.88Z" transform="translate(-388.31 -295.68)"/><path class="cls-51" d="M1443.91,1583.92l-50.2,76.34c-173-14.19-331-104-429.32-232.58l50.2-76.34c7.54,9.84,15.41,19.49,23.65,28.85,88,100.55,213.94,173,353.08,197Q1417.32,1581.72,1443.91,1583.92Z" transform="translate(-388.31 -295.68)"/><path class="cls-52" d="M1276,1248.16h-42.41c-14,0-27.48-11.91-30-26.59l-21.49-114.83c-2.52-14.69,12.7-44.67,26.76-44.67l36.53,18.08c14,0,27.48,11.9,30,26.59l36.76,106.41C1314.7,1227.83,1290.08,1248.16,1276,1248.16Z" transform="translate(-388.31 -295.68)"/><path class="cls-53" d="M1401.61,1248.16h-42.4c-14.06,0-27.49-11.91-30-26.59l-29.45-171.68c-2.52-14.69,12.75-42.9,26.8-42.9L1363,1023.3c14,0,27.48,11.9,30,26.59l43.45,161C1439,1225.62,1415.66,1248.16,1401.61,1248.16Z" transform="translate(-388.31 -295.68)"/><path class="cls-54" d="M1527.19,1248.16h-42.4c-14,0-27.49-11.91-30-26.59l-39.38-223.29c-2.52-14.69,11.36-43.94,25.42-43.94l37.86,17.35c14,0,27.49,11.9,30,26.59L1564,1210.59C1566.53,1225.27,1541.25,1248.16,1527.19,1248.16Z" transform="translate(-388.31 -295.68)"/><path class="cls-55" d="M1652.78,1248.16h-42.41c-14,0-27.48-11.91-30-26.59l-29.45-171.68c-2.52-14.69,13.84-45.23,27.9-45.23l35.39,18.64c14,0,27.48,11.9,30,26.59l44.35,164.39C1691.08,1229,1666.83,1248.16,1652.78,1248.16Z" transform="translate(-388.31 -295.68)"/><path class="cls-56" d="M1292,1227.67h-42.41c-14,0-27.48-11.9-30-26.59l-21.49-114.82c-2.52-14.69,6.83-26.59,20.88-26.59h42.41c14,0,27.48,11.9,30,26.59l21.49,114.82C1315.42,1215.77,1306.07,1227.67,1292,1227.67Z" transform="translate(-388.31 -295.68)"/><path class="cls-57" d="M1417.6,1227.67h-42.4c-14,0-27.49-11.9-30-26.59l-29.45-171.68c-2.52-14.68,6.83-26.59,20.89-26.59H1379c14,0,27.49,11.91,30,26.59l29.45,171.68C1441,1215.77,1431.65,1227.67,1417.6,1227.67Z" transform="translate(-388.31 -295.68)"/><path class="cls-58" d="M1543.19,1227.67h-42.41c-14,0-27.48-11.9-30-26.59L1431.4,977.79c-2.52-14.68,6.83-26.58,20.88-26.58h42.4c14.06,0,27.49,11.9,30,26.58l39.38,223.29C1566.59,1215.77,1557.24,1227.67,1543.19,1227.67Z" transform="translate(-388.31 -295.68)"/><path class="cls-59" d="M1668.77,1227.67h-42.4c-14.06,0-27.49-11.9-30-26.59l-29.45-171.68c-2.52-14.68,6.83-26.59,20.88-26.59h42.41c14,0,27.48,11.91,30,26.59l29.45,171.68C1692.17,1215.77,1682.82,1227.67,1668.77,1227.67Z" transform="translate(-388.31 -295.68)"/><path class="cls-60" d="M1294,1225.48h-42.4c-14.05,0-27.49-11.9-30-26.59l-21.49-114.83a23.64,23.64,0,0,1,4-18.41c-4.94,4.87-7.44,12.24-6,20.61l21.49,114.82c2.52,14.69,16,26.59,30,26.59H1292a20.62,20.62,0,0,0,16.89-8.17A20.78,20.78,0,0,1,1294,1225.48Z" transform="translate(-388.31 -295.68)"/><path class="cls-61" d="M1431.21,1223a21.1,21.1,0,0,1-13.61,4.67h-42.39c-14.06,0-27.52-11.9-30-26.57l-29.43-171.7c-1.75-10.19,2.26-19.08,9.6-23.5-5.63,4.82-8.49,12.75-7,21.69l29.43,171.66c2.57,14.71,16,26.61,30,26.61h42.38A22,22,0,0,0,1431.21,1223Z" transform="translate(-388.31 -295.68)"/><path class="cls-62" d="M1556.81,1223a21.06,21.06,0,0,1-13.61,4.67h-42.44c-14,0-27.47-11.9-30-26.57l-39.37-223.27c-1.76-10.25,2.26-19.19,9.64-23.56-5.67,4.82-8.58,12.76-7,21.7l39.37,223.28c2.52,14.71,16,26.61,30,26.61h42.38A22,22,0,0,0,1556.81,1223Z" transform="translate(-388.31 -295.68)"/><path class="cls-63" d="M1682.26,1223a21.07,21.07,0,0,1-13.51,4.62h-42.38c-14.07,0-27.48-11.9-30-26.57l-29.47-171.7c-1.76-10.19,2.25-19.08,9.59-23.5-5.63,4.82-8.49,12.75-7,21.69L1599,1199.24c2.51,14.71,15.92,26.61,30,26.61h42.43A21.36,21.36,0,0,0,1682.26,1223Z" transform="translate(-388.31 -295.68)"/><path class="cls-64" d="M1431.46,1222.79a.88.88,0,0,1-.25.2,22,22,0,0,1-11,2.86h-42.38c-14.07,0-27.47-11.9-30-26.61l-29.43-171.66c-1.5-8.94,1.36-16.87,7-21.69,0,0,0,0,0,0a21.14,21.14,0,0,1,13.87-4.87h42.38c14.06,0,27.47,11.9,30,26.61l29.43,171.66C1442.86,1209.48,1438.84,1218.42,1431.46,1222.79Z" transform="translate(-388.31 -295.68)"/><path class="cls-65" d="M1557.06,1222.79a.88.88,0,0,1-.25.2,22,22,0,0,1-11,2.86h-42.38c-14.06,0-27.52-11.9-30-26.61L1434,976c-1.55-8.94,1.36-16.88,7-21.7.1,0,.15-.15.25-.2a21.1,21.1,0,0,1,13.61-4.67h42.39c14.06,0,27.47,11.9,30,26.57l39.37,223.28C1568.46,1209.48,1564.44,1218.42,1557.06,1222.79Z" transform="translate(-388.31 -295.68)"/><path class="cls-66" d="M1682.26,1223a21.36,21.36,0,0,1-10.85,2.81H1629c-14.06,0-27.47-11.9-30-26.61l-29.48-171.66c-1.51-8.94,1.35-16.87,7-21.69a0,0,0,0,0,0,0,21.09,21.09,0,0,1,13.86-4.87h42.43c14,0,27.48,11.9,30,26.61l29.42,171.66C1694.06,1209.68,1689.89,1218.72,1682.26,1223Z" transform="translate(-388.31 -295.68)"/><polygon class="cls-67" points="1674.31 486.09 1674.31 456.77 1518.59 472.11 1518.59 501.43 1549.8 543.48 1242.25 769.81 1081.94 595.87 435.02 985.27 435.02 1014.59 460.57 1053.84 1074.32 656.71 1236.23 832.38 1577.72 581.09 1614.14 630.16 1674.31 486.09"/><polygon class="cls-68" points="1674.31 456.77 1518.59 472.11 1549.8 514.16 1242.25 740.49 1081.94 566.55 435.02 985.27 460.57 1024.52 1074.32 627.39 1236.23 803.06 1577.72 551.77 1614.14 600.84 1674.31 456.77"/><polygon class="cls-69" points="1511.96 1327.92 2074.81 1264.63 1942.87 833.11 1380.02 896.4 1511.96 1327.92"/><polygon class="cls-70" points="1529.62 1296.89 2092.47 1233.6 1960.52 802.08 1397.67 865.37 1529.62 1296.89"/><polygon class="cls-71" points="1421.18 942.48 1984.03 879.19 1960.52 802.08 1397.67 865.37 1421.18 942.48"/><polygon class="cls-72" points="2092.47 1233.6 2074.81 1264.63 1511.96 1327.92 1529.62 1296.89 2092.47 1233.6"/><polygon class="cls-73" points="1380.02 896.4 1397.67 865.37 1421.18 942.48 1402.07 968.54 1380.02 896.4"/><path class="cls-74" d="M2132.71,1412.65a119.66,119.66,0,0,0-4.26-20.34c-10-33-34.23-63.92-65.1-84.92-3.21-2.18-6.47-4.22-9.81-6.18a154.23,154.23,0,0,0-49.65-19c-18.12-3.39-34.87-2.74-49.34,1.31-20.71,5.8-36.92,18.48-46.29,36.15-7.29,13.77-10.43,30.57-8.24,49.44,2.31,20.14,10.37,40.14,22.49,58.24,1.65,2.5,3.43,5,5.24,7.42a176.67,176.67,0,0,0,54.88,47.69,156.35,156.35,0,0,0,23.77,10.85c3.84,1.39,7.77,2.63,11.71,3.68,3.52,1,7.13,1.78,10.72,2.45,24.59,4.6,46.61,1.73,64-7a71.18,71.18,0,0,0,27-22.94,6.08,6.08,0,0,0,.35-.54C2130.45,1454.17,2135.27,1434.8,2132.71,1412.65Z" transform="translate(-388.31 -295.68)"/><path class="cls-75" d="M2120.17,1469.06a6.08,6.08,0,0,1-.35.54,71.18,71.18,0,0,1-27,22.94l-76.46-111,37.18-80.37c3.34,2,6.6,4,9.81,6.18,30.87,21,55.14,51.93,65.1,84.92a119.66,119.66,0,0,1,4.26,20.34C2135.27,1434.8,2130.45,1454.17,2120.17,1469.06Z" transform="translate(-388.31 -295.68)"/><path class="cls-76" d="M2092.82,1492.54c-17.38,8.68-39.4,11.55-64,7-3.59-.67-7.2-1.47-10.72-2.45-3.94-1-7.87-2.29-11.71-3.68a156.35,156.35,0,0,1-23.77-10.85l33.73-100.93Z" transform="translate(-388.31 -295.68)"/><path class="cls-77" d="M2340.48,1271.55l-193.34,28.28c-3.84.57-8-2.31-9.32-6.4l-2.7-8.63c-1.28-4.08.81-7.88,4.65-8.44l193.34-28.29c3.85-.56,8,2.32,9.32,6.4l2.71,8.63C2346.42,1267.19,2344.32,1271,2340.48,1271.55Z" transform="translate(-388.31 -295.68)"/><path class="cls-78" d="M2355.78,1320.34l-193.34,28.28c-3.84.57-8-2.31-9.31-6.4l-2.71-8.63c-1.28-4.08.81-7.88,4.66-8.44l193.34-28.29c3.84-.56,8,2.32,9.31,6.4l2.71,8.64C2361.72,1316,2359.62,1319.78,2355.78,1320.34Z" transform="translate(-388.31 -295.68)"/><path class="cls-79" d="M2371.08,1369.13l-193.34,28.28c-3.84.57-8-2.31-9.31-6.4l-2.71-8.63c-1.28-4.08.82-7.88,4.66-8.44l193.34-28.29c3.84-.56,8,2.32,9.31,6.4l2.71,8.64C2377,1364.77,2374.93,1368.57,2371.08,1369.13Z" transform="translate(-388.31 -295.68)"/><path class="cls-80" d="M2386.39,1417.92l-193.34,28.28c-3.85.57-8-2.31-9.32-6.4l-2.71-8.63c-1.28-4.08.82-7.88,4.66-8.44L2379,1394.44c3.85-.56,8,2.32,9.32,6.4l2.71,8.64C2392.33,1413.56,2390.23,1417.36,2386.39,1417.92Z" transform="translate(-388.31 -295.68)"/><polygon class="cls-81" points="1464.67 1387.76 1954.88 1644.53 1525.96 1772.92 1035.75 1516.14 1464.67 1387.76"/><polygon class="cls-82" points="1464.67 1381.18 1954.88 1637.96 1525.96 1766.35 1035.75 1509.57 1464.67 1381.18"/><polygon class="cls-81" points="1470.78 1409.51 1670.5 1514.12 1327.18 1616.89 1127.46 1512.28 1470.78 1409.51"/><path class="cls-83" d="M2105,1852.83l-301.91,92.65c-5.53,1.7-13.73,1-18.22-1.46h0c-4.49-2.5-3.64-5.93,1.89-7.63l301.9-92.66c5.53-1.69,13.74-1,18.23,1.46h0C2111.38,1847.7,2110.53,1851.13,2105,1852.83Z" transform="translate(-388.31 -295.68)"/><path class="cls-84" d="M2142.49,1873.69l-301.9,92.65c-5.53,1.7-13.74,1-18.23-1.46h0c-4.49-2.5-3.64-5.94,1.89-7.63l301.91-92.66c5.53-1.7,13.73-1,18.22,1.46h0C2148.87,1868.55,2148,1872,2142.49,1873.69Z" transform="translate(-388.31 -295.68)"/><path class="cls-85" d="M2180,1894.54l-301.91,92.66c-5.53,1.69-13.73,1-18.22-1.46h0c-4.5-2.49-3.65-5.93,1.88-7.63l301.91-92.65c5.53-1.7,13.73-1,18.23,1.46h0C2186.37,1889.41,2185.52,1892.85,2180,1894.54Z" transform="translate(-388.31 -295.68)"/><path class="cls-86" d="M2217.48,1915.4l-301.9,92.66c-5.54,1.69-13.74,1-18.23-1.46h0c-4.49-2.5-3.64-5.93,1.89-7.63l301.9-92.65c5.53-1.7,13.74-1,18.23,1.46h0C2223.86,1910.27,2223,1913.7,2217.48,1915.4Z" transform="translate(-388.31 -295.68)"/><polygon class="cls-87" points="1342.04 1551.31 1375.97 1569.09 1346.9 1577.79 1312.97 1560.01 1342.04 1551.31"/><polygon class="cls-88" points="1368.94 1524.17 1426.99 1554.58 1397.92 1563.28 1339.87 1532.87 1368.94 1524.17"/><polygon class="cls-89" points="1377.16 1487.24 1478.01 1540.06 1448.93 1548.77 1348.09 1495.94 1377.16 1487.24"/><polygon class="cls-90" points="1401.37 1458.21 1529.02 1525.55 1499.95 1534.25 1372.3 1466.91 1401.37 1458.21"/><polygon class="cls-91" points="1479.19 1458.21 1580.04 1511.04 1550.97 1519.74 1450.12 1466.91 1479.19 1458.21"/><g class="cls-6"><ellipse class="cls-7" cx="471.53" cy="1663.46" rx="258.66" ry="55.04"/><ellipse class="cls-8" cx="471.53" cy="1663.46" rx="252.96" ry="53.83"/><ellipse class="cls-9" cx="471.53" cy="1663.46" rx="247.25" ry="52.62"/><ellipse class="cls-10" cx="471.53" cy="1663.46" rx="241.55" ry="51.4"/><ellipse class="cls-11" cx="471.53" cy="1663.46" rx="235.85" ry="50.19"/><ellipse class="cls-12" cx="471.53" cy="1663.46" rx="230.14" ry="48.97"/><ellipse class="cls-13" cx="471.53" cy="1663.46" rx="224.44" ry="47.76"/><ellipse class="cls-14" cx="471.53" cy="1663.46" rx="218.73" ry="46.55"/><ellipse class="cls-15" cx="471.53" cy="1663.46" rx="213.03" ry="45.33"/><ellipse class="cls-16" cx="471.53" cy="1663.46" rx="207.33" ry="44.12"/><ellipse class="cls-17" cx="471.53" cy="1663.46" rx="201.62" ry="42.91"/><ellipse class="cls-18" cx="471.53" cy="1663.46" rx="195.92" ry="41.69"/><ellipse class="cls-19" cx="471.53" cy="1663.46" rx="190.21" ry="40.48"/><ellipse class="cls-20" cx="471.53" cy="1663.46" rx="184.51" ry="39.26"/><ellipse class="cls-21" cx="471.53" cy="1663.46" rx="178.81" ry="38.05"/><ellipse class="cls-22" cx="471.53" cy="1663.46" rx="173.1" ry="36.84"/><ellipse class="cls-23" cx="471.53" cy="1663.46" rx="167.4" ry="35.62"/><ellipse class="cls-24" cx="471.53" cy="1663.46" rx="161.69" ry="34.41"/><ellipse class="cls-25" cx="471.53" cy="1663.46" rx="155.99" ry="33.2"/><ellipse class="cls-26" cx="471.53" cy="1663.46" rx="150.29" ry="31.98"/><ellipse class="cls-27" cx="471.53" cy="1663.46" rx="144.58" ry="30.77"/><ellipse class="cls-28" cx="471.53" cy="1663.46" rx="138.88" ry="29.55"/><ellipse class="cls-29" cx="471.53" cy="1663.46" rx="133.17" ry="28.34"/><ellipse class="cls-30" cx="471.53" cy="1663.46" rx="127.47" ry="27.13"/><ellipse class="cls-31" cx="471.53" cy="1663.46" rx="121.77" ry="25.91"/><ellipse class="cls-32" cx="471.53" cy="1663.46" rx="116.06" ry="24.7"/><ellipse class="cls-33" cx="471.53" cy="1663.46" rx="110.36" ry="23.48"/><ellipse class="cls-34" cx="471.53" cy="1663.46" rx="104.65" ry="22.27"/></g><path class="cls-92" d="M986.14,1549.27v247.46a18.37,18.37,0,0,1-9.18,15.91l-83.69,48.24a11.64,11.64,0,0,1-17.44-10.08v-239a34.75,34.75,0,0,1,17.41-30.09l74.62-43a12,12,0,0,1,6.07-1.64,11.69,11.69,0,0,1,3.57.57A12.1,12.1,0,0,1,986.14,1549.27Z" transform="translate(-388.31 -295.68)"/><path class="cls-93" d="M973.93,1537.06a12,12,0,0,0-6.07,1.64l-74.62,43a34.75,34.75,0,0,0-17.41,30.09v239a11.61,11.61,0,0,0,7.54,10.88H791.88a11.54,11.54,0,0,1-7.54-10.88v-239a34.77,34.77,0,0,1,17.37-30.09l74.65-43a11.89,11.89,0,0,1,9.64-1.07l.5-.57Z" transform="translate(-388.31 -295.68)"/><path class="cls-94" d="M1057.81,1574.84v205.41a15.24,15.24,0,0,1-7.62,13.21l-69.46,40a9.52,9.52,0,0,1-8.23.67,9.63,9.63,0,0,1-6.25-9V1626.75a28.84,28.84,0,0,1,14.45-25l61.94-35.72a10,10,0,0,1,5-1.35,9.59,9.59,0,0,1,3,.47A10,10,0,0,1,1057.81,1574.84Z" transform="translate(-388.31 -295.68)"/><path class="cls-95" d="M1047.68,1564.71a10,10,0,0,0-5,1.35l-61.94,35.72a28.84,28.84,0,0,0-14.45,25v198.38a9.63,9.63,0,0,0,6.25,9H896.56a9.57,9.57,0,0,1-6.26-9V1626.75a28.86,28.86,0,0,1,14.43-25l62-35.72a9.93,9.93,0,0,1,8-.88l.42-.47Z" transform="translate(-388.31 -295.68)"/><path class="cls-96" d="M1264.4,1796.34a21.55,21.55,0,0,1-8.86,3.51Z" transform="translate(-388.31 -295.68)"/><path class="cls-97" d="M1287.09,1721.08c-2.83,6.41-11.35,23.69-14.18,24.76l-52,24.48c3-2,11.13-18.41,13.86-24.6,3.08-7-7.39-25.58-7.39-25.58l.07,0,52.22-24.61S1290.13,1714.1,1287.09,1721.08Z" transform="translate(-388.31 -295.68)"/><path class="cls-98" d="M1286.46,1633.89l-52.29,24.63s15.37,14.17,13.54,31.39c-1.79,16.72-19.19,29.41-20.26,30.2l-.07,0s10.47,18.57,7.39,25.58c-2.73,6.19-10.81,22.65-13.86,24.6l-.31.16c2.35,1.94,9.11,10,8.64,24.38a25.17,25.17,0,0,1-1.26,6.94c-2.35.16-4.84.32-7.38.47-41,2.55-102.59,5.79-118.21,3.37-24-3.68-64-23.38-64-23.38L986.1,1615.44l52.28-24.63a175.47,175.47,0,0,0,25.83,1.54c14.86-.19,32.43-2.55,41.89-11.38,7.16-6.69,14.76-19.35,21.55-34.34,9.21-20.27,16.91-44.75,20-64.13,2.79,7,4.33,15.39,4,25.67-1.85,57.4-3.08,103.56-3.08,103.56l52.29-24.6s76.32-8.64,85.56,1.82S1286.46,1633.89,1286.46,1633.89Z" transform="translate(-388.31 -295.68)"/><path class="cls-99" d="M1227.45,1720.11l-.07,0s10.47,18.57,7.39,25.58c-2.73,6.19-10.81,22.65-13.86,24.6l-.31.16c2.35,1.94,9.11,10,8.64,24.38a25.17,25.17,0,0,1-1.26,6.94,32.89,32.89,0,0,1-7.38,11.94,53.44,53.44,0,0,1-9.62,8,18.47,18.47,0,0,1-8.83,3c-23,1.6-130.62-5.16-152.05-8.42-24-3.71-64-31.09-64-31.09V1615.44s30.32,4.56,52.28-1.85c6-1.73,11.44-4.31,15.43-8a67.78,67.78,0,0,0,10.4-13.22c15.33-24.32,30-67.37,32.3-94.49,2.67-31.52.29-46.31,0-47.76l0-.13s38.43.54,51.16,32.53c2.79,7,4.33,15.39,4,25.67-1.85,57.4-3.08,103.56-3.08,103.56s76.32-8.61,85.56,1.86,0,44.93,0,44.93,15.37,14.17,13.54,31.39C1245.92,1706.63,1228.52,1719.32,1227.45,1720.11Z" transform="translate(-388.31 -295.68)"/><path class="cls-100" d="M1204,1483.56c-1.86,57.38-3.08,103.57-3.08,103.57l-52.29,24.6s1.23-46.16,3.08-103.56c.31-10.28-1.23-18.7-4-25.67-12.73-32-51.16-32.53-51.16-32.53l52.32-24.6S1205.83,1426.19,1204,1483.56Z" transform="translate(-388.31 -295.68)"/><path class="cls-101" d="M1281.52,1770.22c-.41,12.6-10.49,21.56-17.12,26.12l-8.86,3.51-34.94,13.89a32.89,32.89,0,0,0,7.38-11.94,25.17,25.17,0,0,0,1.26-6.94c.47-14.39-6.29-22.44-8.64-24.38l.31-.16,52-24.48C1275.3,1747.85,1282,1755.86,1281.52,1770.22Z" transform="translate(-388.31 -295.68)"/><path class="cls-102" d="M1300,1665.31c-1.85,17.22-20.33,30.19-20.33,30.19l-52.22,24.61c1.07-.79,18.47-13.48,20.26-30.2,1.83-17.22-13.54-31.39-13.54-31.39l52.29-24.63S1301.85,1648.06,1300,1665.31Z" transform="translate(-388.31 -295.68)"/><ellipse class="cls-103" cx="2343.19" cy="1686.03" rx="116.7" ry="137.74" transform="translate(-873 1970.3) rotate(-47.33)"/><ellipse class="cls-104" cx="2366.9" cy="1661.96" rx="116.7" ry="137.74" transform="translate(-847.67 1979.98) rotate(-47.33)"/><path class="cls-105" d="M2394.62,1786.32c-70,0-136.18-56.77-147.81-126.8-9-54.34,17.49-100.69,62.52-118.73-49.07,16-78.66,64.18-69.2,121.17,11.62,70,77.8,126.8,147.81,126.8a115.61,115.61,0,0,0,43.2-8.07A117.57,117.57,0,0,1,2394.62,1786.32Z" transform="translate(-388.31 -295.68)"/><path class="cls-106" d="M2306.43,1635.52l30.84,66a14.71,14.71,0,0,0,18.88,7.4l103.2-42a7.74,7.74,0,0,0,4.33-9.9l-5.46-14.49a7.74,7.74,0,0,0-10.13-4.46l-73.56,29.57a14.7,14.7,0,0,1-18.63-7.05l-19.52-38.88a6.82,6.82,0,0,0-8.85-3.18l-17.69,7.84A6.81,6.81,0,0,0,2306.43,1635.52Z" transform="translate(-388.31 -295.68)"/><g class="cls-6"><ellipse class="cls-7" cx="1020.03" cy="1862.3" rx="217.73" ry="46.33"/><ellipse class="cls-8" cx="1020.03" cy="1862.3" rx="212.93" ry="45.31"/><ellipse class="cls-9" cx="1020.03" cy="1862.3" rx="208.13" ry="44.29"/><ellipse class="cls-10" cx="1020.03" cy="1862.3" rx="203.33" ry="43.27"/><ellipse class="cls-11" cx="1020.03" cy="1862.3" rx="198.53" ry="42.25"/><ellipse class="cls-12" cx="1020.03" cy="1862.3" rx="193.72" ry="41.22"/><ellipse class="cls-13" cx="1020.03" cy="1862.3" rx="188.92" ry="40.2"/><ellipse class="cls-14" cx="1020.03" cy="1862.3" rx="184.12" ry="39.18"/><ellipse class="cls-15" cx="1020.03" cy="1862.3" rx="179.32" ry="38.16"/><ellipse class="cls-16" cx="1020.03" cy="1862.3" rx="174.52" ry="37.14"/><ellipse class="cls-17" cx="1020.03" cy="1862.3" rx="169.72" ry="36.12"/><ellipse class="cls-18" cx="1020.03" cy="1862.3" rx="164.92" ry="35.09"/><ellipse class="cls-19" cx="1020.03" cy="1862.3" rx="160.11" ry="34.07"/><ellipse class="cls-20" cx="1020.03" cy="1862.3" rx="155.31" ry="33.05"/><ellipse class="cls-21" cx="1020.03" cy="1862.3" rx="150.51" ry="32.03"/><ellipse class="cls-22" cx="1020.03" cy="1862.3" rx="145.71" ry="31.01"/><ellipse class="cls-23" cx="1020.03" cy="1862.3" rx="140.91" ry="29.99"/><ellipse class="cls-24" cx="1020.03" cy="1862.3" rx="136.11" ry="28.96"/><ellipse class="cls-25" cx="1020.03" cy="1862.3" rx="131.31" ry="27.94"/><ellipse class="cls-26" cx="1020.03" cy="1862.3" rx="126.5" ry="26.92"/><ellipse class="cls-27" cx="1020.03" cy="1862.3" rx="121.7" ry="25.9"/><ellipse class="cls-28" cx="1020.03" cy="1862.3" rx="116.9" ry="24.88"/><ellipse class="cls-29" cx="1020.03" cy="1862.3" rx="112.1" ry="23.86"/><ellipse class="cls-30" cx="1020.03" cy="1862.3" rx="107.3" ry="22.83"/><ellipse class="cls-31" cx="1020.03" cy="1862.3" rx="102.5" ry="21.81"/><ellipse class="cls-32" cx="1020.03" cy="1862.3" rx="97.7" ry="20.79"/><ellipse class="cls-33" cx="1020.03" cy="1862.3" rx="92.9" ry="19.77"/><ellipse class="cls-34" cx="1020.03" cy="1862.3" rx="88.09" ry="18.75"/></g><ellipse class="cls-107" cx="999.31" cy="1781.56" rx="232.14" ry="50.84"/><ellipse class="cls-108" cx="999.31" cy="1777.02" rx="232.14" ry="50.84"/><path class="cls-109" d="M1266.06,1832.12v238.76c0,15.07,54.42,27.28,121.56,27.28s121.57-12.21,121.57-27.28V1832.12Z" transform="translate(-388.31 -295.68)"/><path class="cls-110" d="M1266.06,1830.48v238.76c0,15.07,54.42,27.28,121.56,27.28s121.57-12.21,121.57-27.28V1830.48Z" transform="translate(-388.31 -295.68)"/><ellipse class="cls-111" cx="999.31" cy="1533.02" rx="121.57" ry="27.28"/><path class="cls-112" d="M1496.85,1828.7c0,5.47-8,10.54-21.54,14.62-19.9,6-51.79,9.89-87.7,9.89s-67.76-3.88-87.69-9.89c-13.5-4.08-21.51-9.15-21.51-14.62,0-13.53,48.87-24.52,109.2-24.52S1496.85,1815.17,1496.85,1828.7Z" transform="translate(-388.31 -295.68)"/><path class="cls-113" d="M1475.31,1843.32c-19.9,6-51.79,9.89-87.7,9.89s-67.76-3.88-87.69-9.89c19.93-6,51.78-9.91,87.69-9.91S1455.41,1837.29,1475.31,1843.32Z" transform="translate(-388.31 -295.68)"/><path class="cls-114" d="M1523.06,1889.67l-35.9-13.13-10.39,4,45.43,19.51v153.8l-35-13.38-10.39,4,42.28,16.58c7.53,2.69,16.91-.7,16.91-6.12V1903.46C1536,1897.74,1531,1892.47,1523.06,1889.67Z" transform="translate(-388.31 -295.68)"/><path class="cls-115" d="M1512.67,1893.72l-35.9-13.13v9.15l35,14.41V2058l-35-13.39v8.64l31.89,12c7.53,2.69,16.91-.7,16.91-6.12V1907.51C1525.57,1901.79,1520.64,1896.52,1512.67,1893.72Z" transform="translate(-388.31 -295.68)"/><path class="cls-116" d="M763.73,1131.85H474.91a23.84,23.84,0,0,1-23.2-18.35l-50.7-214L389.2,849.74A14.24,14.24,0,0,1,403,832.24H699.15a23.62,23.62,0,0,1,23,18.2l11.64,49.08,49.27,207.9A19.87,19.87,0,0,1,763.73,1131.85Z" transform="translate(-388.31 -295.68)"/><path class="cls-117" d="M733.8,899.52H401l94.77,178.24c4.77,9,15.93,15.28,27,15.28H811.58c12.83,0,19.83-10,14.31-20.35Z" transform="translate(-388.31 -295.68)"/><path class="cls-118" d="M732.38,985.92H527.14a9.14,9.14,0,0,1-8.23-6.45h0c-1-3.55,1.14-6.46,4.69-6.46H728.83a9.15,9.15,0,0,1,8.23,6.46h0C738,983,735.93,985.92,732.38,985.92Z" transform="translate(-388.31 -295.68)"/><path class="cls-119" d="M697.59,946.05H525.77a7.64,7.64,0,0,1-6.89-5.4h0c-.82-3,.94-5.41,3.91-5.41H694.62a7.65,7.65,0,0,1,6.89,5.41h0C702.33,943.62,700.56,946.05,697.59,946.05Z" transform="translate(-388.31 -295.68)"/><path class="cls-120" d="M741.37,1018.63H536.14a9.13,9.13,0,0,1-8.23-6.45h0c-1-3.55,1.13-6.46,4.68-6.46H737.82a9.14,9.14,0,0,1,8.23,6.46h0C747,1015.73,744.92,1018.63,741.37,1018.63Z" transform="translate(-388.31 -295.68)"/><path class="cls-121" d="M750.36,1051.34H545.13a9.14,9.14,0,0,1-8.23-6.45h0c-1-3.55,1.13-6.46,4.68-6.46H746.82a9.15,9.15,0,0,1,8.23,6.46h0C756,1048.44,753.91,1051.34,750.36,1051.34Z" transform="translate(-388.31 -295.68)"/><ellipse class="cls-122" cx="570.3" cy="868.32" rx="18.29" ry="21.86" transform="translate(-843.64 407.35) rotate(-47.55)"/><g class="cls-123"><ellipse class="cls-7" cx="148.05" cy="1377.62" rx="148.05" ry="39.23"/><ellipse class="cls-8" cx="148.05" cy="1377.62" rx="144.79" ry="38.36"/><ellipse class="cls-9" cx="148.05" cy="1377.62" rx="141.52" ry="37.5"/><ellipse class="cls-10" cx="148.05" cy="1377.62" rx="138.26" ry="36.63"/><ellipse class="cls-11" cx="148.05" cy="1377.62" rx="134.99" ry="35.77"/><ellipse class="cls-12" cx="148.05" cy="1377.62" rx="131.73" ry="34.9"/><ellipse class="cls-13" cx="148.05" cy="1377.62" rx="128.46" ry="34.04"/><ellipse class="cls-14" cx="148.05" cy="1377.62" rx="125.2" ry="33.17"/><ellipse class="cls-15" cx="148.05" cy="1377.62" rx="121.93" ry="32.31"/><ellipse class="cls-16" cx="148.05" cy="1377.62" rx="118.67" ry="31.44"/><ellipse class="cls-17" cx="148.05" cy="1377.62" rx="115.4" ry="30.58"/><ellipse class="cls-18" cx="148.05" cy="1377.62" rx="112.14" ry="29.71"/><ellipse class="cls-19" cx="148.05" cy="1377.62" rx="108.88" ry="28.85"/><ellipse class="cls-20" cx="148.05" cy="1377.62" rx="105.61" ry="27.98"/><ellipse class="cls-21" cx="148.05" cy="1377.62" rx="102.35" ry="27.12"/><ellipse class="cls-22" cx="148.05" cy="1377.62" rx="99.08" ry="26.25"/><ellipse class="cls-23" cx="148.05" cy="1377.62" rx="95.82" ry="25.39"/><ellipse class="cls-24" cx="148.05" cy="1377.62" rx="92.55" ry="24.52"/><ellipse class="cls-25" cx="148.05" cy="1377.62" rx="89.29" ry="23.66"/><ellipse class="cls-26" cx="148.05" cy="1377.62" rx="86.02" ry="22.79"/><ellipse class="cls-27" cx="148.05" cy="1377.62" rx="82.76" ry="21.93"/><ellipse class="cls-28" cx="148.05" cy="1377.62" rx="79.49" ry="21.06"/><ellipse class="cls-29" cx="148.05" cy="1377.62" rx="76.23" ry="20.2"/><ellipse class="cls-30" cx="148.05" cy="1377.62" rx="72.96" ry="19.33"/><ellipse class="cls-31" cx="148.05" cy="1377.62" rx="69.7" ry="18.47"/><ellipse class="cls-32" cx="148.05" cy="1377.62" rx="66.43" ry="17.6"/><ellipse class="cls-33" cx="148.05" cy="1377.62" rx="63.17" ry="16.74"/><ellipse class="cls-34" cx="148.05" cy="1377.62" rx="59.9" ry="15.87"/></g><path class="cls-124" d="M643.23,1578.08c-23.64-6.24-59.32-10.22-99.25-10.22s-75.63,4-99.27,10.22H415.07v18c0,15.59,57.73,28.23,128.91,28.23,65.17,0,119.07-10.6,127.66-24.36a7.17,7.17,0,0,0,1.22-3.87v-18Z" transform="translate(-388.31 -295.68)"/><path class="cls-125" d="M672.86,1578.08a7.17,7.17,0,0,1-1.22,3.87c-8.59,13.76-62.48,24.37-127.66,24.37-71.18,0-128.91-12.65-128.91-28.24s57.73-28.23,128.91-28.23S672.86,1562.49,672.86,1578.08Z" transform="translate(-388.31 -295.68)"/><path class="cls-126" d="M634.84,1286a5.06,5.06,0,0,1-.85,2.73c-6.06,9.7-44.06,17.18-90,17.18-50.18,0-90.88-8.91-90.88-19.91s40.7-19.9,90.88-19.9S634.84,1275,634.84,1286Z" transform="translate(-388.31 -295.68)"/><path class="cls-127" d="M544,1298.14c-46.74,0-74.67-7.38-81.91-12.18,7.24-4.79,35.17-12.17,81.91-12.17s74.64,7.37,81.9,12.17C618.6,1290.77,590.68,1298.14,544,1298.14Z" transform="translate(-388.31 -295.68)"/><path class="cls-128" d="M569.14,1426.91a1.34,1.34,0,0,0,.18-.66c0-1.56-2.92-3-7.62-4,4.7-1,7.62-2.41,7.62-4a1.31,1.31,0,0,0-.18-.66c71.73-42.78,66.73-114.19,64.85-129-6.06,9.7-44.06,17.18-90,17.18-50.18,0-90.88-8.91-90.88-19.91,0,0-16,84.56,65.54,132.36,0,1.55,2.92,3,7.61,4-4.69,1-7.61,2.41-7.61,4-81.57,47.79-65.54,132.35-65.54,132.35a5.27,5.27,0,0,0,1.06,3.05,9,9,0,0,0-1.06,4.15c0,15,40.7,27.1,90.88,27.1s90.87-12.14,90.87-27.1a8.78,8.78,0,0,0-.85-3.72c-.07-.14-.16-.27-.23-.41a5.29,5.29,0,0,0,1.08-3.07,5.08,5.08,0,0,0-.85-2.73C635.87,1541.1,640.87,1469.69,569.14,1426.91Z" transform="translate(-388.31 -295.68)"/><path class="cls-129" d="M544,1585.17c-54,0-83.15-13.75-83.15-19.37a1.51,1.51,0,0,1,.2-.61l2.15-4.15-2.4-3.41-.09-.47c-.59-3.22-13.83-43.12,61.86-87.47l3.82-2.24V1467l1.51-.36v-51.88c-.58-.13-1.08-.25-1.51-.37v-.47l-3.82-2.24c-56.83-33.3-63.53-94.41-63.08-119.39,24.22,11,72.33,11.76,84.51,11.76,29,0,63.71-3.1,83.14-11.2.16,25-7,85.42-61.93,118.2l-6.63,4,1.53,2.58V1427l-1.53,39.34,6.63,4c67.76,40.41,62.82,71.4,61.14,84.58l-.35,2.76.55.88L624.8,1561l2.23,4.45a.94.94,0,0,1,.08.34C627.11,1571.42,598,1585.17,544,1585.17Z" transform="translate(-388.31 -295.68)"/><path class="cls-130" d="M643.23,1259.63c-23.64-6.25-59.32-10.23-99.25-10.23s-75.63,4-99.27,10.23H415.07v18c0,15.59,57.73,28.23,128.91,28.23,65.17,0,119.07-10.61,127.66-24.36a7.19,7.19,0,0,0,1.22-3.87v-18Z" transform="translate(-388.31 -295.68)"/><path class="cls-131" d="M672.86,1259.63a7.17,7.17,0,0,1-1.22,3.87c-8.59,13.76-62.48,24.36-127.66,24.36-71.18,0-128.91-12.64-128.91-28.23S472.8,1231.4,544,1231.4,672.86,1244,672.86,1259.63Z" transform="translate(-388.31 -295.68)"/><polygon class="cls-132" points="1060.83 446.97 896.59 87.44 577.52 317.65 570.12 307.39 901.69 68.17 1064.3 424.13 1246.12 220.93 1450.94 392.36 1577.13 242 1586.81 250.13 1452.51 410.16 1247.38 238.48 1060.83 446.97"/><circle class="cls-133" cx="1448" cy="761.31" r="68.46" transform="translate(-502.53 951.19) rotate(-45)"/><circle class="cls-134" cx="1469.04" cy="768.55" r="68.46" transform="translate(-2.86 1727.7) rotate(-76.81)"/><circle class="cls-135" cx="1276.27" cy="367.08" r="71.4" transform="translate(-274.07 714.29) rotate(-45)"/><circle class="cls-136" cx="1298.21" cy="374.63" r="71.4" transform="translate(-272.98 732.01) rotate(-45)"/><circle class="cls-137" cx="1632.1" cy="488.81" r="61.21" transform="translate(-395.21 -272.04) rotate(-0.83)"/><circle class="cls-138" cx="1650.91" cy="495.28" r="61.21" transform="translate(419.36 1702.85) rotate(-77.41)"/><circle class="cls-139" cx="1838.96" cy="692.86" r="38.69" transform="translate(-513.48 460.8) rotate(-22.5)"/><circle class="cls-140" cx="1850.85" cy="696.95" r="38.69" transform="translate(358.99 2042.47) rotate(-76.72)"/><circle class="cls-141" cx="1970.28" cy="537.66" r="38.69" transform="translate(606.02 2036.02) rotate(-76.72)"/><circle class="cls-142" cx="1982.17" cy="541.75" r="38.69" transform="translate(485.5 1976.39) rotate(-72.64)"/><g class="cls-143"><polygon class="cls-144" points="593.99 215.91 559.22 214.18 598.62 190.23 633.39 191.97 593.99 215.91"/><polygon class="cls-145" points="596.81 489.14 562.04 487.4 529.68 454.18 564.45 455.91 596.81 489.14"/><path class="cls-146" d="M963,675.15l.62-.81c.58-.76,1.16-1.51,1.72-2.29.28-.39.54-.79.82-1.19.46-.67.93-1.34,1.38-2,.29-.45.56-.9.85-1.36.4-.65.81-1.31,1.2-2,.28-.48.55-1,.82-1.46.37-.66.74-1.32,1.09-2,.26-.5.52-1,.77-1.53.34-.67.66-1.35,1-2l.72-1.6c.3-.69.59-1.38.87-2.08.22-.55.44-1.09.65-1.64.27-.71.53-1.43.78-2.15.19-.55.39-1.1.57-1.66q.36-1.12.69-2.25c.16-.55.33-1.1.48-1.65.22-.8.42-1.6.61-2.41.13-.53.27-1,.38-1.58.2-.9.38-1.8.55-2.71.08-.46.18-.91.26-1.36.24-1.37.45-2.76.62-4.15,5.5-44.85-24.88-85.71-67.85-91.26q-3-.39-6-.54l-34.76-1.73c2,.1,4,.27,6,.53,43,5.56,73.36,46.42,67.85,91.26-.17,1.4-.38,2.78-.62,4.15-.08.46-.18.91-.26,1.37-.17.91-.35,1.81-.54,2.71-.12.53-.26,1-.39,1.58-.19.81-.39,1.61-.61,2.41-.15.55-.32,1.1-.48,1.64-.22.76-.45,1.51-.69,2.26-.18.55-.38,1.1-.57,1.66-.25.72-.51,1.44-.78,2.15-.21.55-.43,1.09-.65,1.64-.28.7-.57,1.39-.87,2.08l-.72,1.6c-.32.68-.64,1.35-1,2l-.78,1.54c-.35.67-.72,1.34-1.08,2-.28.49-.55,1-.83,1.46-.39.67-.8,1.32-1.2,2-.29.45-.56.91-.85,1.36-.45.69-.91,1.36-1.38,2-.27.39-.54.8-.82,1.19-.56.78-1.14,1.53-1.72,2.29-.21.26-.41.54-.62.81-.8,1-1.63,2-2.48,3-.17.2-.36.39-.53.58-.68.77-1.37,1.52-2.08,2.26l-1,1c-.58.58-1.16,1.16-1.75,1.72-.38.36-.77.7-1.16,1.05-.56.51-1.12,1-1.69,1.51-.42.36-.84.7-1.26,1s-1.13.93-1.71,1.38l-1,.76c-1.42,1.07-2.86,2.1-4.34,3.07l-.06,0c-1.47,1-3,1.85-4.51,2.71l-.93.52q-2.26,1.23-4.6,2.31l-.88.39c-1.51.67-3,1.3-4.58,1.87l-.54.2c-.35.13-.71.24-1.06.36-.75.26-1.49.51-2.24.75l-1.31.38c-.68.2-1.36.39-2.06.57l-1.4.35-2,.46-1.45.29-2,.35-1.49.23-2.05.26c-.49.05-1,.11-1.48.15-.71.07-1.42.12-2.14.17l-1.42.09-2.34.06-1.25,0c-1.19,0-2.38,0-3.58-.09l34.77,1.73q1.68.09,3.36.09h.22l1.25,0q1.17,0,2.34-.06c.48,0,1-.06,1.42-.09l2.14-.16,1.48-.16c.69-.08,1.37-.16,2.05-.26l1.49-.23,2-.35,1.46-.29c.68-.14,1.35-.3,2-.46l1.4-.34c.7-.18,1.38-.38,2.06-.58l1.31-.38c.75-.23,1.49-.49,2.24-.74.35-.13.71-.24,1.06-.36l.18-.06.36-.15c1.54-.57,3.07-1.2,4.58-1.87l.87-.39c1.57-.72,3.1-1.49,4.61-2.31l.93-.52c1.53-.86,3-1.75,4.51-2.71l.06,0c1.48-1,2.92-2,4.34-3.08.16-.12.34-.23.5-.36l.5-.4q.87-.67,1.71-1.38l1.26-1,1.69-1.51c.39-.36.78-.7,1.16-1.06.59-.56,1.17-1.14,1.75-1.72l1-1c.71-.73,1.4-1.49,2.08-2.25.17-.2.36-.39.53-.59C961.35,677.15,962.17,676.16,963,675.15Z" transform="translate(-388.31 -295.68)"/><path class="cls-147" d="M911.62,439.92l-34.77-1.73c-2.62-.13-5.24-.2-7.84-.21h-.2c-2.81,0-5.6,0-8.39.18l34.77,1.74q4.17-.19,8.39-.19C906.25,439.72,908.93,439.78,911.62,439.92Z" transform="translate(-388.31 -295.68)"/><polygon class="cls-148" points="494.98 190.16 460.21 188.43 472.11 142.48 506.88 144.21 494.98 190.16"/><path class="cls-149" d="M880.23,805.24a168.42,168.42,0,0,1-29-6.36l-34.77-1.73a168.42,168.42,0,0,0,29,6.36q6.72.87,13.39,1.2l34.77,1.73Q887,806.11,880.23,805.24Z" transform="translate(-388.31 -295.68)"/><polygon class="cls-150" points="462.94 503.2 428.17 501.46 428.05 454.07 462.82 455.8 462.94 503.2"/><path class="cls-151" d="M860.23,491.73c2.06-.74,4.15-1.41,6.26-2,.72-.22,1.45-.42,2.18-.62,1.72-.49,3.45-.93,5.19-1.34.72-.17,1.44-.35,2.16-.5,2.41-.53,4.82-1,7.27-1.38l-34.77-1.74c-2.44.39-4.86.86-7.27,1.38-.72.16-1.44.34-2.16.51q-2.61.62-5.19,1.33l-2.18.62q-3.16.94-6.26,2.05c-.24.08-.48.15-.71.24l-.15,0c-2.45.9-4.88,1.87-7.27,2.91l34.77,1.73q3.66-1.59,7.42-2.95C859.75,491.88,860,491.81,860.23,491.73Z" transform="translate(-388.31 -295.68)"/><path class="cls-1" d="M851.13,751.49l-34.77-1.73a130.93,130.93,0,0,1-28-16.55l34.77,1.73A130.93,130.93,0,0,0,851.13,751.49Z" transform="translate(-388.31 -295.68)"/><g class="cls-152"><g class="cls-143"><path class="cls-1" d="M851.13,751.49l-34.77-1.73a130.93,130.93,0,0,1-28-16.55l34.77,1.73a130.93,130.93,0,0,0,28,16.55" transform="translate(-388.31 -295.68)"/></g></g><path class="cls-2" d="M779.9,569.84l-34.77-1.73a140.06,140.06,0,0,1,16-29.28l34.77,1.73A140.06,140.06,0,0,0,779.9,569.84Z" transform="translate(-388.31 -295.68)"/><g class="cls-153"><g class="cls-143"><path class="cls-2" d="M779.9,569.84l-34.77-1.73a140.06,140.06,0,0,1,16-29.28l34.77,1.73a140.06,140.06,0,0,0-16,29.28" transform="translate(-388.31 -295.68)"/></g></g><path class="cls-3" d="M779.32,676.12l-34.77-1.73a141.82,141.82,0,0,1-8.44-32.2l34.77,1.73A141.68,141.68,0,0,0,779.32,676.12Z" transform="translate(-388.31 -295.68)"/><g class="cls-154"><g class="cls-143"><path class="cls-3" d="M779.32,676.12l-34.77-1.73a141.82,141.82,0,0,1-8.44-32.2l34.77,1.73a141.68,141.68,0,0,0,8.44,32.2" transform="translate(-388.31 -295.68)"/></g></g><polygon class="cls-155" points="407.61 244.88 372.84 243.15 350.02 202.16 384.79 203.9 407.61 244.88"/><path class="cls-156" d="M780.66,491.56c1.32-1.33,2.66-2.65,4-3.94.76-.72,1.54-1.42,2.31-2.13,1.28-1.17,2.58-2.33,3.89-3.46.82-.71,1.64-1.4,2.47-2.09,1.33-1.11,2.69-2.2,4-3.27.9-.7,1.8-1.42,2.71-2.1l2.07-1.53q1.83-1.34,3.69-2.63L808,469q2-1.33,4-2.61c.62-.4,1.24-.8,1.87-1.19q3-1.83,6-3.54l-34.77-1.73c-2,1.13-4,2.32-6,3.54-.63.39-1.24.79-1.87,1.19-1.35.85-2.69,1.71-4,2.61-.71.47-1.42,1-2.12,1.45q-1.87,1.29-3.7,2.63l-2.07,1.53-1.13.83c-.53.41-1,.85-1.57,1.27q-2.05,1.6-4.06,3.27c-.83.68-1.65,1.38-2.47,2.08q-2,1.71-3.89,3.47c-.77.7-1.55,1.41-2.31,2.13-1.36,1.29-2.7,2.61-4,3.94-.63.64-1.28,1.26-1.9,1.91-1.93,2-3.82,4-5.65,6.11l34.76,1.73c1.84-2.09,3.73-4.12,5.66-6.11C779.38,492.82,780,492.2,780.66,491.56Z" transform="translate(-388.31 -295.68)"/><path class="cls-4" d="M783.59,758.8l-34.77-1.73a182.87,182.87,0,0,1-36.29-48.79L747.3,710A182.71,182.71,0,0,0,783.59,758.8Z" transform="translate(-388.31 -295.68)"/><g class="cls-157"><g class="cls-143"><path class="cls-4" d="M783.59,758.8l-34.77-1.73a182.87,182.87,0,0,1-36.29-48.79L747.3,710a182.71,182.71,0,0,0,36.29,48.79" transform="translate(-388.31 -295.68)"/></g></g><polygon class="cls-158" points="358.99 414.33 324.22 412.6 356.23 378.7 391 380.44 358.99 414.33"/><polygon class="cls-159" points="346.05 274.62 311.28 272.89 356.81 272.42 391.58 274.16 346.05 274.62"/><polygon class="cls-160" points="382.57 348.24 347.8 346.51 303.76 334.26 338.53 335.99 382.57 348.24"/><path class="cls-5" d="M726.85,631.68l-34.77-1.74a194.5,194.5,0,0,1,7.51-61.37l34.77,1.74a194.4,194.4,0,0,0-7.51,61.37Z" transform="translate(-388.31 -295.68)"/><g class="cls-161"><g class="cls-143"><path class="cls-5" d="M726.85,631.68l-34.77-1.74a194.5,194.5,0,0,1,7.51-61.37l34.77,1.74a194.4,194.4,0,0,0-7.51,61.37" transform="translate(-388.31 -295.68)"/></g></g><path class="cls-162" d="M1070.82,676l-45.46.3a139.81,139.81,0,0,1-16,29.35L1032,746.81a178.72,178.72,0,0,1-46.92,38l-32.36-33.23a129.91,129.91,0,0,1-31.11,8.95l-11.73,45.91a169.59,169.59,0,0,1-58.67-7.57l-.12-47.39a130.93,130.93,0,0,1-28-16.55L783.59,758.8A182.71,182.71,0,0,1,747.3,710l32-33.89a141.68,141.68,0,0,1-8.44-32.2l-44-12.24a194.4,194.4,0,0,1,7.51-61.37l45.54-.47a140.06,140.06,0,0,1,16-29.28l-22.81-41a179.56,179.56,0,0,1,46.78-38l32.21,33.3a127.54,127.54,0,0,1,31.19-9.07l11.9-46A169.55,169.55,0,0,1,954,447.5l.26,47.46a131.25,131.25,0,0,1,28,16.64l39.4-24a183.29,183.29,0,0,1,36.16,48.64l-32.06,33.76a142,142,0,0,1,8.56,32.72l44,12a192.64,192.64,0,0,1-7.51,61.21ZM892.61,704.38c43,5.56,82.29-26.3,87.8-71.15S955.53,547.52,912.56,542s-82.26,26.29-87.77,71.13,24.85,85.73,67.82,91.28" transform="translate(-388.31 -295.68)"/></g></svg>