<svg id="_лой_1" data-name="‘лой_1" xmlns="http://www.w3.org/2000/svg" viewBox="0 0 3009.19 1142.32"><defs><style>.cls-1{fill:#ebf3fa;}.cls-2{fill:#f99746;}.cls-3{fill:#ed7d2b;}.cls-4{fill:#163560;}.cls-5{fill:#ffb27d;}.cls-6{fill:#ed985f;}.cls-7{fill:#d2e3fc;}.cls-8{fill:#b7d3f3;}.cls-9{fill:#fff;}.cls-10{fill:#395a8e;}.cls-11{fill:#233862;}.cls-12{fill:#172a49;}.cls-13{fill:#8e342e;}.cls-14{fill:#ed975d;}.cls-15{fill:#77a4e5;}.cls-16{fill:#274672;}.cls-17{fill:#c0d8fb;}.cls-18{fill:#dfebfd;}.cls-19{fill:#f9ddbf;}.cls-20{fill:#eac3a0;}.cls-21{fill:#2b478b;}.cls-22{fill:#1b3051;}.cls-23{fill:#1e3c68;}.cls-24{fill:#d5e5fb;}.cls-25{opacity:0.5;}.cls-26{fill:#9fc1f4;}.cls-27{fill:#afcdfb;}.cls-28{fill:#2e3552;}</style></defs><path class="cls-1" d="M228.73,1568.9S-84.15,1023.15,296.66,607C531,350.9,884.26,513.56,1285.87,474.5s589.27-87.06,829.48,5,559.71-6,748.68,292.25c353.27,557.57,165.52,790.58,165.52,790.58Z" transform="translate(-107.81 -426.57)"/><path class="cls-2" d="M1880.52,1159.81s-4.31-43.56-14.81-82.53a12.52,12.52,0,0,1,12.07-15.81h110.67l18.08,98.34S1878.19,1163.72,1880.52,1159.81Z" transform="translate(-107.81 -426.57)"/><path class="cls-3" d="M1891.06,1159.81s-4.3-43.56-14.8-82.53a12.52,12.52,0,0,1,12.06-15.81H1999l18.07,98.34S1888.74,1163.72,1891.06,1159.81Z" transform="translate(-107.81 -426.57)"/><path class="cls-4" d="M2051.84,864.24s-30.77-4.87-47.91,21.35c-17.56,26.88-35.12,62.34-23.64,72.79,9.91,9,8.6,16.22,0,20.62-36.64,18.76-16.2,36.3-3.15,42.74s124.53,20.48,129.18,13.13c23.48-37.11-15.1-53.35-8.6-64.89C2103.17,960.28,2137.56,873.88,2051.84,864.24Z" transform="translate(-107.81 -426.57)"/><path class="cls-5" d="M2092.92,1048.27c-8,6.15-13,28.35-25.86,32-48.15,13.75-74-43.43-82.45-71.34a41.9,41.9,0,0,1,16.25-5.92c3.5-.59,7.19-1.06,10.25-1.37,5.26-4.47,12.53-22,13-48.76l2.32.5,38.94,8.55s-1.14,12.3-1.41,23.88c-.21,9.06-.5,11.23.2,12.31,3,.5,6.6,8.24,6.6,8.24l0,0A247.44,247.44,0,0,1,2092.92,1048.27Z" transform="translate(-107.81 -426.57)"/><path class="cls-6" d="M2065.35,962s-1.14,12.29-1.41,23.88c-21.86-1.07-33-21.27-37.53-32.43Z" transform="translate(-107.81 -426.57)"/><path class="cls-7" d="M2263.4,1163.89s-22.9.84-47.77.92c-2.94,0-5.92,0-8.88,0-20.25-.08-40.15-.79-48.62-3-8.27-2.13-40.09-23.7-65.56-49.83v0c-2,4.71-3.47,8.3-3.5,8.59a131.26,131.26,0,0,1-3.52,17.39,211.52,211.52,0,0,1-15.72,40.23l-13.64,0-106.47-.15s20.12-31,14.71-110.33c-.13-2,18.54-66,18.54-66s14.51-2.54,31.28-3.89c1.58,1.44,4.84,43.56,25.81,46,3.41.4,25.3,33.83,25.3,33.83l6.63-34.15-7.84-45.31c10.06,3,15.58,4,23.94,7.35a26.41,26.41,0,0,1,13.36,11.86c14.65,26.78,62.21,113.16,67.07,115.17,4.54,1.88,21.67,5.31,39.8,8.62h0c24.25,4.43,50.29,8.64,50.29,8.64Z" transform="translate(-107.81 -426.57)"/><path class="cls-7" d="M2077.42,1178.2l-7.63,0s0,0,0,0Z" transform="translate(-107.81 -426.57)"/><path class="cls-5" d="M2071.84,973.65s-51.77-1-50.65-33.24-4.79-54.08,28.31-54.79,39.1,11.81,41.34,22.66S2085.34,973.09,2071.84,973.65Z" transform="translate(-107.81 -426.57)"/><path class="cls-8" d="M2215.63,1164.81c-2.94,0-5.92,0-8.88,0-20.25-.08-40.15-.79-48.62-3-8.27-2.13-40.09-23.7-65.56-49.83v0s5.37-20.57,7.69-24,11.45,30,32.79,43.63,54.76,23.15,71,19.29C2215,1148.3,2216.07,1158.12,2215.63,1164.81Z" transform="translate(-107.81 -426.57)"/><path class="cls-9" d="M2061.67,955.71s.33,3.86,8.82,4.47c0,0,7.13.51,7.43-3.64C2077.92,956.54,2071.43,952.65,2061.67,955.71Z" transform="translate(-107.81 -426.57)"/><path class="cls-5" d="M2148.84,1139.36s20.66-3.5,22.8-2.63c3.47,1.43,15.43,7.45,17.4,9.37s7.48,9.87,7.48,9.87-1.92.77-2.9.06-8.56-7.24-8.56-7.24l8.13,9.92s-2.42.15-3.49-.8-8.31-6.92-8.31-6.92l-2.27-.2a24.37,24.37,0,0,1,3.87,3.1,22.17,22.17,0,0,1,2.41,3.21,16.36,16.36,0,0,1-2.68-.35c-.65-.23-7-4.74-7-4.74l3.55,3.92a7.93,7.93,0,0,1-2.83-.27c-.74-.39-5.74-4.12-6.55-4s-6.64.5-9.27-.56-10.8-3.25-10.8-3.25Z" transform="translate(-107.81 -426.57)"/><path class="cls-8" d="M2018.8,987.49s-16.35,8.42-19.74,11.83c0,0,15.53,39.68,37.9,58.2l6-4.24v9.65l22.4,14.66S2017.66,999.5,2018.8,987.49Z" transform="translate(-107.81 -426.57)"/><path class="cls-8" d="M2085.54,1138a211.52,211.52,0,0,1-15.72,40.23h7.6l-7.63,0h-70.73s8.21,0,8.19-.06c-.19-.71,12-33.66-8.19-47.17s-27.51-46.79-27.51-46.79l64.24-15.69s26.47,38.62,34,46c5.79,5.65,19.27,6.08,19.27,6.08Z" transform="translate(-107.81 -426.57)"/><path class="cls-8" d="M2063.52,997.76s7.45,54.36,1.83,79.83c0,0,9.17-16.85,10.46-19.94l-1.54-9.26,5.91,2.06s-4.69-43.4-9.94-50.59c-2.32-3.19-6.48-7.7-6.48-7.7Z" transform="translate(-107.81 -426.57)"/><path class="cls-5" d="M2263.4,1163.89s-28.65,1.06-56.65.92c-6.94-10.77,1.56-23.68,1.56-23.68h0c24.25,4.43,50.29,8.64,50.29,8.64Z" transform="translate(-107.81 -426.57)"/><path class="cls-5" d="M2154.13,1148.41s-52.18,7.49-80.52,9.34l5-27.55c19,3.11,70.23,9.16,70.23,9.16Z" transform="translate(-107.81 -426.57)"/><path class="cls-7" d="M1999.06,999.32s-31.16.71-40.81,11.13,9.57,69.3,9.57,69.3,58.1,71.15,87.16,76.17c0,0,12.7,1.73,18.63,1.83,0,0,6.57-13.78,5-27.55,0,0-12.45-3.48-13-5S1999.06,999.32,1999.06,999.32Z" transform="translate(-107.81 -426.57)"/><path class="cls-4" d="M2082.29,889s-12.5,45.84-67.44,44.6c0,0-5.67-43.26,23.91-50.24S2082.29,889,2082.29,889Z" transform="translate(-107.81 -426.57)"/><path class="cls-4" d="M2090.89,921s3-13.72-17-24.89c0,0,14.19-16,20.24-6.74S2090.89,921,2090.89,921Z" transform="translate(-107.81 -426.57)"/><path class="cls-3" d="M2020.54,981.52s-9.83,5.17-12,11.52c0,0,9.28,24.27,40.92,32.64C2049.51,1025.68,2026.7,999,2020.54,981.52Z" transform="translate(-107.81 -426.57)"/><path class="cls-3" d="M2063.9,987.49s1,30.44-14.39,38.19c0,0,18.95-2.21,21.25-19.27C2072.12,996.29,2068.79,989.75,2063.9,987.49Z" transform="translate(-107.81 -426.57)"/><path class="cls-3" d="M2051.11,1023.15s-7,21.17-5.23,26.62,14.25,30,14.41,38c0,0,9-12.51,8.76-27.63S2051.11,1023.15,2051.11,1023.15Z" transform="translate(-107.81 -426.57)"/><path class="cls-2" d="M2052.58,1023.65s-1.66,14.59,0,18.78,10.35,9.3,18.48,10.23c0,0,2.25-6.2-1.32-10.7S2053.61,1029.68,2052.58,1023.65Z" transform="translate(-107.81 -426.57)"/><path class="cls-3" d="M2045.88,1023.82s.76-4,2.77-5,6.92,1.76,7.55,3.25a4.51,4.51,0,0,1-3.2,5.43C2050.21,1028.16,2045.35,1025.69,2045.88,1023.82Z" transform="translate(-107.81 -426.57)"/><polygon class="cls-10" points="2240.5 700.97 2049.88 700.97 2068.56 564.6 2259.18 564.6 2240.5 700.97"/><polygon class="cls-11" points="2244.99 700.97 2054.36 700.97 2073.05 564.6 2263.67 564.6 2244.99 700.97"/><polygon class="cls-10" points="2181.7 623.56 2165.57 733.24 2127.36 733.24 2128.08 728.36 2143.49 623.56 2181.7 623.56"/><polygon class="cls-12" points="2168.36 733.24 2130.15 733.24 2146.28 623.56 2184.49 623.56 2168.36 733.24"/><path class="cls-12" d="M2241.44,1159.81h63.33a4.89,4.89,0,0,0-4.89-4.88h-57.72Z" transform="translate(-107.81 -426.57)"/><path class="cls-10" d="M2265.12,1159.81h-29.95l.71-4.87h24.37A4.87,4.87,0,0,1,2265.12,1159.81Z" transform="translate(-107.81 -426.57)"/><path class="cls-2" d="M349.22,1159.81s-4.31-43.56-14.81-82.53a12.52,12.52,0,0,1,12.07-15.81H457.15l18.08,98.34S346.89,1163.72,349.22,1159.81Z" transform="translate(-107.81 -426.57)"/><path class="cls-3" d="M359.76,1159.81s-4.3-43.56-14.8-82.53A12.52,12.52,0,0,1,357,1061.47H467.7l18.07,98.34S357.44,1163.72,359.76,1159.81Z" transform="translate(-107.81 -426.57)"/><path class="cls-2" d="M1143.94,1159.81s-4.3-43.56-14.81-82.53a12.53,12.53,0,0,1,12.07-15.81h110.67l18.08,98.34S1141.62,1163.72,1143.94,1159.81Z" transform="translate(-107.81 -426.57)"/><path class="cls-3" d="M1154.49,1159.81s-4.31-43.56-14.81-82.53a12.52,12.52,0,0,1,12.07-15.81h110.67l18.08,98.34S1152.16,1163.72,1154.49,1159.81Z" transform="translate(-107.81 -426.57)"/><path class="cls-13" d="M519.92,872.36s-36.54-21-62.15-1.13S439.93,903,419.46,938.84c-15,26.37,8.51,38.35,47.6,44.92s66.38,23.51,76.3,8.4S550.81,890.77,519.92,872.36Z" transform="translate(-107.81 -426.57)"/><path class="cls-5" d="M527.77,1048.27c-8,6.15-13,28.35-25.85,32-48.16,13.75-74-43.43-82.46-71.34a41.9,41.9,0,0,1,16.25-5.92c3.5-.59,7.19-1.06,10.25-1.37,5.26-4.47,12.54-22,13-48.76l2.32.5,38.94,8.55s-1.13,12.3-1.41,23.88c-.2,9.06-.5,11.23.2,12.31,3,.5,6.6,8.24,6.6,8.24l0,0A246.62,246.62,0,0,1,527.77,1048.27Z" transform="translate(-107.81 -426.57)"/><path class="cls-6" d="M500.21,962s-1.15,12.29-1.41,23.88c-21.87-1.07-33-21.27-37.54-32.43Z" transform="translate(-107.81 -426.57)"/><path class="cls-7" d="M650.49,1164.81c-2.94,0-5.92,0-8.88,0-20.25-.08-40.16-.79-48.62-3-8.28-2.13-40.1-23.7-65.57-49.83v0c-2,4.71-3.46,8.3-3.5,8.59A132.86,132.86,0,0,1,520.4,1138a211.18,211.18,0,0,1-15.73,40.23l-13.64,0L384.57,1178s20.11-31,14.71-110.33c-.14-2,18.53-66,18.53-66s14.51-2.54,31.28-3.89c1.58,1.44,4.84,43.56,25.82,46,3.41.4,25.29,33.83,25.29,33.83l6.63-34.15L499,998.13c10.06,3,15.58,4,24,7.35a26.43,26.43,0,0,1,13.35,11.86c14.65,26.78,62.21,113.16,67.07,115.17,4.54,1.88,21.68,5.31,39.8,8.62h0C656.39,1143.54,675.35,1164.73,650.49,1164.81Z" transform="translate(-107.81 -426.57)"/><path class="cls-7" d="M512.27,1178.2l-7.62,0s0,0,0,0Z" transform="translate(-107.81 -426.57)"/><path class="cls-5" d="M506.69,973.65s-51.77-1-50.64-33.24-4.8-54.08,28.31-54.79,39.09,11.81,41.33,22.66S520.19,973.09,506.69,973.65Z" transform="translate(-107.81 -426.57)"/><path class="cls-8" d="M650.49,1164.81c-2.94,0-5.92,0-8.88,0-20.25-.08-40.16-.79-48.62-3-8.28-2.13-40.1-23.7-65.57-49.83v0s5.38-20.57,7.69-24,11.45,30,32.8,43.63,54.75,23.15,71,19.29C649.8,1148.3,650.92,1158.12,650.49,1164.81Z" transform="translate(-107.81 -426.57)"/><path class="cls-9" d="M496.53,955.71s.33,3.86,8.82,4.47c0,0,7.13.51,7.42-3.64C512.77,956.54,506.28,952.65,496.53,955.71Z" transform="translate(-107.81 -426.57)"/><path class="cls-5" d="M589.24,1145.22s22.21-1.27,24.36-.11c3.51,1.89,15.43,9.57,17.3,11.8s6.77,11.18,6.77,11.18-2.12.59-3.08-.27-8.2-8.55-8.2-8.55l7.44,11.3s-2.57-.11-3.59-1.24-8-8.19-8-8.19l-2.36-.47a25.94,25.94,0,0,1,3.72,3.69,22.32,22.32,0,0,1,2.17,3.64,17.13,17.13,0,0,1-2.78-.68c-.66-.32-6.89-5.77-6.89-5.77l3.3,4.51a8.6,8.6,0,0,1-3-.61c-.73-.49-5.59-5-6.45-5s-7.06-.25-9.72-1.66-11-4.64-11-4.64Z" transform="translate(-107.81 -426.57)"/><path class="cls-8" d="M453.66,987.49s-16.36,8.42-19.74,11.83c0,0,15.52,39.68,37.9,58.2l6-4.24v9.65l22.41,14.66S452.51,999.5,453.66,987.49Z" transform="translate(-107.81 -426.57)"/><path class="cls-8" d="M520.4,1138a211.18,211.18,0,0,1-15.73,40.23h7.6l-7.62,0H433.92s8.2,0,8.19-.06c-.2-.71,12-33.66-8.19-47.17s-27.51-46.79-27.51-46.79l64.24-15.69s26.47,38.62,34,46c5.78,5.65,19.26,6.08,19.26,6.08Z" transform="translate(-107.81 -426.57)"/><path class="cls-8" d="M498.38,997.76s7.45,54.36,1.83,79.83c0,0,9.17-16.85,10.45-19.94l-1.54-9.26,5.92,2.06s-4.7-43.4-9.94-50.59c-2.33-3.19-6.48-7.7-6.48-7.7Z" transform="translate(-107.81 -426.57)"/><path class="cls-5" d="M589.27,1154.19s-54.5,4.76-84.62,3.42V1128c19.73,5.45,84.59,17.21,84.59,17.21Z" transform="translate(-107.81 -426.57)"/><path class="cls-7" d="M433.92,999.32s-31.17.71-40.82,11.13,9.57,69.3,9.57,69.3,58.1,71.15,87.16,76.17c0,0,12.7,1.73,18.63,1.83,0,0-5.81-16.93,5-27.55,0,0-12.44-3.48-13-5S433.92,999.32,433.92,999.32Z" transform="translate(-107.81 -426.57)"/><path class="cls-13" d="M517.15,889s-12.5,45.84-67.45,44.6c0,0-5.67-43.26,23.92-50.24S517.15,889,517.15,889Z" transform="translate(-107.81 -426.57)"/><path class="cls-13" d="M525.74,921s3-13.72-17-24.89c0,0,14.19-16,20.24-6.74S525.74,921,525.74,921Z" transform="translate(-107.81 -426.57)"/><path class="cls-3" d="M455.4,981.52s-9.84,5.17-11.95,11.52c0,0,9.28,24.27,40.91,32.64C484.36,1025.68,461.55,999,455.4,981.52Z" transform="translate(-107.81 -426.57)"/><path class="cls-3" d="M498.75,987.49s1,30.44-14.39,38.19c0,0,19-2.21,21.25-19.27C507,996.29,503.64,989.75,498.75,987.49Z" transform="translate(-107.81 -426.57)"/><path class="cls-3" d="M486,1023.15s-7,21.17-5.23,26.62,14.26,30,14.41,38c0,0,9-12.51,8.76-27.63S486,1023.15,486,1023.15Z" transform="translate(-107.81 -426.57)"/><path class="cls-2" d="M487.43,1023.65s-1.66,14.59,0,18.78,10.35,9.3,18.49,10.23c0,0,2.24-6.2-1.32-10.7S488.46,1029.68,487.43,1023.65Z" transform="translate(-107.81 -426.57)"/><path class="cls-3" d="M480.73,1023.82s.76-4,2.78-5,6.92,1.76,7.54,3.25a4.5,4.5,0,0,1-3.2,5.43C485.06,1028.16,480.2,1025.69,480.73,1023.82Z" transform="translate(-107.81 -426.57)"/><path class="cls-11" d="M1362.19,878.88c-6.43-5.13-18.06-8.52-22.23-8.38a54.42,54.42,0,0,1-9-.59c-35.72-4.8-57.22,47.11-58.49,62.83-2.33,29-17.66,33.42-39.25,51.57-43.29,36.41-30.59,78.71-6.92,94.43,14.2,9.43,39.23,0,39.23,0,.35.25,68.45-38.07,102-56.56C1417.87,1015,1382.94,895.39,1362.19,878.88Z" transform="translate(-107.81 -426.57)"/><path class="cls-7" d="M1488.69,1147.22s-47-11.87-58.92-22.25c-10.16-8.81-31.63-90.64-41.87-111.42-6.91-14-37.69-23.37-46.14-25.07-.24-.27,7.2,76-4.1,67.06-34.66-27.57-29.07-46.74-40.72-71.21-.7-1.47-17,22.2-31.92,50.57-16.51,31.32-12,37.95-7.33,57.45.85,3.56,1.57,6.83,2.15,9.85,5.58,28.38.86,34.14,7.55,52.68,1.94,5.36,52.9,10.14,81.9,8.21,9.22-.61,16.23-1.89,18.72-4,8.9-7.72,9.38,5.82,10.24-50.43,2.26,5.57,17.36,45.25,26.63,49.54,13,6,87.53,1.66,87.53,1.66Z" transform="translate(-107.81 -426.57)"/><path class="cls-5" d="M1343.57,1008.6c.15.09,3.49,43.56-4.13,44.38-11.4,1.22-46.12-67.56-46-67.57,4.77-.22,10-4.39,14-31.74l2,.73,34.15,12.28s-2.48,11-4.08,21.39C1338.27,996.82,1341.7,1007.36,1343.57,1008.6Z" transform="translate(-107.81 -426.57)"/><path class="cls-14" d="M1343.69,966.68s-2.48,11-4.08,21.39c-19.61-3.53-27.3-23.07-30.07-33.67Z" transform="translate(-107.81 -426.57)"/><path class="cls-5" d="M1348.77,977.55s-46.71-6.27-42.36-35.3,1.25-49.39,31.26-46.61,34.13,14.72,35,24.76S1361,978.44,1348.77,977.55Z" transform="translate(-107.81 -426.57)"/><path class="cls-11" d="M1371,904.49s-29.91,25.77-50.25,27.85-28-4.46-28-4.46a79.34,79.34,0,0,0,19.2-26,14.32,14.32,0,0,1,11.8-8.44C1338.24,892.18,1365.77,891.61,1371,904.49Z" transform="translate(-107.81 -426.57)"/><path class="cls-11" d="M1352.31,902.18s10,9.67,13.16,16.85c3,6.92,4,23.48,1.53,30.06,0,0,15.58-30.31,6.76-45C1364.4,888.44,1352.31,902.18,1352.31,902.18Z" transform="translate(-107.81 -426.57)"/><path class="cls-8" d="M1349.29,1163.09c-29,1.93-80-2.85-81.9-8.21-6.69-18.54-2-24.3-7.55-52.68l14-39.38s-2.32,43.85,10.62,55.38,53,22.27,59.23,31.9C1346.71,1154.73,1348.71,1159.37,1349.29,1163.09Z" transform="translate(-107.81 -426.57)"/><path class="cls-5" d="M1316.07,1144.65s28.6-6.37,33.22-3.83,15.9,11.78,17.31,15-10.28-2.44-14.08-3.46c-2.46-.66-8.94,1.59-12.15,2.66-13.5,4.5-21.77,2.18-21.77,2.18Z" transform="translate(-107.81 -426.57)"/><path class="cls-7" d="M1296.91,984.31s-38.41,2.37-51.7,20.91c-18.72,26.11-55.85,137.36-34.57,152.2,24,16.71,109.06,4.37,109.06,4.37s2.84-13.23-1.1-19.64-68-16.74-70.93-19.7,36.94-57.63,36.94-66.49S1296.91,984.31,1296.91,984.31Z" transform="translate(-107.81 -426.57)"/><path class="cls-5" d="M1350.67,1148.78s6,7.73,8,8.65a5.86,5.86,0,0,0,3.24.7l-4-7.27Z" transform="translate(-107.81 -426.57)"/><path class="cls-5" d="M1349.29,1140.82l17.43,8.46a3.14,3.14,0,0,1-2.89,1.12c-2.15-.1-7.56-2.08-7.56-2.08Z" transform="translate(-107.81 -426.57)"/><path class="cls-8" d="M1298.49,982.52s-5.41-.47-16.35,3.89c0,0,12.42,44,33.24,61.23l5.56-4v9l20.83,13.64S1297.42,993.68,1298.49,982.52Z" transform="translate(-107.81 -426.57)"/><path class="cls-8" d="M1340.07,992.06s6.93,50.56,1.7,74.24c0,0,8.53-15.67,9.73-18.54l-1.44-8.61,5.51,1.91s-4.37-40.36-9.25-47c-2.16-3-6-7.16-6-7.16Z" transform="translate(-107.81 -426.57)"/><path class="cls-3" d="M1303.55,972.71s-9,4.68-11,10.59A47.42,47.42,0,0,0,1327,1018S1309.28,989,1303.55,972.71Z" transform="translate(-107.81 -426.57)"/><path class="cls-3" d="M1339.9,986.27s-.77,4-1.37,10.35c-.72,7.66-3.34,17.31-11.49,21.41,0,0,17.63-2.06,19.76-17.93C1348.07,990.7,1344.45,988.37,1339.9,986.27Z" transform="translate(-107.81 -426.57)"/><path class="cls-3" d="M1328.53,1015.68s-6.5,19.68-4.86,24.75,13.25,27.9,13.39,35.3c0,0,8.37-11.63,8.15-25.69S1328.53,1015.68,1328.53,1015.68Z" transform="translate(-107.81 -426.57)"/><path class="cls-2" d="M1329.9,1016.14s-1.55,13.57,0,17.46,9.62,8.65,17.19,9.52c0,0,2.09-5.77-1.23-9.95S1330.85,1021.75,1329.9,1016.14Z" transform="translate(-107.81 -426.57)"/><path class="cls-3" d="M1323.67,1016.3s.7-3.75,2.58-4.62,6.43,1.65,7,3a4.19,4.19,0,0,1-3,5C1327.69,1020.33,1323.17,1018,1323.67,1016.3Z" transform="translate(-107.81 -426.57)"/><path class="cls-11" d="M1342,1089.69a1.71,1.71,0,1,1,1.71,1.7A1.71,1.71,0,0,1,1342,1089.69Z" transform="translate(-107.81 -426.57)"/><path class="cls-11" d="M1336.66,1116.83a1.71,1.71,0,1,1,1.71,1.7A1.7,1.7,0,0,1,1336.66,1116.83Z" transform="translate(-107.81 -426.57)"/><rect class="cls-15" x="215.43" y="742.35" width="2397.53" height="394.17"/><rect class="cls-16" x="180.03" y="733.24" width="2460.94" height="31.44"/><rect class="cls-8" x="215.43" y="864.8" width="2397.53" height="151.13"/><rect class="cls-11" x="1188.53" y="726.77" width="144.45" height="6.47"/><rect class="cls-11" x="1974.11" y="726.77" width="144.45" height="6.47"/><rect class="cls-11" x="423.25" y="726.77" width="101.16" height="6.47"/><polygon class="cls-10" points="1476.47 700.97 1285.85 700.97 1304.53 564.6 1495.15 564.6 1476.47 700.97"/><polygon class="cls-11" points="1480.95 700.97 1290.34 700.97 1309.02 564.6 1499.64 564.6 1480.95 700.97"/><polygon class="cls-10" points="1417.67 623.56 1401.54 733.24 1363.33 733.24 1364.05 728.36 1379.46 623.56 1417.67 623.56"/><polygon class="cls-12" points="1404.33 733.24 1366.12 733.24 1382.25 623.56 1420.46 623.56 1404.33 733.24"/><path class="cls-12" d="M1477.41,1159.81h63.33a4.89,4.89,0,0,0-4.89-4.88h-57.72Z" transform="translate(-107.81 -426.57)"/><path class="cls-10" d="M1501.09,1159.81h-29.95l.71-4.87h24.37A4.87,4.87,0,0,1,1501.09,1159.81Z" transform="translate(-107.81 -426.57)"/><rect class="cls-17" x="2404.48" y="249.21" width="116.15" height="112.68" rx="8.31"/><rect class="cls-18" x="2409.52" y="254.09" width="106.09" height="102.92" rx="7.59"/><path class="cls-8" d="M2568,691a2.41,2.41,0,1,1,2.4,2.41A2.4,2.4,0,0,1,2568,691Z" transform="translate(-107.81 -426.57)"/><path class="cls-8" d="M2587.37,694.35a2.41,2.41,0,1,1,.94,3.27A2.4,2.4,0,0,1,2587.37,694.35Z" transform="translate(-107.81 -426.57)"/><path class="cls-8" d="M2604,707.57a2.4,2.4,0,1,1-.71,3.32A2.41,2.41,0,0,1,2604,707.57Z" transform="translate(-107.81 -426.57)"/><path class="cls-8" d="M2612.24,728a2.41,2.41,0,1,1-2.4,2.41A2.41,2.41,0,0,1,2612.24,728Z" transform="translate(-107.81 -426.57)"/><path class="cls-8" d="M2608,751.76a2.41,2.41,0,1,1-3.41,0A2.4,2.4,0,0,1,2608,751.76Z" transform="translate(-107.81 -426.57)"/><path class="cls-8" d="M2592.93,766.9a2.41,2.41,0,1,1-3.4,0A2.41,2.41,0,0,1,2592.93,766.9Z" transform="translate(-107.81 -426.57)"/><path class="cls-8" d="M2568,774.71a2.41,2.41,0,1,1,2.4,2.41A2.41,2.41,0,0,1,2568,774.71Z" transform="translate(-107.81 -426.57)"/><path class="cls-8" d="M2553.28,694.35a2.41,2.41,0,1,0-.94,3.27A2.4,2.4,0,0,0,2553.28,694.35Z" transform="translate(-107.81 -426.57)"/><path class="cls-8" d="M2536.65,707.57a2.4,2.4,0,1,0,.71,3.32A2.41,2.41,0,0,0,2536.65,707.57Z" transform="translate(-107.81 -426.57)"/><path class="cls-8" d="M2528.41,728a2.41,2.41,0,1,0,2.4,2.41A2.41,2.41,0,0,0,2528.41,728Z" transform="translate(-107.81 -426.57)"/><path class="cls-8" d="M2532.61,751.76a2.41,2.41,0,1,0,3.41,0A2.4,2.4,0,0,0,2532.61,751.76Z" transform="translate(-107.81 -426.57)"/><path class="cls-8" d="M2547.72,766.9a2.41,2.41,0,1,0,3.4,0A2.41,2.41,0,0,0,2547.72,766.9Z" transform="translate(-107.81 -426.57)"/><path class="cls-8" d="M2569.71,730.43a2.41,2.41,0,1,1,2.41,2.4A2.41,2.41,0,0,1,2569.71,730.43Z" transform="translate(-107.81 -426.57)"/><rect class="cls-8" x="2463.99" y="273.79" width="0.66" height="30.06"/><rect class="cls-8" x="2569.66" y="723.14" width="20.26" height="1.97" transform="translate(-4.46 1320.73) rotate(-38.13)"/><path class="cls-12" d="M1748.06,1562.39h.34a3.64,3.64,0,0,0,3.62-3.72l-5.48-239-16.15-1.89,13.77,240.89A3.92,3.92,0,0,0,1748.06,1562.39Z" transform="translate(-107.81 -426.57)"/><path class="cls-12" d="M1842.15,1562.39h.35a3.62,3.62,0,0,0,3.61-3.72l-5.48-239-16.15-1.89,13.77,240.89A3.92,3.92,0,0,0,1842.15,1562.39Z" transform="translate(-107.81 -426.57)"/><path class="cls-12" d="M1582.5,1562.39h-.34a3.63,3.63,0,0,1-3.62-3.72l5.48-239,16.15-1.89-13.77,240.89A3.92,3.92,0,0,1,1582.5,1562.39Z" transform="translate(-107.81 -426.57)"/><path class="cls-12" d="M1852.85,1304.86V1141.1a52,52,0,0,0-51.87-52.18h-117.3a52,52,0,0,0-51.87,52.18v170Z" transform="translate(-107.81 -426.57)"/><path class="cls-12" d="M1626.42,1304.86h226.44a0,0,0,0,1,0,0v25.85a0,0,0,0,1,0,0H1610.79a0,0,0,0,1,0,0v-10.23A15.62,15.62,0,0,1,1626.42,1304.86Z" transform="translate(3355.84 2209) rotate(180)"/><rect class="cls-12" x="1572.14" y="1304.86" width="194.38" height="25.85" rx="11.55" transform="translate(3230.85 2209) rotate(180)"/><path class="cls-19" d="M1675.07,1040.35s10.54-3.56,12.67,18.1c1.62,16.45-9.79,144.13-18.37,154.28-24.16,28.55-54.43,16.49-66.29,20.82l-11.19-10s39.33-29,42.33-38.5C1645.74,1148.54,1637.87,1054.12,1675.07,1040.35Z" transform="translate(-107.81 -426.57)"/><path class="cls-4" d="M1682.85,924.29s-.67-23.41,30.22-28,39.41,2.63,44.67,10.5,15.09,40,14.11,52.84-36.21,28.63-35.64,36.1S1682.85,924.29,1682.85,924.29Z" transform="translate(-107.81 -426.57)"/><path class="cls-20" d="M1660.79,1148.54s.17,23.56.1,33.19c-.09,11.37-22.57,41.77-22.57,41.77l30.58-5.27s19-23.1,19-24.6S1660.79,1148.54,1660.79,1148.54Z" transform="translate(-107.81 -426.57)"/><path class="cls-5" d="M1539.6,1542.18c1,7.92-9.79,10.24-22.34,11.35s-8.67,3.58-25.79,7.39-24.2-.74-25.53-3.06c-1.19-2.06,6.71-5.65,15.12-9.68,1.06-.5,2.11-1,3.17-1.54,9.46-4.65,14.54-13.63,21.75-22,6.83-8,12.69-32.88,12.69-32.88l23.24-6s-5.79,22.44-7.73,32c-1.15,5.62,1,11.78,3,16.46A31.64,31.64,0,0,1,1539.6,1542.18Z" transform="translate(-107.81 -426.57)"/><path class="cls-11" d="M1517.26,1553.53c-12.56,1.09-8.67,3.58-25.79,7.39s-24.2-.74-25.53-3.06c-1.19-2.06,6.71-5.65,15.12-9.68l.14.14a48.21,48.21,0,0,0,26.12-.64c11.29-3.57,22.07-10.91,29.84-13.44a31.64,31.64,0,0,1,2.44,7.94C1540.6,1550.1,1529.81,1552.42,1517.26,1553.53Z" transform="translate(-107.81 -426.57)"/><path class="cls-11" d="M1713.62,1219.55s-155.38,16.12-181,39.91-21,245.39-21,245.39c4,4.14,6.93,4,13.23,3.55,6-.48,18.37-5.68,18.37-5.68s33.28-108.81,33.7-134,5.68-68,16.25-70.47,136.36,11.58,150.16-28.15-9.11-72.43-9.11-72.43Z" transform="translate(-107.81 -426.57)"/><path class="cls-19" d="M1786.21,1259.52c-6.71,4.49-18.7,11.41-38.81,12.13-36,1.31-80.91-3-89.76-11.34-2.29-2.15-3.41-5.73-3.73-10.25-1-13.82,5.62-36.54,10-55.35,2.88-12.22,2.94-22.22,1.33-27.61-4.88-16.42-18.15-50.44-19.46-61.44s11.33-57.46,29.24-65.31c44.63-19.57,88.41-8.46,88.41-8.46,27.37,5.55,29,60.44,19.92,110.09-.23,1.28-.47,2.55-.71,3.81C1772.84,1196.21,1804.91,1247,1786.21,1259.52Z" transform="translate(-107.81 -426.57)"/><path class="cls-5" d="M1695.73,1039.17c.49,3.2,9.25,8.39,28,3.45,17.94-4.73,22.71-9.43,22.71-13.29,0-4.57-10.42-11.85-10.32-39.95l-2.15.42L1697.77,997s.83,11.39.85,22.11C1698.65,1028.07,1694.91,1033.84,1695.73,1039.17Z" transform="translate(-107.81 -426.57)"/><path class="cls-14" d="M1697.77,997s.83,11.39.85,22.11c20.24-.57,30.94-19,35.32-29.27Z" transform="translate(-107.81 -426.57)"/><path class="cls-5" d="M1691,1007.12s47.89.79,47.92-29,6.24-49.81-24.33-51.58-36.53,9.61-39,19.56S1678.56,1006.14,1691,1007.12Z" transform="translate(-107.81 -426.57)"/><path class="cls-4" d="M1692.79,925.77s13.11,35,33.23,40.17,28.85-.22,28.85-.22a57,57,0,0,1-18.64-33.66S1702.68,909.12,1692.79,925.77Z" transform="translate(-107.81 -426.57)"/><path class="cls-4" d="M1696,928.61s-9.79,7.81-12.18,15.41-3.46,23.23-8,22.7c0,0-9.88-23.79,1.22-37.24C1688.83,915.21,1696,928.61,1696,928.61Z" transform="translate(-107.81 -426.57)"/><path class="cls-5" d="M1665.25,1547.68c.37,8-10.57,9.38-23.18,9.42s-8.91,2.84-26.29,5.2-24.06-2.77-25.2-5.19c-1-2.16,7.14-5.07,15.84-8.38,1.1-.41,2.2-.84,3.29-1.27,9.8-3.84,15.59-12.35,23.44-20.13,7.44-7.36-10.55-41.3-10.55-41.3l21.83-11.67s5,24.48,11.06,45.83c1.57,5.52,6.42,14.54,8,19.37A31.52,31.52,0,0,1,1665.25,1547.68Z" transform="translate(-107.81 -426.57)"/><path class="cls-20" d="M1785.25,1253.59c-6.7,4.49-17.74,17.34-37.85,18.06-33.2-7.55-71-16.35-93.49-21.59-1-13.82,24-10.47,28.48-29.27,30-13.85,48.31-35.8,59.93-56.13,8.85-15.48,13.35-49.05,13.35-49.05L1783.4,1142c-.23,1.28-.47,2.55-.71,3.81C1772.84,1196.21,1804,1241.06,1785.25,1253.59Z" transform="translate(-107.81 -426.57)"/><path class="cls-11" d="M1642.07,1557.1c-12.6,0-8.91,2.84-26.29,5.2s-24.06-2.77-25.2-5.19c-1-2.16,7.14-5.07,15.84-8.38l.13.16a48.3,48.3,0,0,0,26.08,1.55c11.54-2.61,22.87-9,30.83-10.88a31.52,31.52,0,0,1,1.79,8.12C1665.62,1555.65,1654.68,1557.06,1642.07,1557.1Z" transform="translate(-107.81 -426.57)"/><path class="cls-21" d="M1746.56,1224.92c-45.83-3.53-156.69,12.39-179.33,29.46-27.86,21,51.74,248.18,51.74,248.18s9.24.9,12.17.56a87.19,87.19,0,0,0,21.84-5.31s-4.36-133.68-13.66-159.26c-8.59-23.63-13.86-32-3.09-33.4s145.13,15.73,156.35-24.84c8.76-31.69-4.18-61-4.18-61S1782.87,1227.71,1746.56,1224.92Z" transform="translate(-107.81 -426.57)"/><path class="cls-19" d="M1767.16,1033s14.15,4.5,22,24.81c9.79,25.39,17.93,127.73,9.34,137.88-24.15,28.55-104.7,34.6-116.56,38.94l-3.26-13.51s86-43.32,84.67-53.16S1740.88,1029.09,1767.16,1033Z" transform="translate(-107.81 -426.57)"/><path class="cls-4" d="M1742.82,908.05s-2-12.49,15.36-15.72,17.66,33.59,19.51,42.46-2.77,14.19-9.38,14.73S1742.82,908.05,1742.82,908.05Z" transform="translate(-107.81 -426.57)"/><path class="cls-5" d="M1677.71,1220.52s-24.48-6.93-30.32-5.31-25.82,14.85-23,18.45,20.42-2.16,28.52-1.07,14.37,5.09,20.2,4.22a67.63,67.63,0,0,0,11.93-3.15Z" transform="translate(-107.81 -426.57)"/><path class="cls-5" d="M1677.71,1220.52s-12-6.16-15.38-9.66a1,1,0,0,0-1.49.17c-.92,1.44-1.77,4.22,2.43,7C1669.32,1222,1677.71,1220.52,1677.71,1220.52Z" transform="translate(-107.81 -426.57)"/><path class="cls-5" d="M1591.89,1223.5s-25.41,1.39-30.4,4.82-19.61,22.43-15.78,24.91,18.61-8.66,26.63-10.26,15.24.15,20.47-2.56a67.73,67.73,0,0,0,10.27-6.86Z" transform="translate(-107.81 -426.57)"/><path class="cls-12" d="M2566.37,1564.15h.34a3.64,3.64,0,0,0,3.62-3.72l-5.49-239-16.14-1.9,13.77,240.9A3.91,3.91,0,0,0,2566.37,1564.15Z" transform="translate(-107.81 -426.57)"/><path class="cls-12" d="M2660.46,1564.15h.35a3.62,3.62,0,0,0,3.61-3.72l-5.48-239-16.15-1.9,13.77,240.9A3.91,3.91,0,0,0,2660.46,1564.15Z" transform="translate(-107.81 -426.57)"/><path class="cls-12" d="M2400.81,1564.15h-.35a3.63,3.63,0,0,1-3.61-3.72l5.48-239,16.15-1.9-13.77,240.9A3.91,3.91,0,0,1,2400.81,1564.15Z" transform="translate(-107.81 -426.57)"/><path class="cls-12" d="M2671.16,1322.56V1146.72c0-31-23.22-56-51.87-56H2502c-28.65,0-51.87,25.08-51.87,56v182.56Z" transform="translate(-107.81 -426.57)"/><path class="cls-12" d="M2444.72,1321h226.44a0,0,0,0,1,0,0v25.85a0,0,0,0,1,0,0H2429.1a0,0,0,0,1,0,0v-10.23A15.62,15.62,0,0,1,2444.72,1321Z" transform="translate(4992.46 2241.32) rotate(180)"/><rect class="cls-12" x="2390.45" y="1321.02" width="194.38" height="25.85" rx="11.55" transform="translate(4867.47 2241.32) rotate(180)"/><path class="cls-22" d="M2187.31,1564.37h109c5.24-6.4,8.18-36.49,7.39-44.2-.16-1.56-2.12-8.77-2.12-8.77s-40.26-17-45.37,5.81c-.16.72-.35,1.42-.55,2.11-6.45,21.33-35.35,31-52,33.72C2192.81,1554.8,2188.8,1560.44,2187.31,1564.37Z" transform="translate(-107.81 -426.57)"/><path class="cls-11" d="M2484.55,1224.06c-3.93,0-149.25,20.31-179.49,54.3-15.11,17-54.6,239.45-54.6,239.45s18.36,13,58.73.82c0,0,53.27-144,51.09-184.64-.61-11.25,129.18-16,152.15-21.36s51.48-18.64,39.11-40.74S2484.55,1224.06,2484.55,1224.06Z" transform="translate(-107.81 -426.57)"/><path class="cls-23" d="M2259.9,1564.37h109c5.24-6.4,3.31-30,2.52-37.72-.17-1.55-.28-2.46-.28-2.46s-37.23-29.78-42.34-7c-.16.72-.35,1.42-.55,2.11-6.45,21.33-35.35,31-52,33.72C2265.4,1554.8,2261.39,1560.44,2259.9,1564.37Z" transform="translate(-107.81 -426.57)"/><path class="cls-21" d="M2542.44,1235.81c-3.93,0-177.49,8.62-207.73,46.06-15.11,18.69-17.35,234.66-17.35,234.66s18.69,23.17,59,9.72c0,0,37.09-114.58,34.37-192.61-.43-12.4,108-13.82,137.82-16.19,37.79-3,47.33-66.42,35-90.77S2542.44,1235.81,2542.44,1235.81Z" transform="translate(-107.81 -426.57)"/><path class="cls-5" d="M2353.45,1235.81l-7.4,4.78s-24.29,4.35-30.92,13.2c0,0-14.19,26.26-4.8,24.48s13-10.43,26.24-12.66,21.59-2.27,24.5-11.48l11.5-10.91Z" transform="translate(-107.81 -426.57)"/><path class="cls-2" d="M2439.85,1080.26c-1.8,8.21-2.84,13.76-2.46,14.38,5.61,9.22,11.85,53.41,3.55,73.69-.73,1.8-.2,8.34-1.4,10.67-4.95,9.57-18.25,23.81-31.85,37h0c-18.22,17.66-37,33.41-37,33.41a13.63,13.63,0,0,1-11.54-1c-4.36-2.47-8.62-10.67-8.62-10.67,2.75-4.37,20.35-50.16,34.69-79.09,6.14-12.37,15.74-127.47,27.58-142.9,9.87-12.88,48.43-21.58,48.43-21.58s-7.72,29.63-14.39,56.72c-2.64,10.73-5.11,21-6.88,29C2439.92,1080,2439.89,1080.12,2439.85,1080.26Z" transform="translate(-107.81 -426.57)"/><path class="cls-5" d="M2449.72,950.93S2464,974.69,2461,995.5l21.66,51.1,38-59.72s-19.07-22.62-26.61-53.39Z" transform="translate(-107.81 -426.57)"/><path class="cls-5" d="M2443.17,969.93s53.45,2.63,54.61-29.46,15.74-53.35-24.23-56.4c-32.87-2.52-43.88,11.13-46.87,21.74S2423.37,968.09,2443.17,969.93Z" transform="translate(-107.81 -426.57)"/><path class="cls-3" d="M2440.94,1168.33c-.73,1.8-.2,8.34-1.4,10.67-4.95,9.57-18.25,23.81-31.85,37h0s13.34-62.09,13.26-88.47c-.06-20.74,10.06-41.2,19-47.71,0,.14-.06.29-.1.43-1.8,8.21-2.84,13.76-2.46,14.38C2443,1103.86,2449.24,1148.05,2440.94,1168.33Z" transform="translate(-107.81 -426.57)"/><path class="cls-2" d="M2587.59,1278.21c-.16,0-168.51,3.45-160-42.4,1.27-6.89,7.39-35.87,7.19-56.09-.14-15.09-30.85-124.13-30.85-124.13s-.46-38.58,42.54-56.43a101.49,101.49,0,0,1,14.7-5c1.85,5,7,13.58,20.15,12.12,19.49-2.15,33.42-13.55,39.39-19.4,1.09,0,5.39.47,5.39.47,1.43,4.1-1.35,8-.37,12.32,3.43,15.18,5.4,31.14,14.63,43.12a328.21,328.21,0,0,1,23.54,34.88c5.52,9.48,10.76,18.58,14.29,27.85,6.43,16.84,11.06,37,14.14,57.39,1.95,13,3.27,26.09,4,38.59C2598.86,1242.9,2595.2,1277.54,2587.59,1278.21Z" transform="translate(-107.81 -426.57)"/><path class="cls-24" d="M2426.12,939.21s-10.65,41.23,7,47.15,64.53,1.54,64.82-49.08c0,0-24.7,14.53-36.45,14.09s-19.29-7.27-30.18-2C2431.29,949.33,2427.31,949.05,2426.12,939.21Z" transform="translate(-107.81 -426.57)"/><path class="cls-24" d="M2495.54,894.18c-.88-3.28-4.9-5-4.9-5-30-13.29-52.12.93-52.12.93,18.6-24.67,63.11-19.2,72.36,3.2,15.1,36.57-13,44-13,44s-27.91-11.92-11.62-26.56c5.4-4.85,8-9.18,8.9-13h0A12.94,12.94,0,0,0,2495.54,894.18Z" transform="translate(-107.81 -426.57)"/><path class="cls-11" d="M2420.93,1563.15l1.37-403.33s3.08-29.07,28.41-29.22c27-.16,28.77,28.88,28.77,28.88a3.06,3.06,0,0,1-3.15,2.52,3.27,3.27,0,0,1-3.4-2.49s-1.33-22.38-22.18-22.26c-19.53.12-21.91,22.53-21.91,22.53l2.4,403.31Z" transform="translate(-107.81 -426.57)"/><path class="cls-11" d="M2434.72,1563.07l-16.82.1,1.39-17.6s-.16-2.44,3.24-2.6c3.16-.14,9.39-.63,10,1.28C2433.06,1545.92,2434.72,1563.07,2434.72,1563.07Z" transform="translate(-107.81 -426.57)"/><path class="cls-3" d="M2596.34,1201.5c-58.94-2.77-107.79-48.84-107.79-48.84l103.75,10.25C2594.25,1175.89,2595.57,1189,2596.34,1201.5Z" transform="translate(-107.81 -426.57)"/><path class="cls-5" d="M2485.46,1132.67s-19.88-13.12-33.23-9.07c0,0-23.45,13.51-15,18.07s12.33.92,24,7.57,20.72,6.42,27.33,3.42Z" transform="translate(-107.81 -426.57)"/><path class="cls-5" d="M2342.08,1258s-12,12.06-10.16,13.61,5.69-1.72,12.06-3.45,15.45-9.93,16.27-12S2342.08,1258,2342.08,1258Z" transform="translate(-107.81 -426.57)"/><path class="cls-3" d="M2488.44,1132.58s32.09-9.94,40.35-18,7.72-32.3,7.72-32.3,26.9-3.87,19.67,29.89L2549,1145.9Z" transform="translate(-107.81 -426.57)"/><path class="cls-2" d="M2522.14,987s37.36,1.07,57,26.87c15,19.78,48,128,29.41,154.87-13.68,19.77-95.51,9.46-120-16a22,22,0,0,1-3.1-7.1c-2-8.67,0-12.89,0-12.89s56.36-1.55,58.43-10.48c4.72-20.38-16.64-60.34-16.64-60.34S2497,1021.06,2522.14,987Z" transform="translate(-107.81 -426.57)"/><g class="cls-25"><path class="cls-15" d="M2870.59,1447s19.15-22.34,1.18-36.54c0,0-13.13-7.94-23.83-7.3,0,0,15.17,25.44,10.26,28s-14.86-29.56-14.86-29.56-29.87-2.9-39.48,1.72c0,0,25.54,20.9,20.16,22.14s-33-19.27-33-19.27-27.8,4.74-26.32,21.7,11.06,22.2,15.27,21.75,28.85-9.86,29.38-6.41-14.29,14.73-24.67,15.26c0,0,19.6,21.61,32.63,15.38s14.14-16.13,22.26-19.84,15.06-3.7,11.7.08-18.05,7.46-22.69,15.68-8.81,13.75,4.67,11.72,35.39-11.89,36.35-23.18Z" transform="translate(-107.81 -426.57)"/><path class="cls-15" d="M2778.39,1428.33s75.52-2.91,92.2,18.68c0,0,3.69,11,15,21.11l1.77,4.82s-13.09-13.8-17.77-14.63C2869.63,1458.31,2877,1431.55,2778.39,1428.33Z" transform="translate(-107.81 -426.57)"/><path class="cls-15" d="M2885.63,1468.12s16.21,12,17.33,33.41l-2.94.26s-5.17-22.15-14.53-30.81S2885.63,1468.12,2885.63,1468.12Z" transform="translate(-107.81 -426.57)"/><path class="cls-15" d="M2937.56,1418.91s-30.47-17.06-16.25-40.22c0,0,11.37-14.22,23.56-17.87,0,0-6.5,34.53,0,35.34s4.47-39,4.47-39,32.09-15.44,44.69-14.22c0,0-19.91,33.72-13.41,32.91s28.84-34.94,28.84-34.94,32.91-6.09,38.19,13.41-3.25,29.25-8.12,30.47-36.16.81-35.35,4.87,21.94,10.56,33.72,6.91c0,0-13,32.09-30.06,30.47s-22.34-12.19-32.91-13-18.28,2-13,4.87,23.16.93,31.69,8.19,15.44,11.72-.41,15-44.28,1.22-50-11Z" transform="translate(-107.81 -426.57)"/><path class="cls-15" d="M3032.62,1360.41s-85.31,27.63-95.06,58.5c0,0,.4,13.81-8.13,29.66v6.09s8.94-20.72,13.82-23.56C2943.25,1431.1,2924.15,1404.29,3032.62,1360.41Z" transform="translate(-107.81 -426.57)"/><path class="cls-15" d="M2929.43,1448.57s-13.15,20-5.65,44.3l3.38-.91s-3.28-26.79,3.6-40.26S2929.43,1448.57,2929.43,1448.57Z" transform="translate(-107.81 -426.57)"/><path class="cls-26" d="M2889.09,1395.38s40.16-22.49,21.42-53c0,0-15-18.74-31.06-23.56,0,0,8.56,45.52,0,46.59s-5.89-51.41-5.89-51.41-42.31-20.35-58.91-18.74c0,0,26.24,44.45,17.67,43.38s-38-46.06-38-46.06-43.38-8-50.34,17.67,4.29,38.56,10.71,40.17,47.66,1.07,46.59,6.42-28.92,13.93-44.45,9.11c0,0,17.14,42.3,39.63,40.16s29.45-16.06,43.38-17.14,24.1,2.68,17.14,6.43-30.53,1.23-41.78,10.79-20.34,15.45.54,19.73,58.37,1.61,65.87-14.45Z" transform="translate(-107.81 -426.57)"/><path class="cls-26" d="M2763.78,1318.27s112.45,36.41,125.31,77.11c0,0-.54,18.21,10.71,39.09v8s-11.79-27.31-18.21-31C2881.59,1411.45,2906.76,1376.1,2763.78,1318.27Z" transform="translate(-107.81 -426.57)"/><path class="cls-26" d="M2899.8,1434.47s17.34,26.34,7.45,58.4l-4.46-1.2s4.33-35.31-4.74-53.07S2899.8,1434.47,2899.8,1434.47Z" transform="translate(-107.81 -426.57)"/><path class="cls-26" d="M2890.44,1562.39a78.68,78.68,0,0,1-78.67-78.68h157.34A78.68,78.68,0,0,1,2890.44,1562.39Z" transform="translate(-107.81 -426.57)"/><path class="cls-27" d="M2871.08,1561.78a78.66,78.66,0,0,0,88.44-78.07H2940A78.68,78.68,0,0,1,2871.08,1561.78Z" transform="translate(-107.81 -426.57)"/><rect class="cls-15" x="2809.98" y="1483.71" width="161.72" height="2.41" transform="translate(5673.87 2543.26) rotate(180)"/><rect class="cls-15" x="2857.35" y="1555.46" width="65.42" height="6.93" transform="translate(5672.32 2691.27) rotate(180)"/></g><polygon class="cls-10" points="645.61 700.97 454.99 700.97 473.68 564.6 664.3 564.6 645.61 700.97"/><polygon class="cls-11" points="650.1 700.97 459.48 700.97 478.17 564.6 668.79 564.6 650.1 700.97"/><polygon class="cls-10" points="586.82 623.56 570.69 733.24 532.48 733.24 533.19 728.36 548.61 623.56 586.82 623.56"/><polygon class="cls-12" points="573.48 733.24 535.27 733.24 551.4 623.56 589.61 623.56 573.48 733.24"/><path class="cls-12" d="M646.56,1159.81h63.32a4.88,4.88,0,0,0-4.88-4.88H647.28Z" transform="translate(-107.81 -426.57)"/><path class="cls-10" d="M670.24,1159.81h-30l.72-4.87h24.37A4.87,4.87,0,0,1,670.24,1159.81Z" transform="translate(-107.81 -426.57)"/><path class="cls-22" d="M626.56,1562.65H730.1c5-6.08,3.15-28.5,2.39-35.82-.15-1.48-.26-2.33-.26-2.33s-35.36-28.29-40.21-6.63c-.15.68-.33,1.34-.53,2-6.11,20.25-33.56,29.46-49.41,32C631.78,1553.56,628,1558.92,626.56,1562.65Z" transform="translate(-107.81 -426.57)"/><path class="cls-3" d="M909.08,1226.22c-3.74,0-177.36,32.6-206.07,68.15-14.35,17.76-16.48,222.85-16.48,222.85s17.75,22,56.08,9.23c0,0,28.1-140.32,26-182.88-.58-11.77,118.62-1.71,140.44-7.35s75.12-53.11,63.37-76.23S909.08,1226.22,909.08,1226.22Z" transform="translate(-107.81 -426.57)"/><path class="cls-5" d="M783.37,1216.59s-11.11,9.59-22.51,12.3c-6.5,1.54-12.79,3.3-16.54,5-10.31,4.73-29.86,25.86-28,28,5.83,6.73,29.32-10.81,33.81-9.57s-7.37,11.43-2.66,14.2c2.45,1.45,7.09-7.36,11.42-8.6,5.86-1.67,9.75-10.53,11.5-11.13,3.42-1.18,17.69-14,17.69-14Z" transform="translate(-107.81 -426.57)"/><path class="cls-11" d="M580.8,1562.65H684.34c5-6.08,3.15-28.5,2.39-35.82-.15-1.48-.26-2.33-.26-2.33s-35.36-28.29-40.21-6.63c-.15.68-.33,1.34-.53,2-6.11,20.25-33.56,29.46-49.41,32C586,1553.56,582.21,1558.92,580.8,1562.65Z" transform="translate(-107.81 -426.57)"/><path class="cls-2" d="M857.92,1226.22c-3.74,0-177.36,32.6-206.07,68.15-14.35,17.76-16.48,222.85-16.48,222.85s17.75,22,56.08,9.23c0,0,28.1-140.32,26-182.88-.58-11.77,118.62-1.71,140.44-7.35S933,1283.11,921.29,1260,857.92,1226.22,857.92,1226.22Z" transform="translate(-107.81 -426.57)"/><path class="cls-5" d="M868.78,1015.24c12.49-1,25.59-4.36,36.9-8,14.15-4.59,25.56-11.3,18.21-24.23-6.78-11.92-17.74-38.54-17-60.6L880.57,943.6,862.69,958a214,214,0,0,0,2,23.38c.36,2.71.78,5.64,1.27,8.77a6.38,6.38,0,0,1-2.94,6.41l-.4.25C853.75,1002.41,858.32,1016.1,868.78,1015.24Z" transform="translate(-107.81 -426.57)"/><path class="cls-14" d="M862.69,954.5s-.92,3.09.65,14.48c15.94-2.61,30.85-15.32,30.85-15.32-8.12-2.23-11.07-11-17.12-10.18Z" transform="translate(-107.81 -426.57)"/><path class="cls-5" d="M847.94,957.1S909.26,967.29,915,929s17.55-62.76-21.36-70.89-48.73,5.34-53.76,17.66S832.13,953.46,847.94,957.1Z" transform="translate(-107.81 -426.57)"/><path class="cls-11" d="M830.88,858.82c-2.64,9.22,4.41,20.45,16.24,24.15,17.56,5.49,13.68,27,21.59,26.74s11.09-12.38,18.14-2.73c6,8.24-5,18-4.25,22.53,1.31,7.76,13.46,23.63,24.4,22.83s31.44-52.83,27.34-68.93-20.48-33.07-36-35.42-37.05,4.36-42,4.36S832.3,853.84,830.88,858.82Z" transform="translate(-107.81 -426.57)"/><path class="cls-19" d="M815.67,1214.74c1,8.84,2.88,14.85,5.81,16.81,9.14,6.12,21.26,13.73,34.79,21.27,48,26.75,113.65,52.57,127,7.36,15.7-53.1,5.39-152.8-10-214.72-8.86-35.68-33.36-73.11-49.93-73.08-28.22,0-68.8,7.5-85.18,47.92-6.35,15.65-15.67,69.91-20.42,119.61C814.9,1169.52,813.68,1197.5,815.67,1214.74Z" transform="translate(-107.81 -426.57)"/><path class="cls-20" d="M926.19,972.72l-8.5-13.66s-55.1,5.59-64.71,38.15C853,997.21,897.32,973.42,926.19,972.72Z" transform="translate(-107.81 -426.57)"/><path class="cls-20" d="M815.67,1214.74c1,8.84,2.88,14.85,5.81,16.81,9.14,6.12,21.26,13.73,34.79,21.27,14.12-8.58,43.1-29.06,49.88-53.19,8.86-31.56,2.65-70.38,2.65-70.38Z" transform="translate(-107.81 -426.57)"/><path class="cls-19" d="M914.69,1021.28s-4.91,135.62-12.62,162.43c-13.16,45.73-133.1,62-133.1,62s-7.08-8-3.91-21.31c0,0,71.71-56.52,73.8-67.28s-15.62-83.67,4.63-110.19S901.09,997.45,914.69,1021.28Z" transform="translate(-107.81 -426.57)"/><path class="cls-12" d="M1082.08,1565.77h.4a5.4,5.4,0,0,0,5.42-5.79l-21.55-217.14-18.8,1.69,30.94,218.31A3.49,3.49,0,0,0,1082.08,1565.77Z" transform="translate(-107.81 -426.57)"/><path class="cls-12" d="M971.17,1565.77h.4A5.4,5.4,0,0,0,977,1560l-21.55-217.14-18.8,1.69,30.94,218.31A3.49,3.49,0,0,0,971.17,1565.77Z" transform="translate(-107.81 -426.57)"/><path class="cls-12" d="M763,1565.77h-.4a5.4,5.4,0,0,1-5.42-5.79l21.55-217.14,18.8,1.69-30.94,218.31A3.49,3.49,0,0,1,763,1565.77Z" transform="translate(-107.81 -426.57)"/><path class="cls-12" d="M1076,1312.08l20.45-181.36c2.69-26.14-6-51.73-43.36-53.71l-65.76-4c-39-1.62-56.57,31.1-61.5,56.3l-39,199.36Z" transform="translate(-107.81 -426.57)"/><path class="cls-12" d="M665.4,884.68H967.86a0,0,0,0,1,0,0v24.05a10.71,10.71,0,0,1-10.71,10.71H665.4a10.71,10.71,0,0,1-10.71-10.71V895.39A10.71,10.71,0,0,1,665.4,884.68Z"/><path class="cls-12" d="M787.3,884.68H967.86a0,0,0,0,1,0,0v26.44a8.32,8.32,0,0,1-8.32,8.32H787.3a8.32,8.32,0,0,1-8.32-8.32V893A8.32,8.32,0,0,1,787.3,884.68Z"/><polygon class="cls-2" points="482.09 38.02 482.09 203.23 480.27 203.23 480.27 38.23 482.09 38.02"/><polygon class="cls-2" points="698.73 36.11 698.73 203.23 696.9 203.23 696.9 36.01 698.73 36.11"/><rect class="cls-2" x="424.27" y="203.23" width="316.68" height="79.8"/><path class="cls-9" d="M576.11,655.64l-7.33,2-1.51-5.81,10.93-3.49h5v41h-7.09Z" transform="translate(-107.81 -426.57)"/><rect class="cls-9" x="527.82" y="221" width="179.45" height="5.93"/><rect class="cls-9" x="527.82" y="237.33" width="147.71" height="5.93"/><rect class="cls-9" x="527.82" y="253.65" width="105.25" height="5.93"/><polygon class="cls-2" points="1241.77 41.49 1241.77 203.23 1239.94 203.23 1239.94 41.69 1241.77 41.49"/><polygon class="cls-2" points="1458.41 17.63 1458.41 203.23 1456.58 203.23 1456.58 17.83 1458.41 17.63"/><rect class="cls-2" x="1183.94" y="203.23" width="316.68" height="79.8"/><path class="cls-9" d="M1328.28,683.72l14-11.92c5.59-4.71,7.62-7.32,7.62-11,0-4-2.85-6.34-6.57-6.34s-6.28,2-9.42,6.11l-5.06-4c3.9-5.47,7.73-8.55,15-8.55,8,0,13.44,4.88,13.44,12.27,0,6.39-3.43,9.82-10.59,15.76l-8.37,7h19.36v6.28h-29.42Z" transform="translate(-107.81 -426.57)"/><rect class="cls-9" x="1287.49" y="221" width="179.45" height="5.93"/><rect class="cls-9" x="1287.49" y="237.33" width="147.71" height="5.93"/><rect class="cls-9" x="1287.49" y="253.65" width="105.25" height="5.93"/><polygon class="cls-2" points="1994.49 48.01 1994.49 203.23 1992.66 203.23 1992.66 47.33 1994.49 48.01"/><polygon class="cls-2" points="2211.13 96.89 2211.13 203.23 2209.3 203.23 2209.3 96.66 2211.13 96.89"/><rect class="cls-2" x="1936.67" y="203.23" width="316.68" height="79.8"/><path class="cls-9" d="M2080.65,682.91l5-4.65c2.91,3.43,6.17,5.35,10.7,5.35,4,0,7-2.44,7-6.28,0-4-3.67-6.28-9.37-6.28h-3.31l-1.16-4.48,11-11.69h-17.62v-6.22h26.92V654l-11.34,11.63c6.46.93,12,4.24,12,11.57,0,7.5-5.81,12.85-14.25,12.85A19.28,19.28,0,0,1,2080.65,682.91Z" transform="translate(-107.81 -426.57)"/><rect class="cls-9" x="2040.22" y="221" width="179.45" height="5.93"/><rect class="cls-9" x="2040.22" y="237.33" width="147.71" height="5.93"/><rect class="cls-9" x="2040.22" y="253.65" width="105.25" height="5.93"/><rect class="cls-28" x="51.14" y="1136.03" width="2958.05" height="6.3" rx="3"/></svg>